<?xml version="1.0" encoding="utf-8"?>
<!-- Generator: Adobe Illustrator 24.3.0, SVG Export Plug-In . SVG Version: 6.00 Build 0)  -->
<svg version="1.1" id="레이어_1" xmlns="http://www.w3.org/2000/svg" xmlns:xlink="http://www.w3.org/1999/xlink" x="0px"
	 y="0px" viewBox="0 0 103.25 9.02" style="enable-background:new 0 0 103.25 9.02;" xml:space="preserve">
<style type="text/css">
	.st0{fill:#FF6D0D;}
	.st1{fill:#F20C90;}
	.st2{fill:#FFFFFF;}
	.st3{clip-path:url(#SVGID_2_);}
	.st4{fill:#723131;}
	.st5{fill:#A3FBB5;}
	.st6{opacity:0.2;}
	.st7{fill:none;stroke:#A3FBB5;stroke-miterlimit:10;}
	.st8{fill:#F8FAF0;}
	.st9{fill:#FE6D01;}
	.st10{fill:#F40290;}
	.st11{fill:none;stroke:#FF6D0D;stroke-width:2;stroke-linecap:round;stroke-linejoin:round;stroke-miterlimit:10;}
</style>
<g>
	<path class="st9" d="M0,1.67c0-0.18,0.03-0.36,0.1-0.53C0.17,0.97,0.27,0.82,0.4,0.7c0.14-0.14,0.29-0.24,0.45-0.31
		s0.35-0.1,0.55-0.1l1.9-0.01C3.96,0.28,4.57,0.36,5.11,0.5s1.02,0.36,1.43,0.65c0.41,0.29,0.75,0.63,1.01,1.04
		c0.27,0.4,0.47,0.87,0.59,1.39C8.16,3.66,8.18,3.75,8.2,3.85c0.02,0.09,0.03,0.18,0.04,0.27C8.25,4.2,8.26,4.29,8.26,4.39
		c0,0.09,0.01,0.18,0.01,0.27C8.26,5.27,8.15,5.84,7.93,6.35C7.71,6.86,7.38,7.32,6.96,7.72C6.54,8.12,6.05,8.43,5.51,8.62
		c-0.54,0.2-1.14,0.29-1.81,0.29H1.38c-0.19,0-0.37-0.03-0.53-0.1c-0.16-0.06-0.31-0.16-0.44-0.3C0.27,8.38,0.17,8.23,0.1,8.07
		C0.03,7.91,0,7.72,0,7.52V7.51V1.67z M3.43,6.53C3.74,6.54,4.03,6.49,4.28,6.4C4.53,6.31,4.75,6.18,4.94,6
		c0.19-0.18,0.34-0.39,0.43-0.61c0.1-0.22,0.14-0.47,0.14-0.74C5.51,4.62,5.51,4.58,5.5,4.54C5.5,4.5,5.5,4.46,5.5,4.42
		C5.49,4.38,5.48,4.34,5.48,4.3c0-0.04-0.01-0.08-0.02-0.12C5.41,3.96,5.33,3.76,5.21,3.58C5.1,3.4,4.95,3.24,4.76,3.11
		C4.57,2.97,4.36,2.87,4.12,2.8c-0.24-0.07-0.5-0.11-0.79-0.11L2.77,2.68v3.85H3.43z"/>
	<path class="st9" d="M10.9,8.51c-0.44-0.22-0.8-0.5-1.1-0.84c-0.3-0.34-0.52-0.72-0.67-1.16S8.92,5.59,8.92,5.05V1.58
		c0-0.08,0.01-0.17,0.02-0.26c0.02-0.09,0.04-0.18,0.07-0.27C9.05,0.97,9.1,0.89,9.14,0.81c0.05-0.08,0.1-0.15,0.17-0.21
		c0.06-0.07,0.14-0.13,0.22-0.19c0.08-0.05,0.16-0.09,0.25-0.13c0.09-0.04,0.18-0.07,0.26-0.08c0.09-0.02,0.18-0.02,0.28-0.02
		c0.01,0,0.01,0,0.02,0s0.01,0,0.02,0c0.01,0,0.02,0,0.02,0c0.01,0,0.01,0,0.02,0c0,0,0.01,0,0.02,0c0.01,0.01,0.01,0.01,0.02,0.01
		c0,0,0.01,0,0.02,0c0.07,0.01,0.14,0.02,0.22,0.04c0.07,0.02,0.14,0.04,0.22,0.08c0.07,0.03,0.14,0.07,0.2,0.11
		c0.06,0.04,0.12,0.09,0.18,0.15c0.06,0.06,0.12,0.13,0.18,0.21s0.1,0.16,0.13,0.25c0.04,0.09,0.07,0.18,0.08,0.27
		c0.02,0.09,0.02,0.18,0.02,0.27v3.55c0,0.21,0.03,0.4,0.08,0.56C11.82,5.86,11.9,6.01,12,6.14c0.11,0.13,0.24,0.23,0.38,0.32
		s0.31,0.14,0.5,0.17c0.02,0.01,0.03,0.01,0.04,0.02c0.01,0,0.02,0.01,0.03,0.01c0.02,0,0.03,0,0.04,0c0.01,0,0.03,0,0.04,0
		c0.02,0,0.03,0,0.04,0c0.01,0,0.02,0,0.03,0c0.02,0,0.03,0,0.04,0c0.01,0,0.02,0,0.03,0c0.02,0,0.05,0,0.07,0s0.05,0,0.07,0
		s0.05,0,0.07-0.01c0.02,0,0.05-0.01,0.07-0.02c0.18-0.03,0.35-0.09,0.5-0.17s0.27-0.19,0.38-0.32c0.11-0.14,0.19-0.29,0.25-0.46
		c0.05-0.17,0.08-0.35,0.08-0.55V1.56c0-0.08,0.01-0.17,0.03-0.26c0.02-0.09,0.05-0.18,0.08-0.27c0.04-0.09,0.09-0.17,0.14-0.25
		c0.05-0.08,0.11-0.15,0.17-0.21s0.13-0.12,0.21-0.17c0.08-0.05,0.15-0.09,0.23-0.13c0.09-0.03,0.17-0.06,0.26-0.07
		s0.17-0.02,0.26-0.02c0.09,0,0.18,0.01,0.27,0.02c0.09,0.02,0.18,0.04,0.26,0.08c0.09,0.03,0.17,0.08,0.25,0.13
		c0.08,0.06,0.15,0.12,0.21,0.18c0.06,0.06,0.12,0.13,0.17,0.21c0.05,0.08,0.09,0.16,0.13,0.25c0.04,0.09,0.07,0.18,0.08,0.27
		s0.02,0.18,0.02,0.27v3.44c0,0.54-0.07,1.03-0.22,1.47c-0.15,0.44-0.37,0.82-0.68,1.16c-0.3,0.34-0.66,0.62-1.1,0.83
		s-0.94,0.36-1.52,0.44c-0.06,0.02-0.13,0.03-0.19,0.03c-0.06,0-0.13,0.01-0.19,0.02c-0.03,0-0.06,0-0.1,0c-0.03,0-0.06,0-0.1,0.01
		c-0.03,0-0.06,0-0.1,0s-0.06,0-0.1,0c-0.03,0-0.06,0-0.1,0c-0.03,0-0.06,0-0.08-0.01c-0.03,0-0.06,0-0.1-0.01
		c-0.03,0-0.06-0.01-0.1-0.01c-0.03,0-0.06,0-0.1-0.01c-0.03,0-0.06-0.01-0.08-0.01c-0.03-0.01-0.06-0.01-0.1-0.02
		c-0.03,0-0.06-0.01-0.1-0.01v0.01C11.84,8.87,11.34,8.72,10.9,8.51z"/>
	<path class="st9" d="M18.45,8.36c-0.05-0.08-0.1-0.17-0.14-0.27c-0.03-0.1-0.06-0.19-0.08-0.29c-0.02-0.1-0.03-0.2-0.03-0.3V1.58
		c0-0.14,0.02-0.28,0.05-0.41c0.04-0.13,0.09-0.26,0.17-0.38c0.08-0.11,0.17-0.21,0.28-0.29s0.23-0.15,0.35-0.21
		c0.02-0.01,0.03-0.02,0.05-0.02c0.02-0.01,0.04-0.02,0.07-0.02c0.02-0.01,0.05-0.01,0.07-0.02c0.02,0,0.05-0.01,0.07-0.02
		c0.01,0,0.02,0,0.02,0c0.01,0,0.02,0,0.04-0.01c0.01,0,0.02,0,0.03,0c0.01,0,0.02,0,0.03,0c0.02,0,0.03,0,0.04,0s0.02,0,0.04-0.01
		c0.01,0,0.02,0,0.03,0c0.01,0,0.02,0,0.03,0c0.1,0,0.21,0.01,0.31,0.04c0.1,0.03,0.2,0.07,0.29,0.13c0.1,0.06,0.19,0.12,0.29,0.2
		c0.1,0.08,0.19,0.18,0.29,0.29l3.05,3.56V1.58c0-0.08,0.01-0.17,0.03-0.26s0.05-0.18,0.08-0.26C23.96,0.98,24,0.9,24.05,0.82
		c0.05-0.08,0.11-0.15,0.17-0.21c0.06-0.06,0.14-0.12,0.22-0.17c0.08-0.05,0.16-0.09,0.24-0.13c0.09-0.04,0.18-0.07,0.26-0.08
		c0.09-0.02,0.18-0.02,0.26-0.02c0.04,0,0.08,0,0.13,0.01c0.04,0,0.09,0.01,0.14,0.02c0.04,0.01,0.08,0.02,0.13,0.04
		s0.09,0.03,0.13,0.05c0.09,0.03,0.17,0.07,0.24,0.13c0.07,0.05,0.14,0.11,0.2,0.17c0.06,0.06,0.12,0.13,0.17,0.21
		c0.05,0.08,0.09,0.16,0.13,0.25c0.04,0.08,0.07,0.17,0.08,0.26c0.02,0.09,0.02,0.18,0.02,0.27v6.04c0,0.02,0,0.03,0,0.04
		c0,0.01,0,0.03,0,0.04c0,0.01,0,0.01,0,0.02c0,0,0,0.01,0,0.02c-0.01,0.01-0.01,0.02-0.01,0.02c0,0.01,0,0.01,0,0.02
		c0,0,0,0.01,0,0.02c-0.01,0.01-0.01,0.01-0.01,0.02s0,0.01,0,0.02s0,0.02,0,0.03c0,0.01,0,0.03,0,0.04
		c-0.03,0.17-0.09,0.32-0.16,0.45c-0.08,0.13-0.18,0.25-0.32,0.34c-0.13,0.1-0.27,0.18-0.42,0.22S25.35,9,25.19,9
		c-0.01,0-0.02,0-0.03,0c-0.01,0-0.02,0-0.03,0c-0.02-0.01-0.03-0.01-0.04-0.01s-0.02,0-0.02,0s-0.02,0-0.03,0
		c-0.01,0-0.02,0-0.03,0c-0.02-0.01-0.03-0.01-0.04-0.01c-0.01,0-0.02,0-0.02,0c-0.04-0.01-0.08-0.02-0.12-0.03
		c-0.04-0.01-0.08-0.02-0.12-0.03s-0.08-0.02-0.12-0.04c-0.04-0.02-0.08-0.04-0.12-0.06c-0.03-0.02-0.06-0.04-0.1-0.06
		c-0.03-0.02-0.06-0.05-0.1-0.07c-0.03-0.02-0.06-0.05-0.08-0.08c-0.02-0.03-0.05-0.06-0.07-0.09l-3.14-3.83v2.93
		c0,0.1-0.01,0.2-0.02,0.29C20.94,8,20.91,8.08,20.87,8.17c-0.03,0.08-0.07,0.16-0.13,0.24c-0.05,0.08-0.11,0.15-0.17,0.22
		c-0.06,0.06-0.13,0.12-0.2,0.17c-0.07,0.05-0.15,0.09-0.24,0.12C20.08,8.92,20.04,8.93,20,8.95c-0.04,0.01-0.09,0.02-0.13,0.03
		c-0.05,0.01-0.09,0.01-0.14,0.02C19.69,9,19.65,9,19.61,9c-0.09,0-0.18-0.01-0.26-0.02c-0.09-0.02-0.18-0.04-0.26-0.06
		C19,8.88,18.92,8.83,18.84,8.78c-0.08-0.05-0.15-0.11-0.22-0.19V8.58C18.56,8.52,18.5,8.44,18.45,8.36z"/>
	<path class="st9" d="M27.58,8.41c-0.05-0.08-0.09-0.16-0.13-0.25c-0.03-0.09-0.06-0.18-0.08-0.26c-0.02-0.09-0.03-0.18-0.03-0.28
		V1.55c0-0.18,0.03-0.35,0.1-0.51c0.07-0.16,0.17-0.31,0.31-0.45c0.14-0.14,0.29-0.24,0.45-0.3s0.35-0.1,0.55-0.1
		c0.19,0.01,0.37,0.05,0.53,0.11c0.16,0.07,0.31,0.17,0.44,0.31c0.14,0.14,0.24,0.29,0.3,0.45s0.1,0.34,0.1,0.52v1.7l2.44-2.64
		c0.03-0.02,0.06-0.05,0.1-0.08c0.03-0.03,0.06-0.05,0.1-0.08c0.03-0.02,0.07-0.05,0.1-0.07s0.07-0.05,0.11-0.07
		c0.02-0.01,0.03-0.01,0.04-0.02c0.01,0,0.02-0.01,0.03-0.02c0.02,0,0.03,0,0.04-0.01c0.01,0,0.02-0.01,0.03-0.02
		c0.02-0.01,0.05-0.02,0.07-0.02c0.02-0.01,0.05-0.02,0.08-0.02c0.02,0,0.03,0,0.04,0c0.01,0,0.02,0,0.03-0.01c0.02,0,0.03,0,0.04,0
		c0.01,0,0.02,0,0.03,0c0.02,0,0.03,0,0.04,0c0.01,0,0.02,0,0.03-0.01c0.02,0,0.03,0,0.04,0s0.02,0,0.03,0
		c0.14,0,0.26,0.02,0.38,0.05s0.24,0.09,0.36,0.16c0.12,0.07,0.22,0.16,0.31,0.26s0.16,0.22,0.22,0.35
		c0.02,0.06,0.03,0.11,0.05,0.16c0.02,0.05,0.03,0.1,0.04,0.15c0.02,0.05,0.02,0.1,0.02,0.14s0,0.1,0,0.14
		c0,0.09-0.01,0.17-0.02,0.26c-0.02,0.08-0.04,0.16-0.07,0.23c-0.03,0.08-0.07,0.15-0.11,0.22c-0.04,0.06-0.09,0.12-0.14,0.17
		l-1.9,1.79l2.17,2.41c0.06,0.07,0.12,0.14,0.16,0.22s0.08,0.15,0.11,0.23c0.02,0.08,0.04,0.16,0.06,0.24
		c0.02,0.08,0.02,0.16,0.02,0.24c0,0.1-0.01,0.2-0.04,0.3c-0.02,0.1-0.06,0.19-0.1,0.29c-0.05,0.1-0.1,0.18-0.17,0.26
		s-0.14,0.15-0.23,0.22c-0.04,0.03-0.08,0.06-0.13,0.08s-0.09,0.05-0.13,0.07c-0.02,0.01-0.05,0.02-0.07,0.02s-0.04,0.02-0.06,0.02
		c-0.02,0-0.03,0-0.04,0c-0.01,0-0.02,0-0.03,0.01c-0.02,0-0.03,0-0.04,0.01c-0.01,0-0.02,0.01-0.04,0.01
		c-0.03,0.01-0.06,0.01-0.09,0.02c-0.03,0-0.06,0.01-0.09,0.02c-0.02,0-0.03,0-0.05,0s-0.03,0-0.04,0.01c-0.02,0-0.03,0-0.05,0
		s-0.03,0-0.05,0c-0.1,0-0.2-0.01-0.3-0.03c-0.1-0.02-0.19-0.05-0.28-0.08c-0.1-0.04-0.18-0.09-0.25-0.14
		c-0.07-0.05-0.14-0.11-0.19-0.19L30.1,5.3v2.32c0,0.1-0.01,0.2-0.02,0.29s-0.04,0.18-0.08,0.26c-0.03,0.08-0.07,0.16-0.13,0.24
		c-0.05,0.08-0.11,0.15-0.17,0.22c-0.06,0.06-0.12,0.11-0.19,0.16c-0.07,0.05-0.14,0.09-0.22,0.12c-0.03,0.01-0.07,0.02-0.11,0.03
		c-0.04,0.01-0.08,0.02-0.11,0.03c-0.04,0.01-0.08,0.02-0.11,0.02C28.91,9,28.88,9,28.84,9.01c-0.01,0-0.02,0-0.03,0
		c-0.01,0-0.03,0-0.04,0c-0.01,0-0.02,0-0.02,0s-0.02,0-0.02,0c-0.01,0-0.02,0-0.02,0c-0.01,0-0.01,0-0.02,0c0,0-0.01,0-0.02,0
		s-0.02,0-0.02,0c-0.01,0-0.01,0-0.02,0s-0.01,0-0.02,0C28.52,9,28.44,8.99,28.36,8.97c-0.08-0.02-0.15-0.04-0.22-0.07
		c-0.07-0.03-0.14-0.07-0.2-0.12c-0.06-0.05-0.13-0.1-0.19-0.16V8.62C27.68,8.56,27.62,8.49,27.58,8.41z"/>
	<path class="st9" d="M35.81,8.41c-0.05-0.08-0.09-0.16-0.13-0.24C35.64,8.08,35.62,8,35.6,7.91s-0.03-0.18-0.03-0.28V1.57
		c0-0.18,0.03-0.36,0.1-0.52c0.07-0.16,0.17-0.31,0.31-0.45c0.14-0.14,0.29-0.24,0.45-0.3c0.16-0.06,0.34-0.1,0.53-0.1
		c0.19,0,0.37,0.03,0.53,0.1s0.31,0.17,0.44,0.31c0.14,0.14,0.24,0.29,0.31,0.45c0.07,0.16,0.1,0.34,0.1,0.53v6.05
		c0,0.1-0.01,0.19-0.02,0.28c-0.02,0.09-0.04,0.18-0.08,0.26c-0.03,0.08-0.07,0.16-0.13,0.24C38.05,8.5,38,8.58,37.93,8.64
		c-0.07,0.06-0.14,0.12-0.22,0.17c-0.07,0.05-0.15,0.08-0.24,0.11c-0.08,0.03-0.17,0.06-0.26,0.07C37.13,9,37.04,9.01,36.95,9.01
		c-0.01,0-0.02,0-0.02,0c-0.01,0-0.01,0-0.02,0c0,0-0.01,0-0.02,0s-0.02,0-0.02,0c-0.01,0-0.01,0-0.02,0s-0.01,0-0.02,0
		C36.75,9,36.67,8.99,36.59,8.97c-0.08-0.02-0.15-0.04-0.22-0.07c-0.07-0.03-0.14-0.07-0.2-0.12c-0.06-0.05-0.13-0.1-0.19-0.16V8.62
		C35.91,8.56,35.86,8.49,35.81,8.41z"/>
	<path class="st9" d="M39.34,8.36c-0.05-0.08-0.1-0.17-0.14-0.27c-0.03-0.1-0.06-0.19-0.08-0.29c-0.02-0.1-0.03-0.2-0.03-0.3V1.58
		c0-0.14,0.02-0.28,0.05-0.41c0.04-0.13,0.09-0.26,0.17-0.38c0.08-0.11,0.17-0.21,0.28-0.29s0.23-0.15,0.35-0.21
		c0.02-0.01,0.03-0.02,0.05-0.02c0.02-0.01,0.04-0.02,0.07-0.02c0.02-0.01,0.05-0.01,0.07-0.02c0.02,0,0.05-0.01,0.07-0.02
		c0.01,0,0.02,0,0.02,0c0.01,0,0.02,0,0.04-0.01c0.01,0,0.02,0,0.03,0c0.01,0,0.02,0,0.03,0c0.02,0,0.03,0,0.04,0s0.02,0,0.04-0.01
		c0.01,0,0.02,0,0.03,0c0.01,0,0.02,0,0.03,0c0.1,0,0.21,0.01,0.31,0.04c0.1,0.03,0.2,0.07,0.29,0.13c0.1,0.06,0.19,0.12,0.29,0.2
		c0.1,0.08,0.19,0.18,0.29,0.29L44.7,4.4V1.58c0-0.08,0.01-0.17,0.03-0.26s0.05-0.18,0.08-0.26c0.04-0.09,0.09-0.17,0.14-0.25
		c0.05-0.08,0.11-0.15,0.17-0.21c0.06-0.06,0.14-0.12,0.22-0.17c0.08-0.05,0.16-0.09,0.24-0.13c0.09-0.04,0.18-0.07,0.26-0.08
		c0.09-0.02,0.18-0.02,0.26-0.02c0.04,0,0.08,0,0.13,0.01c0.04,0,0.09,0.01,0.14,0.02c0.04,0.01,0.08,0.02,0.13,0.04
		s0.09,0.03,0.13,0.05c0.09,0.03,0.17,0.07,0.24,0.13c0.07,0.05,0.14,0.11,0.2,0.17c0.06,0.06,0.12,0.13,0.17,0.21
		c0.05,0.08,0.09,0.16,0.13,0.25c0.04,0.08,0.07,0.17,0.08,0.26c0.02,0.09,0.02,0.18,0.02,0.27v6.04c0,0.02,0,0.03,0,0.04
		c0,0.01,0,0.03,0,0.04c0,0.01,0,0.01,0,0.02c0,0,0,0.01,0,0.02c-0.01,0.01-0.01,0.02-0.01,0.02c0,0.01,0,0.01,0,0.02
		c0,0,0,0.01,0,0.02c-0.01,0.01-0.01,0.01-0.01,0.02s0,0.01,0,0.02s0,0.02,0,0.03c0,0.01,0,0.03,0,0.04
		c-0.03,0.17-0.09,0.32-0.16,0.45c-0.08,0.13-0.18,0.25-0.32,0.34c-0.13,0.1-0.27,0.18-0.42,0.22S46.24,9,46.08,9
		c-0.01,0-0.02,0-0.03,0c-0.01,0-0.02,0-0.03,0C46,8.99,45.99,8.99,45.98,8.99s-0.02,0-0.02,0s-0.02,0-0.03,0c-0.01,0-0.02,0-0.03,0
		c-0.02-0.01-0.03-0.01-0.04-0.01c-0.01,0-0.02,0-0.02,0c-0.04-0.01-0.08-0.02-0.12-0.03c-0.04-0.01-0.08-0.02-0.12-0.03
		s-0.08-0.02-0.12-0.04c-0.04-0.02-0.08-0.04-0.12-0.06c-0.03-0.02-0.06-0.04-0.1-0.06c-0.03-0.02-0.06-0.05-0.1-0.07
		c-0.03-0.02-0.06-0.05-0.08-0.08c-0.02-0.03-0.05-0.06-0.07-0.09l-3.14-3.83v2.93c0,0.1-0.01,0.2-0.02,0.29
		C41.83,8,41.8,8.08,41.76,8.17c-0.03,0.08-0.07,0.16-0.13,0.24c-0.05,0.08-0.11,0.15-0.17,0.22c-0.06,0.06-0.13,0.12-0.2,0.17
		c-0.07,0.05-0.15,0.09-0.24,0.12c-0.04,0.01-0.08,0.02-0.13,0.03c-0.04,0.01-0.09,0.02-0.13,0.03c-0.05,0.01-0.09,0.01-0.14,0.02
		C40.58,9,40.54,9,40.5,9c-0.09,0-0.18-0.01-0.26-0.02c-0.09-0.02-0.18-0.04-0.26-0.06c-0.08-0.04-0.16-0.09-0.24-0.14
		c-0.08-0.05-0.15-0.11-0.22-0.19V8.58C39.45,8.52,39.39,8.44,39.34,8.36z"/>
	<path class="st9" d="M47.88,4.06c0-0.01,0-0.02,0-0.02c0-0.01,0-0.02,0-0.02c0-0.02,0-0.03-0.01-0.05s-0.01-0.04-0.02-0.07
		c0-0.02,0-0.03,0-0.05c0-0.02,0-0.04,0-0.06c0-0.01,0-0.02,0-0.02c0-0.01,0-0.02-0.01-0.04c0-0.01,0-0.02,0-0.02
		c0-0.01,0-0.02,0-0.02c0-0.02,0-0.05,0-0.07s0-0.05,0.01-0.07c0-0.02,0-0.04,0.01-0.06c0-0.02,0.01-0.05,0.01-0.07
		c0-0.02,0-0.03,0.01-0.05s0.01-0.03,0.01-0.05c0.01-0.02,0.02-0.05,0.02-0.08c0.01-0.03,0.02-0.06,0.02-0.08l1.04-2.39
		c0.06-0.1,0.12-0.2,0.2-0.29c0.08-0.09,0.17-0.17,0.28-0.25c0.11-0.06,0.22-0.11,0.34-0.15C49.9,0.02,50.02,0,50.15,0
		c0.04,0,0.08,0,0.13,0.01c0.04,0,0.09,0.01,0.14,0.03c0.02,0.01,0.05,0.01,0.07,0.02s0.05,0.01,0.07,0.02
		c0.02,0.01,0.04,0.02,0.06,0.02s0.05,0.02,0.07,0.02c0.12,0.06,0.23,0.12,0.32,0.2s0.17,0.18,0.23,0.29
		c0.06,0.1,0.11,0.22,0.15,0.34c0.04,0.12,0.05,0.24,0.05,0.36c0,0.05,0,0.09-0.01,0.14c0,0.04-0.01,0.09-0.03,0.13
		c-0.01,0.05-0.02,0.09-0.04,0.14c-0.02,0.04-0.03,0.09-0.05,0.13L50.2,4.16c-0.03,0.09-0.07,0.16-0.13,0.23
		c-0.05,0.06-0.11,0.13-0.17,0.19c-0.06,0.06-0.13,0.11-0.2,0.15c-0.07,0.04-0.15,0.08-0.23,0.11c-0.03,0.02-0.07,0.03-0.1,0.04
		c-0.04,0.01-0.07,0.02-0.11,0.03c-0.03,0.01-0.07,0.01-0.1,0.01c-0.04,0-0.07,0-0.11,0c-0.13,0-0.25-0.02-0.36-0.06
		c-0.11-0.04-0.22-0.1-0.34-0.17c-0.1-0.07-0.19-0.16-0.27-0.25c-0.08-0.1-0.13-0.21-0.17-0.34V4.1
		C47.88,4.09,47.88,4.07,47.88,4.06z"/>
	<path class="st9" d="M52.3,1.67c0-0.18,0.03-0.36,0.1-0.53c0.07-0.17,0.17-0.32,0.29-0.44c0.14-0.14,0.29-0.24,0.45-0.31
		s0.35-0.1,0.55-0.1l1.9-0.01c0.67,0.01,1.28,0.08,1.82,0.23s1.02,0.36,1.43,0.65c0.41,0.29,0.75,0.63,1.01,1.04
		c0.27,0.4,0.47,0.87,0.59,1.39c0.02,0.09,0.03,0.18,0.05,0.27c0.02,0.09,0.03,0.18,0.04,0.27c0.02,0.09,0.03,0.18,0.03,0.27
		c0,0.09,0.01,0.18,0.01,0.27c-0.01,0.62-0.12,1.18-0.34,1.69C60,6.86,59.68,7.32,59.26,7.72c-0.42,0.41-0.91,0.71-1.45,0.91
		c-0.54,0.2-1.14,0.29-1.81,0.29h-2.33c-0.19,0-0.37-0.03-0.53-0.1c-0.16-0.06-0.31-0.16-0.44-0.3c-0.14-0.14-0.24-0.29-0.31-0.45
		c-0.07-0.16-0.1-0.35-0.1-0.55V7.51V1.67z M55.73,6.53c0.31,0.01,0.59-0.03,0.85-0.13c0.25-0.09,0.47-0.23,0.67-0.4
		c0.19-0.18,0.34-0.39,0.43-0.61c0.1-0.22,0.14-0.47,0.14-0.74c-0.01-0.04-0.01-0.08-0.02-0.12c0-0.04-0.01-0.08-0.01-0.12
		c-0.01-0.04-0.01-0.08-0.02-0.12c0-0.04-0.01-0.08-0.02-0.12c-0.05-0.22-0.13-0.41-0.25-0.59c-0.12-0.18-0.27-0.34-0.45-0.47
		c-0.19-0.14-0.41-0.24-0.65-0.31c-0.24-0.07-0.5-0.11-0.79-0.11l-0.55-0.01v3.85H55.73z"/>
	<path class="st9" d="M61.58,6.56c-0.1-0.18-0.18-0.37-0.24-0.56c-0.06-0.18-0.11-0.37-0.15-0.56s-0.06-0.38-0.08-0.58
		c-0.01-0.02-0.01-0.03-0.01-0.05s0-0.04,0-0.07c0-0.02,0-0.03,0-0.04s0-0.02,0-0.04c0-0.01,0-0.02,0-0.03c0-0.01,0-0.02,0-0.03
		c0-0.02,0-0.03,0-0.05s0-0.04,0-0.07c0-0.02,0-0.03,0-0.04s0-0.02,0-0.04c0-0.01,0-0.02,0.01-0.03c0-0.01,0.01-0.02,0.01-0.03
		c0.01-0.1,0.02-0.19,0.03-0.29c0.01-0.1,0.03-0.19,0.04-0.29c0.02-0.09,0.04-0.18,0.07-0.28c0.03-0.1,0.06-0.19,0.09-0.29
		c0.06-0.18,0.14-0.37,0.24-0.55c0.1-0.18,0.2-0.36,0.32-0.53c0.21-0.3,0.45-0.58,0.73-0.82c0.28-0.24,0.58-0.45,0.92-0.62
		c0.34-0.18,0.68-0.31,1.04-0.4c0.36-0.09,0.73-0.13,1.11-0.13c0.38,0,0.74,0.04,1.1,0.13c0.36,0.09,0.71,0.22,1.04,0.4
		c0.34,0.18,0.64,0.38,0.91,0.62c0.27,0.24,0.52,0.51,0.73,0.82c0.12,0.18,0.23,0.35,0.32,0.53c0.09,0.18,0.17,0.36,0.23,0.55
		c0.06,0.18,0.12,0.37,0.16,0.56s0.07,0.37,0.08,0.56c0,0.01,0,0.02,0,0.03c0,0.01,0,0.03,0.01,0.04c0,0.01,0,0.02,0,0.03
		c0,0.01,0,0.03,0,0.04c0,0.02,0,0.05,0,0.07s0,0.05,0,0.07c0,0.22-0.02,0.43-0.05,0.64c-0.04,0.21-0.09,0.42-0.15,0.62
		c-0.07,0.21-0.16,0.41-0.25,0.61c-0.1,0.2-0.21,0.4-0.35,0.59c-0.22,0.31-0.46,0.59-0.73,0.83c-0.27,0.24-0.58,0.44-0.91,0.61
		c-0.34,0.18-0.68,0.3-1.04,0.38c-0.36,0.08-0.73,0.12-1.1,0.12c-0.38,0-0.75-0.04-1.11-0.12c-0.36-0.08-0.7-0.21-1.04-0.38
		c-0.34-0.17-0.64-0.37-0.92-0.61c-0.28-0.24-0.52-0.52-0.73-0.83V7.07C61.79,6.91,61.68,6.74,61.58,6.56z M63.99,5.42
		c0.09,0.25,0.23,0.46,0.4,0.65c0.18,0.19,0.38,0.33,0.6,0.43c0.22,0.09,0.45,0.14,0.7,0.14c0.03,0,0.06,0,0.09,0
		c0.03,0,0.06,0,0.09-0.01c0.03,0,0.06,0,0.09-0.01c0.03,0,0.06-0.01,0.09-0.02c0.22-0.04,0.41-0.12,0.59-0.23
		c0.18-0.12,0.34-0.26,0.49-0.44c0.14-0.18,0.25-0.39,0.32-0.61c0.07-0.22,0.11-0.45,0.11-0.7c0-0.02,0-0.03,0-0.05
		c0-0.02,0-0.03,0-0.05c-0.01-0.02-0.01-0.03-0.01-0.05s0-0.03,0-0.05c0-0.03,0-0.06-0.01-0.1c0-0.03-0.01-0.06-0.02-0.1
		c-0.04-0.25-0.11-0.47-0.22-0.67c-0.11-0.2-0.25-0.38-0.41-0.53c-0.18-0.15-0.36-0.27-0.56-0.34c-0.2-0.08-0.41-0.11-0.63-0.11
		c-0.26,0-0.49,0.05-0.71,0.14c-0.22,0.1-0.42,0.24-0.6,0.43c-0.18,0.19-0.31,0.41-0.4,0.65c-0.09,0.24-0.14,0.51-0.14,0.8V4.6
		C63.85,4.9,63.9,5.18,63.99,5.42z"/>
	<path class="st9" d="M71.19,8.36c-0.05-0.08-0.1-0.17-0.14-0.27c-0.03-0.1-0.06-0.19-0.08-0.29c-0.02-0.1-0.03-0.2-0.03-0.3V1.58
		c0-0.14,0.02-0.28,0.05-0.41c0.04-0.13,0.09-0.26,0.17-0.38c0.08-0.11,0.17-0.21,0.28-0.29s0.23-0.15,0.35-0.21
		c0.02-0.01,0.03-0.02,0.05-0.02c0.02-0.01,0.04-0.02,0.07-0.02c0.02-0.01,0.05-0.01,0.07-0.02c0.02,0,0.05-0.01,0.07-0.02
		c0.01,0,0.02,0,0.02,0c0.01,0,0.02,0,0.04-0.01c0.01,0,0.02,0,0.03,0c0.01,0,0.02,0,0.03,0c0.02,0,0.03,0,0.04,0s0.02,0,0.04-0.01
		c0.01,0,0.02,0,0.03,0c0.01,0,0.02,0,0.03,0c0.1,0,0.21,0.01,0.31,0.04c0.1,0.03,0.2,0.07,0.29,0.13c0.1,0.06,0.19,0.12,0.29,0.2
		c0.1,0.08,0.19,0.18,0.29,0.29l3.05,3.56V1.58c0-0.08,0.01-0.17,0.03-0.26c0.02-0.09,0.05-0.18,0.08-0.26
		c0.04-0.09,0.09-0.17,0.14-0.25c0.05-0.08,0.11-0.15,0.17-0.21c0.06-0.06,0.14-0.12,0.22-0.17c0.08-0.05,0.16-0.09,0.24-0.13
		c0.09-0.04,0.18-0.07,0.26-0.08c0.09-0.02,0.18-0.02,0.26-0.02c0.04,0,0.08,0,0.13,0.01c0.04,0,0.09,0.01,0.14,0.02
		c0.04,0.01,0.08,0.02,0.13,0.04s0.09,0.03,0.13,0.05c0.09,0.03,0.17,0.07,0.24,0.13c0.07,0.05,0.14,0.11,0.2,0.17
		c0.06,0.06,0.12,0.13,0.17,0.21c0.05,0.08,0.09,0.16,0.13,0.25c0.04,0.08,0.07,0.17,0.08,0.26c0.02,0.09,0.02,0.18,0.02,0.27v6.04
		c0,0.02,0,0.03,0,0.04c0,0.01,0,0.03,0,0.04c0,0.01,0,0.01,0,0.02c0,0,0,0.01,0,0.02c-0.01,0.01-0.01,0.02-0.01,0.02
		c0,0.01,0,0.01,0,0.02c0,0,0,0.01,0,0.02C79.3,7.82,79.3,7.83,79.3,7.83s0,0.01,0,0.02s0,0.02,0,0.03c0,0.01,0,0.03,0,0.04
		c-0.03,0.17-0.09,0.32-0.16,0.45c-0.08,0.13-0.18,0.25-0.32,0.34c-0.13,0.1-0.27,0.18-0.42,0.22S78.09,9,77.93,9
		c-0.01,0-0.02,0-0.03,0c-0.01,0-0.02,0-0.03,0c-0.02-0.01-0.03-0.01-0.04-0.01s-0.02,0-0.02,0c-0.01,0-0.02,0-0.03,0
		c-0.01,0-0.02,0-0.03,0c-0.02-0.01-0.03-0.01-0.04-0.01c-0.01,0-0.02,0-0.02,0c-0.04-0.01-0.08-0.02-0.12-0.03
		c-0.04-0.01-0.08-0.02-0.12-0.03s-0.08-0.02-0.12-0.04c-0.04-0.02-0.08-0.04-0.12-0.06c-0.03-0.02-0.06-0.04-0.1-0.06
		c-0.03-0.02-0.06-0.05-0.1-0.07c-0.03-0.02-0.06-0.05-0.08-0.08c-0.02-0.03-0.05-0.06-0.07-0.09l-3.14-3.83v2.93
		c0,0.1-0.01,0.2-0.02,0.29C73.68,8,73.65,8.08,73.61,8.17c-0.03,0.08-0.07,0.16-0.13,0.24c-0.05,0.08-0.11,0.15-0.17,0.22
		c-0.06,0.06-0.13,0.12-0.2,0.17c-0.07,0.05-0.15,0.09-0.24,0.12c-0.04,0.01-0.08,0.02-0.13,0.03c-0.04,0.01-0.09,0.02-0.13,0.03
		c-0.05,0.01-0.09,0.01-0.14,0.02C72.43,9,72.39,9,72.35,9c-0.09,0-0.18-0.01-0.26-0.02C72,8.96,71.91,8.94,71.82,8.92
		c-0.08-0.04-0.16-0.09-0.24-0.14c-0.08-0.05-0.15-0.11-0.22-0.19V8.58C71.3,8.52,71.24,8.44,71.19,8.36z"/>
	<path class="st9" d="M82.06,8.51c-0.44-0.22-0.8-0.5-1.1-0.84c-0.3-0.34-0.52-0.72-0.67-1.16s-0.22-0.92-0.22-1.46V1.58
		c0-0.08,0.01-0.17,0.02-0.26c0.02-0.09,0.04-0.18,0.07-0.27c0.04-0.09,0.08-0.17,0.13-0.25c0.05-0.08,0.1-0.15,0.17-0.21
		c0.06-0.07,0.14-0.13,0.22-0.19c0.08-0.05,0.16-0.09,0.25-0.13c0.09-0.04,0.18-0.07,0.26-0.08c0.09-0.02,0.18-0.02,0.28-0.02
		c0.01,0,0.01,0,0.02,0s0.01,0,0.02,0c0.01,0,0.02,0,0.02,0c0.01,0,0.01,0,0.02,0c0,0,0.01,0,0.02,0c0.01,0.01,0.01,0.01,0.02,0.01
		c0,0,0.01,0,0.02,0c0.07,0.01,0.14,0.02,0.22,0.04c0.07,0.02,0.14,0.04,0.22,0.08c0.07,0.03,0.14,0.07,0.2,0.11
		c0.06,0.04,0.12,0.09,0.18,0.15c0.06,0.06,0.12,0.13,0.18,0.21s0.1,0.16,0.13,0.25c0.04,0.09,0.07,0.18,0.08,0.27
		c0.02,0.09,0.02,0.18,0.02,0.27v3.55c0,0.21,0.03,0.4,0.08,0.56c0.05,0.17,0.13,0.32,0.23,0.46c0.11,0.13,0.24,0.23,0.38,0.32
		s0.31,0.14,0.5,0.17c0.02,0.01,0.03,0.01,0.04,0.02c0.01,0,0.02,0.01,0.03,0.01c0.02,0,0.03,0,0.04,0c0.01,0,0.03,0,0.04,0
		c0.02,0,0.03,0,0.04,0c0.01,0,0.02,0,0.03,0c0.02,0,0.03,0,0.04,0c0.01,0,0.02,0,0.03,0c0.02,0,0.05,0,0.07,0s0.05,0,0.07,0
		s0.05,0,0.07-0.01c0.02,0,0.05-0.01,0.07-0.02c0.18-0.03,0.35-0.09,0.5-0.17s0.27-0.19,0.38-0.32c0.11-0.14,0.19-0.29,0.25-0.46
		c0.05-0.17,0.08-0.35,0.08-0.55V1.56c0-0.08,0.01-0.17,0.03-0.26c0.02-0.09,0.05-0.18,0.08-0.27c0.04-0.09,0.09-0.17,0.14-0.25
		c0.05-0.08,0.11-0.15,0.17-0.21s0.13-0.12,0.21-0.17c0.08-0.05,0.15-0.09,0.23-0.13c0.09-0.03,0.17-0.06,0.26-0.07
		s0.17-0.02,0.26-0.02c0.09,0,0.18,0.01,0.27,0.02c0.09,0.02,0.18,0.04,0.26,0.08c0.09,0.03,0.17,0.08,0.25,0.13
		c0.08,0.06,0.15,0.12,0.21,0.18c0.06,0.06,0.12,0.13,0.17,0.21c0.05,0.08,0.09,0.16,0.13,0.25c0.04,0.09,0.07,0.18,0.08,0.27
		s0.02,0.18,0.02,0.27v3.44c0,0.54-0.07,1.03-0.22,1.47c-0.15,0.44-0.37,0.82-0.68,1.16c-0.3,0.34-0.66,0.62-1.1,0.83
		s-0.94,0.36-1.52,0.44c-0.06,0.02-0.13,0.03-0.19,0.03c-0.06,0-0.13,0.01-0.19,0.02c-0.03,0-0.06,0-0.1,0c-0.03,0-0.06,0-0.1,0.01
		c-0.03,0-0.06,0-0.1,0s-0.06,0-0.1,0c-0.03,0-0.06,0-0.1,0c-0.03,0-0.06,0-0.08-0.01c-0.03,0-0.06,0-0.1-0.01
		c-0.03,0-0.06-0.01-0.1-0.01c-0.03,0-0.06,0-0.1-0.01c-0.03,0-0.06-0.01-0.08-0.01c-0.03-0.01-0.06-0.01-0.1-0.02
		c-0.03,0-0.06-0.01-0.1-0.01v0.01C83,8.87,82.5,8.72,82.06,8.51z"/>
	<path class="st9" d="M89.03,1.01c0.06-0.14,0.14-0.27,0.25-0.38c0.11-0.11,0.24-0.2,0.38-0.26c0.14-0.06,0.29-0.09,0.45-0.09
		l4.69-0.01c0.16,0.01,0.31,0.04,0.45,0.1c0.14,0.06,0.27,0.15,0.39,0.27c0.11,0.12,0.2,0.25,0.26,0.39s0.09,0.29,0.09,0.46v0.01
		c-0.01,0.17-0.04,0.32-0.1,0.46s-0.15,0.27-0.26,0.38c-0.12,0.11-0.25,0.2-0.38,0.25c-0.14,0.06-0.28,0.08-0.44,0.08l-1.01-0.01
		v4.98c0,0.19-0.03,0.37-0.1,0.52c-0.07,0.16-0.17,0.3-0.31,0.44c-0.13,0.13-0.27,0.22-0.44,0.29C92.78,8.97,92.61,9,92.42,9
		c-0.19,0-0.37-0.03-0.53-0.1s-0.31-0.16-0.45-0.29c-0.13-0.14-0.23-0.28-0.29-0.44c-0.07-0.16-0.1-0.34-0.1-0.53V2.65H90.1
		c-0.17,0.01-0.32-0.02-0.46-0.07c-0.14-0.06-0.26-0.14-0.37-0.26c-0.11-0.11-0.19-0.24-0.25-0.38c-0.05-0.14-0.08-0.29-0.08-0.46
		V1.46l-0.02-0.01C88.94,1.3,88.97,1.15,89.03,1.01z"/>
	<path class="st9" d="M96.83,8.48c-0.02-0.01-0.04-0.02-0.06-0.03c-0.02-0.02-0.05-0.03-0.07-0.05c-0.02-0.02-0.04-0.03-0.05-0.05
		c-0.1-0.07-0.19-0.14-0.26-0.22c-0.07-0.07-0.12-0.15-0.16-0.23c-0.04-0.07-0.07-0.16-0.09-0.25c-0.02-0.1-0.03-0.2-0.03-0.3
		c0-0.01,0-0.02,0-0.02s0-0.02,0-0.02V7.3c0-0.01,0-0.02,0-0.02c0-0.06,0.01-0.13,0.02-0.19c0.01-0.06,0.03-0.12,0.04-0.17
		s0.04-0.11,0.06-0.16c0.02-0.05,0.05-0.1,0.08-0.14c0.06-0.09,0.13-0.17,0.19-0.23c0.06-0.07,0.13-0.12,0.2-0.16
		c0.06-0.04,0.14-0.07,0.22-0.08c0.08-0.02,0.17-0.02,0.26-0.02c0.02,0,0.03,0,0.05,0s0.03,0,0.05,0c0.02,0.01,0.03,0.01,0.05,0.01
		c0.02,0,0.03,0,0.05,0c0.03,0.01,0.07,0.01,0.1,0.02s0.07,0.01,0.11,0.02l0.53,0.13l0.48,0.12l0.35,0.08l0.13,0.04
		c0.02,0.02,0.03,0.03,0.05,0.03s0.04,0.01,0.05,0.01c0.01,0,0.02,0,0.02,0s0.02,0,0.02,0c0.01,0.01,0.02,0.01,0.02,0.01
		c0.01,0,0.02,0,0.02,0c0.04,0.01,0.08,0.01,0.13,0.02c0.04,0,0.08,0.01,0.11,0.01c0.04,0.01,0.07,0.01,0.1,0.01
		c0.03,0,0.06,0,0.09,0c0.03,0,0.06,0,0.09-0.01c0.03,0,0.06-0.01,0.09-0.02c0.02,0,0.05,0,0.07-0.01c0.02,0,0.05-0.01,0.07-0.02
		c0.02-0.01,0.03-0.01,0.05-0.02c0.02,0,0.03-0.01,0.04-0.02c0.01,0,0.02,0,0.02,0c0.01,0,0.02,0,0.02-0.01
		c0.02-0.01,0.03-0.02,0.04-0.02c0.01,0,0.01,0,0.02,0s0.01,0,0.02-0.01c0.01-0.01,0.02-0.01,0.02-0.01
		c0.01-0.01,0.02-0.01,0.02-0.02c0.01,0,0.02-0.01,0.02-0.02c0.02-0.02,0.03-0.03,0.05-0.05c0.02-0.02,0.03-0.03,0.04-0.05
		c0.01-0.02,0.01-0.03,0.02-0.05c0-0.02,0.01-0.04,0.01-0.07c-0.01-0.02-0.01-0.03-0.02-0.05s-0.01-0.04-0.02-0.05
		c-0.01-0.01-0.01-0.02-0.02-0.02c0-0.01-0.01-0.02-0.02-0.02c-0.01,0-0.02,0-0.02-0.01c-0.01-0.01-0.02-0.02-0.02-0.02
		c-0.01,0-0.02,0-0.02-0.01c-0.01,0-0.02,0-0.02,0c-0.01,0-0.02,0-0.02-0.01c-0.01,0-0.02-0.01-0.02-0.02L99.98,5.9l-0.16-0.05
		L99.19,5.7l-0.12-0.02l-0.79-0.23c-0.13-0.02-0.24-0.05-0.35-0.09s-0.2-0.07-0.29-0.11s-0.17-0.08-0.25-0.12S97.24,5.04,97.18,5
		c-0.17-0.1-0.31-0.22-0.44-0.36c-0.12-0.14-0.23-0.29-0.32-0.46c-0.09-0.17-0.15-0.34-0.2-0.52s-0.07-0.37-0.07-0.56
		c0-0.04,0-0.08,0-0.11c0-0.04,0-0.07,0.01-0.1c0-0.04,0-0.08,0.01-0.12c0.01-0.04,0.02-0.08,0.02-0.12
		c0.02-0.11,0.04-0.22,0.08-0.34c0.04-0.11,0.09-0.22,0.14-0.34c0.06-0.11,0.12-0.22,0.19-0.32c0.07-0.1,0.15-0.21,0.24-0.31
		c0.13-0.14,0.27-0.26,0.44-0.38c0.16-0.12,0.35-0.23,0.55-0.32c0.21-0.1,0.43-0.18,0.66-0.25c0.23-0.07,0.48-0.12,0.74-0.15
		c0.02,0,0.03,0,0.04,0c0.01,0,0.03,0,0.04-0.01c0.01,0,0.02,0,0.04,0s0.03,0,0.04,0c0.02,0,0.03,0,0.04,0c0.01,0,0.03,0,0.04-0.01
		c0.01,0,0.02,0,0.04,0c0.02,0,0.03,0,0.05,0s0.03,0,0.04,0s0.02,0,0.03-0.01c0.02,0,0.03,0,0.04,0c0.01,0,0.02,0,0.03,0
		c0.02,0,0.05,0,0.08,0c0.03,0,0.06,0,0.09,0c0.11,0,0.22,0,0.33,0.01c0.11,0.01,0.21,0.02,0.32,0.04c0.11,0.01,0.22,0.02,0.32,0.05
		c0.1,0.02,0.2,0.05,0.31,0.08c0.23,0.07,0.43,0.15,0.61,0.22c0.17,0.08,0.31,0.16,0.41,0.25c0.11,0.08,0.2,0.17,0.28,0.28
		c0.07,0.1,0.12,0.22,0.16,0.34c0.02,0.03,0.03,0.07,0.03,0.1s0.01,0.07,0.02,0.11c0,0.02,0,0.03,0,0.05c0,0.02,0,0.04,0.01,0.05
		c0,0.02,0,0.03,0,0.05c0,0.02,0,0.03,0,0.05c0,0.06,0,0.11-0.01,0.17c-0.01,0.06-0.02,0.12-0.04,0.17
		c-0.02,0.06-0.04,0.11-0.06,0.16c-0.02,0.05-0.05,0.09-0.08,0.13c-0.06,0.09-0.12,0.16-0.19,0.23c-0.07,0.06-0.14,0.12-0.22,0.16
		c-0.07,0.04-0.15,0.07-0.24,0.09s-0.18,0.03-0.29,0.03c-0.06,0-0.11,0-0.17-0.01c-0.06,0-0.12-0.01-0.18-0.02
		c-0.06-0.02-0.12-0.03-0.19-0.04c-0.07-0.01-0.14-0.03-0.21-0.05l-0.1-0.05l-0.35-0.11l-0.14-0.04l-0.34-0.08l-0.17-0.04
		l-0.12-0.02c-0.01,0.01-0.01,0.01-0.02,0.01c0,0-0.01,0-0.02,0c-0.01,0-0.02,0-0.02,0c-0.01,0-0.01,0-0.01-0.01
		c-0.01,0-0.02,0-0.02,0c-0.01,0-0.02,0-0.02,0c-0.01,0-0.01,0-0.02,0c0,0-0.01,0-0.02,0s-0.02,0-0.02,0c-0.01,0-0.02,0-0.02,0
		c-0.01,0-0.02,0-0.02,0c-0.01,0-0.02,0-0.02,0c-0.05,0-0.09,0-0.13,0.01c-0.04,0-0.07,0.01-0.09,0.02
		c-0.03,0.01-0.06,0.02-0.08,0.03c-0.02,0.01-0.04,0.03-0.06,0.04s-0.03,0.03-0.04,0.05c-0.01,0.02-0.03,0.04-0.04,0.05
		c-0.01,0.02-0.01,0.03-0.02,0.05c0,0.02-0.01,0.03-0.01,0.05s0,0.03,0.01,0.04c0,0.01,0.01,0.03,0.02,0.04
		c0.01,0.01,0.02,0.02,0.02,0.02S98.93,2.99,98.94,3c0.02,0.01,0.03,0.02,0.04,0.02c0.01,0.01,0.03,0.02,0.04,0.02
		c0.02,0.01,0.03,0.01,0.05,0.02c0.02,0,0.04,0.01,0.06,0.02l0.59,0.14l0.36,0.08l0.1,0.02l0.7,0.19c0.1,0.04,0.2,0.07,0.3,0.1
		c0.1,0.03,0.18,0.06,0.26,0.1c0.04,0.02,0.08,0.03,0.13,0.05c0.04,0.02,0.09,0.03,0.13,0.05c0.04,0.02,0.08,0.04,0.12,0.06
		c0.04,0.02,0.08,0.03,0.11,0.05c0.22,0.11,0.41,0.24,0.57,0.4c0.16,0.15,0.3,0.32,0.41,0.52c0.11,0.19,0.2,0.39,0.26,0.59
		c0.06,0.2,0.09,0.41,0.09,0.62c0,0.02,0,0.03,0,0.05s0,0.04,0,0.05c-0.01,0.02-0.01,0.05-0.01,0.07c0,0.02,0,0.04,0,0.05
		c-0.01,0.03-0.01,0.07-0.02,0.1c0,0.04-0.01,0.07-0.01,0.11c-0.02,0.11-0.06,0.22-0.1,0.34c-0.04,0.11-0.08,0.22-0.13,0.34
		c-0.06,0.1-0.12,0.21-0.18,0.32s-0.14,0.21-0.23,0.31c-0.17,0.2-0.36,0.37-0.56,0.52c-0.21,0.15-0.44,0.28-0.7,0.39
		c-0.25,0.1-0.52,0.18-0.82,0.23s-0.62,0.07-0.97,0.07c-0.02,0-0.05,0-0.07,0s-0.04,0-0.05,0C99.38,9,99.36,9,99.34,9
		c-0.02,0-0.04,0-0.07,0c-0.02,0-0.05,0-0.07,0s-0.04,0-0.06,0c-0.02-0.01-0.05-0.01-0.07-0.01c-0.02,0-0.04,0-0.07,0
		c-0.26-0.02-0.5-0.04-0.72-0.06c-0.22-0.02-0.41-0.06-0.59-0.11c-0.18-0.04-0.33-0.09-0.46-0.14S97,8.58,96.9,8.52V8.51
		C96.88,8.5,96.85,8.49,96.83,8.48z"/>
</g>
</svg>
