<?xml version="1.0" encoding="utf-8"?>
<!-- Generator: Adobe Illustrator 24.3.0, SVG Export Plug-In . SVG Version: 6.00 Build 0)  -->
<svg version="1.1" id="레이어_1" xmlns="http://www.w3.org/2000/svg" xmlns:xlink="http://www.w3.org/1999/xlink" x="0px"
	 y="0px" viewBox="0 0 85.68 10.93" style="enable-background:new 0 0 85.68 10.93;" xml:space="preserve">
<style type="text/css">
	.st0{fill:#FF6D0D;}
	.st1{fill:#F20C90;}
	.st2{fill:#FFFFFF;}
	.st3{clip-path:url(#SVGID_2_);}
	.st4{fill:#723131;}
	.st5{fill:#A3FBB5;}
	.st6{opacity:0.2;}
	.st7{fill:none;stroke:#A3FBB5;stroke-miterlimit:10;}
	.st8{fill:#F8FAF0;}
	.st9{fill:#FE6D01;}
	.st10{fill:#F40290;}
	.st11{fill:none;stroke:#FF6D0D;stroke-width:2;stroke-linecap:round;stroke-linejoin:round;stroke-miterlimit:10;}
</style>
<g>
	<path class="st9" d="M0.72,8.31C0.7,8.3,0.68,8.29,0.66,8.28C0.64,8.26,0.61,8.25,0.59,8.23C0.57,8.22,0.56,8.2,0.54,8.18
		c-0.1-0.07-0.19-0.14-0.26-0.22C0.21,7.9,0.16,7.82,0.12,7.74C0.08,7.67,0.05,7.58,0.03,7.49C0.01,7.39,0,7.29,0,7.19
		c0-0.01,0-0.02,0-0.02s0-0.02,0-0.02V7.13C0,7.12,0,7.11,0,7.1c0-0.06,0.01-0.13,0.02-0.19C0.03,6.86,0.04,6.8,0.06,6.74
		S0.1,6.64,0.12,6.59c0.02-0.05,0.05-0.1,0.08-0.14c0.06-0.09,0.13-0.17,0.19-0.23c0.06-0.07,0.13-0.12,0.2-0.16
		C0.65,6.01,0.72,5.98,0.8,5.96c0.08-0.02,0.17-0.02,0.26-0.02c0.02,0,0.03,0,0.05,0s0.03,0,0.05,0C1.18,5.95,1.2,5.95,1.21,5.95
		c0.02,0,0.03,0,0.05,0c0.03,0.01,0.07,0.01,0.1,0.02s0.07,0.01,0.11,0.02L2,6.12l0.48,0.12l0.35,0.08l0.13,0.04
		C2.98,6.38,3,6.39,3.02,6.39S3.06,6.4,3.07,6.4c0.01,0,0.02,0,0.02,0s0.02,0,0.02,0C3.13,6.4,3.14,6.41,3.14,6.41
		c0.01,0,0.02,0,0.02,0c0.04,0.01,0.08,0.01,0.13,0.02c0.04,0,0.08,0.01,0.11,0.01c0.04,0.01,0.07,0.01,0.1,0.01
		c0.03,0,0.06,0,0.09,0c0.03,0,0.06,0,0.09-0.01c0.03,0,0.06-0.01,0.09-0.02c0.02,0,0.05,0,0.07-0.01c0.02,0,0.05-0.01,0.07-0.02
		c0.02-0.01,0.03-0.01,0.05-0.02c0.02,0,0.03-0.01,0.04-0.02c0.01,0,0.02,0,0.02,0c0.01,0,0.02,0,0.02-0.01
		C4.08,6.34,4.1,6.33,4.1,6.32c0.01,0,0.01,0,0.02,0s0.01,0,0.02-0.01C4.15,6.3,4.16,6.3,4.16,6.3c0.01-0.01,0.02-0.01,0.02-0.02
		c0.01,0,0.02-0.01,0.02-0.02c0.02-0.02,0.03-0.03,0.05-0.05C4.28,6.2,4.29,6.18,4.3,6.17C4.3,6.15,4.31,6.13,4.31,6.11
		c0-0.02,0.01-0.04,0.01-0.07C4.31,6.03,4.31,6.01,4.3,5.99S4.29,5.96,4.28,5.94C4.28,5.93,4.27,5.92,4.27,5.92
		c0-0.01-0.01-0.02-0.02-0.02c-0.01,0-0.02,0-0.02-0.01C4.22,5.87,4.21,5.86,4.2,5.86c-0.01,0-0.02,0-0.02-0.01
		c-0.01,0-0.02,0-0.02,0c-0.01,0-0.02,0-0.02-0.01c-0.01,0-0.02-0.01-0.02-0.02L3.88,5.74L3.72,5.69L3.08,5.53L2.96,5.51L2.17,5.28
		C2.04,5.26,1.93,5.23,1.82,5.19s-0.2-0.07-0.29-0.11S1.36,5,1.28,4.96S1.13,4.88,1.07,4.84C0.9,4.73,0.75,4.61,0.63,4.48
		C0.51,4.34,0.4,4.19,0.31,4.02C0.22,3.85,0.16,3.68,0.11,3.5S0.05,3.13,0.05,2.94c0-0.04,0-0.08,0-0.11c0-0.04,0-0.07,0.01-0.1
		c0-0.04,0-0.08,0.01-0.12C0.08,2.56,0.09,2.52,0.1,2.48c0.02-0.11,0.04-0.22,0.08-0.34c0.04-0.11,0.09-0.22,0.14-0.34
		C0.38,1.7,0.44,1.59,0.52,1.49c0.07-0.1,0.15-0.21,0.24-0.31c0.13-0.14,0.27-0.26,0.44-0.38c0.16-0.12,0.35-0.23,0.55-0.32
		c0.21-0.1,0.43-0.18,0.66-0.25C2.63,0.15,2.88,0.1,3.14,0.07c0.02,0,0.03,0,0.04,0c0.01,0,0.03,0,0.04-0.01c0.01,0,0.02,0,0.04,0
		s0.03,0,0.04,0c0.02,0,0.03,0,0.04,0c0.01,0,0.03,0,0.04-0.01c0.01,0,0.02,0,0.04,0c0.02,0,0.03,0,0.05,0s0.03,0,0.04,0
		s0.02,0,0.03-0.01c0.02,0,0.03,0,0.04,0c0.01,0,0.02,0,0.03,0c0.02,0,0.05,0,0.08,0c0.03,0,0.06,0,0.09,0c0.11,0,0.22,0,0.33,0.01
		c0.11,0.01,0.21,0.02,0.32,0.04c0.11,0.01,0.22,0.02,0.32,0.05c0.1,0.02,0.2,0.05,0.31,0.08c0.23,0.07,0.43,0.15,0.61,0.22
		C5.83,0.51,5.97,0.6,6.07,0.68c0.11,0.08,0.2,0.17,0.28,0.28C6.42,1.06,6.47,1.18,6.5,1.3c0.02,0.03,0.03,0.07,0.03,0.1
		s0.01,0.07,0.02,0.11c0,0.02,0,0.03,0,0.05c0,0.02,0,0.04,0.01,0.05c0,0.02,0,0.03,0,0.05c0,0.02,0,0.03,0,0.05
		c0,0.06,0,0.11-0.01,0.17C6.54,1.95,6.53,2.01,6.52,2.06C6.5,2.12,6.48,2.17,6.46,2.22C6.43,2.27,6.4,2.31,6.37,2.35
		C6.32,2.44,6.25,2.52,6.18,2.58C6.11,2.64,6.04,2.7,5.96,2.74C5.89,2.78,5.81,2.81,5.72,2.83S5.54,2.86,5.44,2.86
		c-0.06,0-0.11,0-0.17-0.01c-0.06,0-0.12-0.01-0.18-0.02C5.03,2.82,4.97,2.8,4.9,2.79C4.83,2.78,4.76,2.76,4.69,2.74L4.6,2.69
		L4.25,2.58L4.1,2.54L3.77,2.46L3.6,2.42L3.48,2.4C3.47,2.41,3.47,2.41,3.46,2.41c0,0-0.01,0-0.02,0c-0.01,0-0.02,0-0.02,0
		c-0.01,0-0.01,0-0.01-0.01c-0.01,0-0.02,0-0.02,0c-0.01,0-0.02,0-0.02,0c-0.01,0-0.01,0-0.02,0c0,0-0.01,0-0.02,0s-0.02,0-0.02,0
		c-0.01,0-0.02,0-0.02,0c-0.01,0-0.02,0-0.02,0c-0.01,0-0.02,0-0.02,0c-0.05,0-0.09,0-0.13,0.01c-0.04,0-0.07,0.01-0.09,0.02
		C2.98,2.43,2.95,2.44,2.93,2.45C2.9,2.47,2.88,2.48,2.87,2.5S2.84,2.53,2.83,2.55C2.81,2.57,2.8,2.59,2.78,2.6
		C2.78,2.62,2.77,2.64,2.77,2.65c0,0.02-0.01,0.03-0.01,0.05s0,0.03,0.01,0.04c0,0.01,0.01,0.03,0.02,0.04
		C2.79,2.79,2.8,2.8,2.81,2.81s0.02,0.02,0.02,0.02c0.02,0.01,0.03,0.02,0.04,0.02C2.89,2.86,2.9,2.87,2.92,2.88
		C2.93,2.89,2.95,2.89,2.96,2.9C2.98,2.9,3,2.91,3.02,2.92l0.59,0.14l0.36,0.08l0.1,0.02l0.7,0.19c0.1,0.04,0.2,0.07,0.3,0.1
		c0.1,0.03,0.18,0.06,0.26,0.1C5.37,3.58,5.41,3.6,5.45,3.61C5.5,3.63,5.54,3.64,5.58,3.66C5.62,3.68,5.66,3.7,5.7,3.72
		s0.08,0.03,0.11,0.05c0.22,0.11,0.41,0.24,0.57,0.4c0.16,0.15,0.3,0.32,0.41,0.52c0.11,0.19,0.2,0.39,0.26,0.59
		c0.06,0.2,0.09,0.41,0.09,0.62c0,0.02,0,0.03,0,0.05s0,0.04,0,0.05C7.13,6.02,7.13,6.05,7.13,6.07c0,0.02,0,0.04,0,0.05
		c-0.01,0.03-0.01,0.07-0.02,0.1c0,0.04-0.01,0.07-0.01,0.11c-0.02,0.11-0.06,0.22-0.1,0.34C6.97,6.78,6.92,6.9,6.88,7.01
		C6.82,7.11,6.76,7.22,6.7,7.33S6.56,7.54,6.47,7.63C6.3,7.83,6.11,8.01,5.9,8.15C5.7,8.3,5.46,8.43,5.21,8.54
		c-0.25,0.1-0.52,0.18-0.82,0.23S3.77,8.84,3.42,8.84c-0.02,0-0.05,0-0.07,0s-0.04,0-0.05,0C3.28,8.84,3.25,8.83,3.23,8.83
		c-0.02,0-0.04,0-0.07,0c-0.02,0-0.05,0-0.07,0s-0.04,0-0.06,0C3.01,8.82,2.99,8.82,2.97,8.82s-0.04,0-0.07,0
		C2.64,8.8,2.4,8.78,2.18,8.76C1.97,8.74,1.77,8.7,1.6,8.65C1.42,8.61,1.27,8.57,1.13,8.51S0.89,8.41,0.79,8.35V8.34
		C0.77,8.33,0.74,8.32,0.72,8.31z"/>
	<path class="st9" d="M7.38,1.64C7.37,1.64,7.37,1.62,7.36,1.6S7.36,1.56,7.36,1.54c0-0.02,0-0.03-0.01-0.04
		c0-0.01-0.01-0.02-0.01-0.04c0-0.01,0-0.02,0-0.03s0-0.02,0-0.03c0-0.02,0-0.03,0-0.04s0-0.02,0-0.04c0-0.01,0-0.02,0.01-0.03
		c0-0.01,0.01-0.02,0.01-0.03c0-0.02,0-0.03,0-0.04c0-0.01,0-0.02,0.01-0.04c0-0.01,0-0.02,0.01-0.03c0-0.01,0.01-0.02,0.01-0.03
		C7.4,1.06,7.42,0.98,7.46,0.91c0.04-0.08,0.08-0.15,0.13-0.23c0.05-0.07,0.1-0.14,0.16-0.2C7.81,0.4,7.88,0.34,7.96,0.29
		C8,0.26,8.04,0.23,8.09,0.2s0.1-0.05,0.16-0.07C8.3,0.11,8.36,0.09,8.41,0.07c0.06-0.02,0.11-0.03,0.17-0.04c0.01,0,0.02,0,0.02,0
		c0.01,0,0.02,0,0.02-0.01c0.02,0,0.03,0,0.04,0c0.02,0,0.03,0,0.05,0c0.02,0,0.03,0,0.05,0c0.16,0,0.31,0.03,0.44,0.08
		c0.14,0.05,0.26,0.13,0.38,0.23S9.81,0.56,9.9,0.71c0.09,0.14,0.16,0.31,0.22,0.49l1.02,3.48l1.02-3.6
		c0.04-0.14,0.09-0.26,0.14-0.37c0.06-0.11,0.12-0.21,0.18-0.29c0.06-0.08,0.13-0.15,0.21-0.2c0.08-0.06,0.16-0.1,0.25-0.13
		c0.02-0.01,0.03-0.01,0.05-0.02c0.02,0,0.04-0.01,0.07-0.02c0.02-0.01,0.03-0.01,0.05-0.02c0.02,0,0.04-0.01,0.05-0.01
		c0.04-0.01,0.08-0.01,0.12-0.02C13.32,0,13.36,0,13.4,0c0.14,0,0.26,0.02,0.38,0.07c0.12,0.05,0.23,0.12,0.34,0.22
		c0.11,0.1,0.21,0.21,0.28,0.34c0.08,0.13,0.14,0.29,0.2,0.46l1.02,3.59l1.02-3.49c0.06-0.18,0.13-0.34,0.22-0.48
		c0.09-0.14,0.19-0.27,0.31-0.37s0.25-0.18,0.39-0.23c0.14-0.05,0.29-0.08,0.45-0.08c0.02,0,0.03,0,0.04,0c0.01,0,0.02,0,0.03,0
		c0.01,0,0.02,0,0.02,0c0.01,0,0.02,0,0.02,0c0.01,0.01,0.02,0.01,0.02,0.01s0.02,0,0.02,0c0.06,0.01,0.11,0.02,0.16,0.03
		c0.05,0.01,0.11,0.03,0.16,0.05c0.06,0.02,0.11,0.05,0.16,0.08c0.05,0.03,0.1,0.06,0.14,0.09c0.07,0.06,0.14,0.11,0.2,0.17
		s0.11,0.13,0.16,0.2c0.05,0.07,0.09,0.15,0.13,0.22c0.04,0.08,0.07,0.15,0.09,0.23c0,0.01,0,0.02,0,0.04c0,0.02,0,0.03,0.01,0.04
		c0,0.02,0,0.03,0.01,0.04c0,0.01,0.01,0.03,0.01,0.04c0,0.01,0,0.02,0,0.03c0,0.01,0,0.03,0.01,0.04c0,0.01,0,0.02,0,0.03
		s0,0.03,0,0.04c0,0.01,0,0.02,0,0.03c0,0.01,0,0.02,0,0.03C19.41,1.49,19.4,1.5,19.4,1.51s0,0.02,0,0.02c0,0.02,0,0.05-0.01,0.07
		c0,0.02-0.01,0.04-0.02,0.05l-1.56,5.65c-0.07,0.26-0.16,0.49-0.28,0.68c-0.11,0.19-0.25,0.35-0.41,0.48
		c-0.15,0.13-0.32,0.22-0.52,0.28C16.43,8.8,16.22,8.83,16,8.83c-0.2-0.01-0.39-0.04-0.57-0.09c-0.18-0.05-0.35-0.14-0.51-0.26
		c-0.15-0.11-0.28-0.25-0.4-0.41c-0.11-0.16-0.2-0.34-0.26-0.54l-0.88-2.76L12.5,7.54c-0.06,0.21-0.15,0.39-0.26,0.55
		c-0.11,0.16-0.25,0.3-0.41,0.41c-0.15,0.12-0.32,0.21-0.5,0.26c-0.18,0.05-0.37,0.08-0.57,0.09c-0.22,0-0.43-0.03-0.62-0.08
		C9.96,8.7,9.78,8.61,9.62,8.48C9.47,8.36,9.34,8.2,9.22,8C9.11,7.81,9.01,7.59,8.94,7.33V7.32L7.38,1.64z"/>
	<path class="st9" d="M19.96,7.75c-0.01-0.04-0.03-0.09-0.04-0.14c-0.01-0.04-0.01-0.08-0.02-0.13S19.9,7.39,19.9,7.34V1.5
		c0-0.19,0.03-0.37,0.1-0.54c0.07-0.17,0.17-0.32,0.29-0.44c0.14-0.14,0.29-0.24,0.45-0.3c0.16-0.06,0.35-0.1,0.55-0.1l3.3-0.01
		c0.16,0.01,0.31,0.04,0.44,0.1s0.26,0.15,0.38,0.26c0.11,0.12,0.2,0.25,0.26,0.39c0.06,0.14,0.09,0.29,0.09,0.46
		c0,0.17-0.03,0.32-0.09,0.47c-0.06,0.14-0.15,0.28-0.26,0.4c-0.12,0.12-0.25,0.21-0.39,0.26c-0.14,0.06-0.29,0.08-0.45,0.08
		l-1.9-0.01v0.73h1.56c0.09,0.01,0.17,0.02,0.25,0.04c0.08,0.02,0.16,0.04,0.24,0.07c0.08,0.03,0.16,0.07,0.23,0.11
		c0.07,0.04,0.14,0.1,0.2,0.16c0.05,0.05,0.09,0.1,0.13,0.15s0.08,0.11,0.11,0.17c0.02,0.03,0.03,0.06,0.04,0.1
		c0.01,0.03,0.02,0.06,0.03,0.08c0.01,0.03,0.02,0.06,0.02,0.1c0.01,0.03,0.02,0.06,0.02,0.1c0,0.01,0,0.02,0,0.02
		c0,0.01,0,0.01,0,0.02s0,0.01,0,0.02s0,0.02,0,0.02c0,0.01,0,0.02,0,0.02c-0.01,0.08-0.02,0.16-0.04,0.23
		c-0.02,0.07-0.04,0.14-0.07,0.22c-0.03,0.07-0.07,0.14-0.11,0.2c-0.04,0.06-0.09,0.12-0.16,0.18c-0.06,0.06-0.13,0.1-0.2,0.14
		c-0.07,0.04-0.15,0.08-0.23,0.11c-0.08,0.03-0.16,0.06-0.23,0.07c-0.08,0.02-0.15,0.02-0.23,0.02L22.67,5.6v0.74h1.8
		c0.09,0.01,0.17,0.02,0.26,0.04s0.17,0.04,0.25,0.07c0.08,0.03,0.16,0.07,0.23,0.11c0.07,0.04,0.14,0.1,0.2,0.16
		c0.06,0.05,0.1,0.1,0.14,0.16S25.62,7,25.66,7.07c0.03,0.06,0.06,0.13,0.08,0.2s0.03,0.13,0.04,0.2c0,0.01,0,0.02,0,0.02
		c0,0.01,0,0.01,0,0.02c0,0,0,0.01,0,0.02c0,0.01,0,0.02,0,0.02c0,0.01,0,0.02,0,0.02c0,0.08-0.01,0.16-0.02,0.23
		c-0.02,0.07-0.04,0.14-0.07,0.22c-0.03,0.07-0.07,0.14-0.11,0.2s-0.09,0.12-0.16,0.18c-0.06,0.06-0.13,0.11-0.2,0.15
		c-0.07,0.04-0.15,0.08-0.23,0.11c-0.08,0.03-0.16,0.05-0.23,0.07c-0.08,0.01-0.16,0.02-0.25,0.02h-3.23
		c-0.13,0-0.25-0.02-0.38-0.05c-0.12-0.04-0.25-0.09-0.37-0.17s-0.22-0.17-0.31-0.28C20.14,8.13,20.07,8.01,20,7.87V7.86
		C19.99,7.83,19.97,7.79,19.96,7.75z"/>
	<path class="st9" d="M26.39,7.75c-0.01-0.04-0.03-0.09-0.04-0.14c-0.01-0.04-0.01-0.08-0.02-0.13s-0.01-0.09-0.01-0.14V1.5
		c0-0.19,0.03-0.37,0.1-0.54c0.07-0.17,0.17-0.32,0.29-0.44c0.14-0.14,0.29-0.24,0.45-0.3c0.16-0.06,0.35-0.1,0.55-0.1l3.3-0.01
		c0.16,0.01,0.31,0.04,0.44,0.1s0.26,0.15,0.38,0.26c0.11,0.12,0.2,0.25,0.26,0.39c0.06,0.14,0.09,0.29,0.09,0.46
		c0,0.17-0.03,0.32-0.09,0.47c-0.06,0.14-0.15,0.28-0.26,0.4c-0.12,0.12-0.25,0.21-0.39,0.26C31.31,2.5,31.16,2.53,31,2.53
		l-1.9-0.01v0.73h1.56c0.09,0.01,0.17,0.02,0.25,0.04c0.08,0.02,0.16,0.04,0.24,0.07c0.08,0.03,0.16,0.07,0.23,0.11
		c0.07,0.04,0.14,0.1,0.2,0.16c0.05,0.05,0.09,0.1,0.13,0.15s0.08,0.11,0.11,0.17c0.02,0.03,0.03,0.06,0.04,0.1
		c0.01,0.03,0.02,0.06,0.03,0.08c0.01,0.03,0.02,0.06,0.02,0.1c0.01,0.03,0.02,0.06,0.02,0.1c0,0.01,0,0.02,0,0.02
		c0,0.01,0,0.01,0,0.02s0,0.01,0,0.02s0,0.02,0,0.02c0,0.01,0,0.02,0,0.02c-0.01,0.08-0.02,0.16-0.04,0.23
		c-0.02,0.07-0.04,0.14-0.07,0.22c-0.03,0.07-0.07,0.14-0.11,0.2c-0.04,0.06-0.09,0.12-0.16,0.18c-0.06,0.06-0.13,0.1-0.2,0.14
		c-0.07,0.04-0.15,0.08-0.23,0.11c-0.08,0.03-0.16,0.06-0.23,0.07c-0.08,0.02-0.15,0.02-0.23,0.02L29.1,5.6v0.74h1.8
		c0.09,0.01,0.17,0.02,0.26,0.04s0.17,0.04,0.25,0.07c0.08,0.03,0.16,0.07,0.23,0.11c0.07,0.04,0.14,0.1,0.2,0.16
		c0.06,0.05,0.1,0.1,0.14,0.16S32.06,7,32.09,7.07c0.03,0.06,0.06,0.13,0.08,0.2s0.03,0.13,0.04,0.2c0,0.01,0,0.02,0,0.02
		c0,0.01,0,0.01,0,0.02c0,0,0,0.01,0,0.02c0,0.01,0,0.02,0,0.02c0,0.01,0,0.02,0,0.02c0,0.08-0.01,0.16-0.02,0.23
		c-0.02,0.07-0.04,0.14-0.07,0.22c-0.03,0.07-0.07,0.14-0.11,0.2s-0.09,0.12-0.16,0.18c-0.06,0.06-0.13,0.11-0.2,0.15
		c-0.07,0.04-0.15,0.08-0.23,0.11c-0.08,0.03-0.16,0.05-0.23,0.07c-0.08,0.01-0.16,0.02-0.25,0.02h-3.23
		c-0.13,0-0.25-0.02-0.38-0.05c-0.12-0.04-0.25-0.09-0.37-0.17s-0.22-0.17-0.31-0.28c-0.08-0.11-0.16-0.23-0.22-0.37V7.86
		C26.42,7.83,26.41,7.79,26.39,7.75z"/>
	<path class="st9" d="M32.71,0.85c0.06-0.14,0.14-0.27,0.25-0.38c0.11-0.11,0.24-0.2,0.38-0.26c0.14-0.06,0.29-0.09,0.45-0.09
		l4.69-0.01c0.16,0.01,0.31,0.04,0.45,0.1s0.27,0.15,0.39,0.27c0.11,0.12,0.2,0.25,0.26,0.39s0.09,0.29,0.09,0.46v0.01
		c-0.01,0.17-0.04,0.32-0.1,0.46s-0.15,0.27-0.26,0.38c-0.12,0.11-0.25,0.2-0.38,0.25c-0.14,0.06-0.28,0.08-0.44,0.08l-1.01-0.01
		v4.98c0,0.19-0.03,0.37-0.1,0.52c-0.07,0.16-0.17,0.3-0.31,0.44c-0.13,0.13-0.27,0.22-0.44,0.29c-0.16,0.06-0.34,0.1-0.52,0.1
		c-0.19,0-0.37-0.03-0.53-0.1s-0.31-0.16-0.45-0.29C35,8.31,34.9,8.16,34.83,8c-0.07-0.16-0.1-0.34-0.1-0.53V2.48h-0.95
		c-0.17,0.01-0.32-0.02-0.46-0.07c-0.14-0.06-0.26-0.14-0.37-0.26c-0.11-0.11-0.19-0.24-0.25-0.38c-0.05-0.14-0.08-0.29-0.08-0.46
		V1.3L32.6,1.28C32.62,1.13,32.66,0.99,32.71,0.85z"/>
	<path class="st9" d="M44.65,8.65c-0.17-0.06-0.32-0.16-0.46-0.3c-0.13-0.14-0.22-0.3-0.29-0.49s-0.1-0.4-0.1-0.63v-5.7
		c0-0.19,0.03-0.37,0.1-0.54c0.07-0.17,0.17-0.32,0.31-0.46c0.14-0.14,0.29-0.24,0.46-0.31s0.35-0.11,0.55-0.11l1.99-0.01
		c0.02,0.01,0.03,0.01,0.04,0.01s0.02,0,0.04,0c0.01,0,0.02,0,0.03,0c0.01,0,0.02,0,0.03,0c0.02,0,0.03,0,0.04,0s0.02,0,0.04,0
		c0.01,0.01,0.02,0.01,0.03,0.01c0.01,0,0.02,0,0.03,0c0.01,0,0.02,0,0.02,0s0.02,0,0.04,0c0.01,0.01,0.02,0.01,0.03,0.01
		c0.01,0,0.02,0,0.03,0c0.02,0,0.03,0,0.04,0c0.01,0,0.02,0,0.03,0c0.02,0.01,0.03,0.01,0.04,0.01c0.01,0,0.02,0,0.03,0
		c0.4,0.06,0.76,0.16,1.07,0.3s0.58,0.34,0.8,0.58c0.23,0.24,0.4,0.5,0.52,0.78c0.11,0.28,0.17,0.58,0.17,0.89c0,0.01,0,0.02,0,0.03
		c0,0.01,0,0.02,0,0.03c0,0.02,0,0.03,0,0.04c0,0.01,0,0.02,0,0.04c0,0.01,0,0.02,0,0.03c0,0.01,0,0.03,0,0.04
		c-0.01,0.01-0.01,0.02-0.01,0.03s0,0.03,0,0.04c-0.01,0.13-0.03,0.25-0.05,0.36c-0.03,0.11-0.06,0.22-0.1,0.31
		C50.1,3.74,50.05,3.84,50,3.92c-0.05,0.09-0.1,0.17-0.16,0.24l0.02,0.01l0.17,0.11l0.17,0.11l0.07,0.06
		c0.12,0.11,0.23,0.23,0.32,0.35c0.1,0.12,0.18,0.26,0.24,0.4c0.06,0.15,0.11,0.31,0.15,0.46c0.04,0.16,0.05,0.31,0.05,0.47
		c0,0.01,0,0.02,0,0.04s0,0.03,0,0.04c-0.01,0.02-0.01,0.03-0.01,0.04c0,0.01,0,0.03,0,0.04c0,0.01,0,0.02,0,0.04
		c0,0.02,0,0.03,0,0.04c-0.01,0.02-0.01,0.03-0.01,0.04s0,0.03,0,0.04c-0.01,0.1-0.03,0.21-0.05,0.31c-0.03,0.1-0.06,0.21-0.1,0.31
		s-0.09,0.2-0.14,0.3c-0.06,0.1-0.12,0.19-0.18,0.29c-0.02,0.02-0.03,0.05-0.05,0.07c-0.02,0.02-0.03,0.04-0.05,0.05
		c-0.02,0.02-0.04,0.05-0.06,0.07s-0.03,0.04-0.05,0.05c-0.02,0.02-0.03,0.04-0.05,0.06S50.25,8,50.23,8.03
		c-0.02,0.02-0.05,0.03-0.07,0.05c-0.02,0.02-0.04,0.03-0.05,0.05c-0.13,0.1-0.26,0.2-0.4,0.28c-0.14,0.08-0.28,0.15-0.44,0.2
		c-0.15,0.06-0.32,0.09-0.5,0.11s-0.37,0.03-0.58,0.03H45.2C45,8.75,44.82,8.72,44.65,8.65z M47.89,6.36c0.05,0.01,0.1,0,0.14-0.02
		c0.05-0.02,0.09-0.05,0.12-0.08c0.04-0.04,0.07-0.08,0.09-0.13c0.02-0.04,0.03-0.09,0.03-0.15V5.98c0-0.01,0-0.02,0-0.02
		c0-0.05-0.01-0.1-0.03-0.14c-0.02-0.05-0.05-0.09-0.09-0.12c-0.03-0.04-0.07-0.07-0.12-0.09c-0.05-0.02-0.1-0.03-0.14-0.03
		l-1.31-0.01v0.8H47.89z M47.23,3.25l0.44-0.38l-0.47-0.38H46.6v0.77H47.23z"/>
	<path class="st9" d="M52.46,8.74c-0.16-0.07-0.31-0.17-0.44-0.29C51.88,8.31,51.78,8.16,51.71,8c-0.07-0.16-0.1-0.34-0.1-0.53v-5.9
		c0-0.22,0.03-0.41,0.09-0.59s0.15-0.33,0.28-0.46c0.13-0.14,0.28-0.24,0.45-0.3c0.17-0.06,0.37-0.1,0.58-0.1l2.63-0.01
		c0.42,0.01,0.79,0.06,1.13,0.16c0.34,0.1,0.64,0.24,0.91,0.43c0.26,0.19,0.48,0.42,0.65,0.68c0.17,0.26,0.29,0.55,0.37,0.88
		c0.02,0.06,0.03,0.13,0.04,0.19c0.01,0.06,0.02,0.13,0.03,0.19c0.01,0.06,0.01,0.13,0.02,0.19c0,0.06,0.01,0.13,0.01,0.19
		c0,0.19-0.02,0.38-0.05,0.56s-0.09,0.35-0.16,0.51c-0.07,0.16-0.16,0.31-0.26,0.44s-0.21,0.26-0.34,0.37l-0.05,0.04l-0.28,0.22
		l-0.17,0.13l1.02,1.34c0.05,0.07,0.09,0.14,0.13,0.22s0.07,0.14,0.1,0.22c0.02,0.03,0.03,0.07,0.04,0.11
		c0.01,0.04,0.02,0.08,0.02,0.11c0,0.04,0,0.08,0.01,0.11s0.01,0.07,0.01,0.11c0,0.1-0.01,0.21-0.04,0.32
		c-0.03,0.11-0.07,0.21-0.11,0.31c-0.05,0.1-0.11,0.19-0.18,0.27c-0.07,0.08-0.16,0.16-0.25,0.22c-0.04,0.03-0.08,0.06-0.13,0.08
		s-0.09,0.03-0.14,0.04c-0.05,0.02-0.09,0.03-0.14,0.05c-0.04,0.02-0.09,0.03-0.13,0.04c-0.01,0-0.02,0-0.03,0
		c-0.01,0-0.02,0-0.03,0.01c-0.02,0-0.03,0-0.04,0s-0.02,0-0.04,0c-0.01,0-0.02,0-0.03,0s-0.02,0-0.03,0.01c-0.02,0-0.03,0-0.04,0
		c-0.01,0-0.02,0-0.04,0c-0.12,0-0.23-0.02-0.34-0.05c-0.11-0.03-0.22-0.08-0.33-0.13c-0.1-0.06-0.21-0.14-0.31-0.24
		c-0.1-0.1-0.2-0.21-0.29-0.34l-1.79-2.65v2.03c0,0.2-0.03,0.38-0.1,0.53c-0.07,0.16-0.17,0.3-0.31,0.44
		c-0.14,0.13-0.29,0.22-0.45,0.29s-0.34,0.1-0.52,0.1v0.01C52.8,8.85,52.62,8.81,52.46,8.74z M55.54,3.54
		c0.06,0.01,0.13,0,0.19-0.02s0.11-0.06,0.16-0.11c0.05-0.05,0.08-0.1,0.11-0.16s0.04-0.13,0.04-0.2V3.04c0-0.01,0-0.02,0-0.02
		s0-0.02,0-0.02C56.02,2.92,56,2.86,55.98,2.81c-0.02-0.06-0.06-0.11-0.1-0.16c-0.05-0.04-0.1-0.07-0.14-0.1s-0.1-0.04-0.16-0.04
		l-1.2-0.01v1.03H55.54z"/>
	<path class="st9" d="M59.48,7.75c-0.01-0.04-0.03-0.09-0.04-0.14c-0.01-0.04-0.01-0.08-0.02-0.13s-0.01-0.09-0.01-0.14V1.5
		c0-0.19,0.03-0.37,0.1-0.54c0.07-0.17,0.17-0.32,0.29-0.44c0.14-0.14,0.29-0.24,0.45-0.3c0.16-0.06,0.35-0.1,0.55-0.1l3.3-0.01
		c0.16,0.01,0.31,0.04,0.44,0.1s0.26,0.15,0.38,0.26c0.11,0.12,0.2,0.25,0.26,0.39c0.06,0.14,0.09,0.29,0.09,0.46
		c0,0.17-0.03,0.32-0.09,0.47c-0.06,0.14-0.15,0.28-0.26,0.4c-0.12,0.12-0.25,0.21-0.39,0.26c-0.14,0.06-0.29,0.08-0.45,0.08
		l-1.9-0.01v0.73h1.56c0.09,0.01,0.17,0.02,0.25,0.04c0.08,0.02,0.16,0.04,0.24,0.07c0.08,0.03,0.16,0.07,0.23,0.11
		c0.07,0.04,0.14,0.1,0.2,0.16c0.05,0.05,0.09,0.1,0.13,0.15s0.08,0.11,0.11,0.17c0.02,0.03,0.03,0.06,0.04,0.1
		c0.01,0.03,0.02,0.06,0.03,0.08C64.99,4.17,65,4.2,65,4.24c0.01,0.03,0.02,0.06,0.02,0.1c0,0.01,0,0.02,0,0.02
		c0,0.01,0,0.01,0,0.02s0,0.01,0,0.02s0,0.02,0,0.02c0,0.01,0,0.02,0,0.02c-0.01,0.08-0.02,0.16-0.04,0.23
		c-0.02,0.07-0.04,0.14-0.07,0.22c-0.03,0.07-0.07,0.14-0.11,0.2c-0.04,0.06-0.09,0.12-0.16,0.18c-0.06,0.06-0.13,0.1-0.2,0.14
		c-0.07,0.04-0.15,0.08-0.23,0.11c-0.08,0.03-0.16,0.06-0.23,0.07c-0.08,0.02-0.15,0.02-0.23,0.02L62.18,5.6v0.74h1.8
		c0.09,0.01,0.17,0.02,0.26,0.04s0.17,0.04,0.25,0.07c0.08,0.03,0.16,0.07,0.23,0.11c0.07,0.04,0.14,0.1,0.2,0.16
		c0.06,0.05,0.1,0.1,0.14,0.16S65.14,7,65.17,7.07c0.03,0.06,0.06,0.13,0.08,0.2c0.02,0.07,0.03,0.13,0.04,0.2c0,0.01,0,0.02,0,0.02
		c0,0.01,0,0.01,0,0.02c0,0,0,0.01,0,0.02c0,0.01,0,0.02,0,0.02c0,0.01,0,0.02,0,0.02c0,0.08-0.01,0.16-0.02,0.23
		c-0.02,0.07-0.04,0.14-0.07,0.22c-0.03,0.07-0.07,0.14-0.11,0.2S65,8.34,64.93,8.4c-0.06,0.06-0.13,0.11-0.2,0.15
		c-0.07,0.04-0.15,0.08-0.23,0.11c-0.08,0.03-0.16,0.05-0.23,0.07c-0.08,0.01-0.16,0.02-0.25,0.02h-3.23
		c-0.13,0-0.25-0.02-0.38-0.05c-0.12-0.04-0.25-0.09-0.37-0.17s-0.22-0.17-0.31-0.28c-0.08-0.11-0.16-0.23-0.22-0.37V7.86
		C59.5,7.83,59.49,7.79,59.48,7.75z"/>
	<path class="st9" d="M65.95,8.57c-0.1-0.08-0.19-0.17-0.26-0.28c-0.06-0.1-0.1-0.22-0.14-0.34c-0.04-0.12-0.05-0.25-0.05-0.38
		c0-0.06,0-0.11,0.01-0.17c0.01-0.06,0.02-0.12,0.04-0.17c0.01-0.06,0.02-0.13,0.04-0.19c0.02-0.06,0.04-0.13,0.07-0.19l2.04-5.29
		c0.1-0.23,0.21-0.44,0.35-0.63s0.3-0.35,0.49-0.47c0.18-0.14,0.38-0.24,0.59-0.3s0.43-0.1,0.66-0.1c0.23,0,0.45,0.03,0.67,0.1
		c0.21,0.06,0.41,0.16,0.58,0.3c0.18,0.13,0.35,0.29,0.49,0.47c0.14,0.19,0.26,0.4,0.35,0.64l2.06,5.27
		c0.02,0.07,0.05,0.14,0.07,0.2s0.03,0.13,0.04,0.19c0.02,0.06,0.03,0.11,0.04,0.17c0.01,0.06,0.01,0.12,0.01,0.17
		c0,0.14-0.02,0.26-0.05,0.38C74,8.08,73.94,8.19,73.87,8.29s-0.16,0.2-0.26,0.28c-0.1,0.08-0.22,0.14-0.36,0.18
		c-0.02,0.01-0.03,0.01-0.05,0.02c-0.02,0-0.03,0.01-0.05,0.02C73.14,8.79,73.12,8.8,73.1,8.8c-0.02,0-0.03,0.01-0.05,0.02
		c-0.03,0.01-0.06,0.01-0.1,0.02s-0.06,0.01-0.1,0.02c-0.02,0-0.03,0-0.05,0s-0.03,0-0.05,0.01c-0.02,0-0.03,0-0.05,0
		c-0.02,0-0.03,0-0.05,0c-0.14,0-0.28-0.02-0.41-0.06s-0.25-0.1-0.37-0.18c-0.12-0.09-0.22-0.19-0.31-0.31
		c-0.08-0.12-0.15-0.26-0.21-0.41L71.24,7.5h-2.92l-0.14,0.4c-0.06,0.16-0.13,0.3-0.22,0.42c-0.09,0.12-0.19,0.22-0.31,0.31
		c-0.12,0.08-0.24,0.14-0.37,0.18c-0.13,0.04-0.26,0.06-0.4,0.06c-0.05,0-0.1,0-0.14-0.01c-0.05,0-0.1-0.01-0.14-0.03
		c-0.05-0.01-0.1-0.02-0.14-0.04s-0.1-0.03-0.14-0.05v0.01C66.18,8.71,66.06,8.65,65.95,8.57z M70.43,5.11l-0.65-2.3l-0.65,2.3
		H70.43z"/>
	<path class="st9" d="M74.77,8.24c-0.05-0.08-0.09-0.16-0.13-0.25c-0.03-0.09-0.06-0.18-0.08-0.26c-0.02-0.09-0.03-0.18-0.03-0.28
		V1.38c0-0.18,0.03-0.35,0.1-0.51c0.07-0.16,0.17-0.31,0.31-0.45c0.14-0.14,0.29-0.24,0.45-0.3s0.35-0.1,0.55-0.1
		c0.19,0.01,0.37,0.05,0.53,0.11c0.16,0.07,0.31,0.17,0.44,0.31c0.14,0.14,0.24,0.29,0.3,0.45s0.1,0.34,0.1,0.52v1.7l2.44-2.64
		c0.03-0.02,0.06-0.05,0.1-0.08c0.03-0.03,0.06-0.05,0.1-0.08c0.03-0.02,0.07-0.05,0.1-0.07s0.07-0.05,0.11-0.07
		c0.02-0.01,0.03-0.01,0.04-0.02c0.01,0,0.02-0.01,0.03-0.02c0.02,0,0.03,0,0.04-0.01c0.01,0,0.02-0.01,0.03-0.02
		c0.02-0.01,0.05-0.02,0.07-0.02c0.02-0.01,0.05-0.02,0.08-0.02c0.02,0,0.03,0,0.04,0c0.01,0,0.02,0,0.03-0.01c0.02,0,0.03,0,0.04,0
		c0.01,0,0.02,0,0.03,0c0.02,0,0.03,0,0.04,0c0.01,0,0.02,0,0.03-0.01c0.02,0,0.03,0,0.04,0s0.02,0,0.03,0
		c0.14,0,0.26,0.02,0.38,0.05s0.24,0.09,0.36,0.16c0.12,0.07,0.22,0.16,0.31,0.26s0.16,0.22,0.22,0.35
		c0.02,0.06,0.03,0.11,0.05,0.16c0.02,0.05,0.03,0.1,0.04,0.15c0.02,0.05,0.02,0.1,0.02,0.14s0,0.1,0,0.14
		c0,0.09-0.01,0.17-0.02,0.26s-0.04,0.16-0.07,0.23C82,2.05,81.96,2.12,81.92,2.18c-0.04,0.06-0.09,0.12-0.14,0.17l-1.9,1.79
		l2.17,2.41c0.06,0.07,0.12,0.14,0.16,0.22S82.29,6.92,82.32,7c0.02,0.08,0.04,0.16,0.06,0.24C82.4,7.32,82.4,7.4,82.4,7.48
		c0,0.1-0.01,0.2-0.04,0.3c-0.02,0.1-0.06,0.19-0.1,0.29c-0.05,0.1-0.1,0.18-0.17,0.26s-0.14,0.15-0.23,0.22
		c-0.04,0.03-0.08,0.06-0.13,0.08s-0.09,0.05-0.13,0.07c-0.02,0.01-0.05,0.02-0.07,0.02s-0.04,0.02-0.06,0.02c-0.02,0-0.03,0-0.04,0
		c-0.01,0-0.02,0-0.03,0.01c-0.02,0-0.03,0-0.04,0.01c-0.01,0-0.02,0.01-0.04,0.01c-0.03,0.01-0.06,0.01-0.09,0.02
		c-0.03,0-0.06,0.01-0.09,0.02c-0.02,0-0.03,0-0.05,0s-0.03,0-0.04,0.01c-0.02,0-0.03,0-0.05,0s-0.03,0-0.05,0
		c-0.1,0-0.2-0.01-0.3-0.03c-0.1-0.02-0.19-0.05-0.28-0.08c-0.1-0.04-0.18-0.09-0.25-0.14c-0.07-0.05-0.14-0.11-0.19-0.19
		l-2.68-3.25v2.32c0,0.1-0.01,0.2-0.02,0.29S77.22,7.92,77.18,8c-0.03,0.08-0.07,0.16-0.13,0.24C77,8.32,76.95,8.4,76.88,8.46
		c-0.06,0.06-0.12,0.11-0.19,0.16c-0.07,0.05-0.14,0.09-0.22,0.12c-0.03,0.01-0.07,0.02-0.11,0.03c-0.04,0.01-0.08,0.02-0.11,0.03
		c-0.04,0.01-0.08,0.02-0.11,0.02c-0.04,0.01-0.07,0.02-0.11,0.02c-0.01,0-0.02,0-0.03,0c-0.01,0-0.03,0-0.04,0
		c-0.01,0-0.02,0-0.02,0s-0.02,0-0.02,0c-0.01,0-0.02,0-0.02,0c-0.01,0-0.01,0-0.02,0c0,0-0.01,0-0.02,0s-0.02,0-0.02,0
		c-0.01,0-0.01,0-0.02,0s-0.01,0-0.02,0c-0.08-0.01-0.16-0.02-0.23-0.04c-0.08-0.02-0.15-0.04-0.22-0.07
		c-0.07-0.03-0.14-0.07-0.2-0.12c-0.06-0.05-0.13-0.1-0.19-0.16V8.45C74.88,8.39,74.82,8.32,74.77,8.24z"/>
	<path class="st9" d="M82.13,10.07c0-0.02-0.01-0.04-0.02-0.05c0-0.02,0-0.04-0.01-0.06c0-0.02-0.01-0.03-0.02-0.05
		c0-0.02,0-0.05,0-0.07c0-0.02,0-0.04,0-0.05c0-0.01,0-0.02,0-0.02c0-0.01,0-0.02-0.01-0.02c0-0.02,0-0.03,0-0.04s0-0.02,0-0.02
		c0-0.05,0-0.1,0.01-0.14c0-0.05,0.01-0.09,0.02-0.13c0.01-0.05,0.02-0.09,0.04-0.14s0.03-0.09,0.05-0.13l1.02-2.36
		c0.06-0.11,0.13-0.21,0.21-0.31S83.6,6.3,83.7,6.23c0.11-0.06,0.22-0.11,0.34-0.15c0.11-0.04,0.23-0.05,0.36-0.05
		c0.04,0,0.08,0,0.13,0.01c0.04,0,0.09,0.01,0.14,0.03c0.05,0.01,0.09,0.02,0.14,0.04s0.09,0.03,0.13,0.05
		c0.12,0.06,0.23,0.13,0.32,0.21c0.09,0.08,0.17,0.18,0.23,0.29c0.06,0.1,0.11,0.22,0.15,0.34c0.04,0.12,0.05,0.24,0.05,0.36
		c0,0.05,0,0.09-0.01,0.14s-0.01,0.09-0.03,0.13c-0.01,0.05-0.02,0.09-0.04,0.14s-0.03,0.09-0.05,0.13l-1.13,2.33
		c-0.03,0.07-0.07,0.14-0.13,0.2c-0.05,0.06-0.11,0.12-0.17,0.18c-0.06,0.06-0.13,0.12-0.2,0.16c-0.07,0.04-0.15,0.08-0.23,0.11
		c-0.02,0.01-0.03,0.01-0.05,0.02c-0.02,0-0.04,0.01-0.05,0.02c-0.02,0.01-0.04,0.01-0.06,0.02c-0.02,0-0.03,0.01-0.05,0.01
		c-0.01,0-0.02,0-0.03,0c-0.01,0-0.02,0-0.03,0.01c-0.02,0-0.03,0-0.04,0c-0.01,0-0.02,0-0.02,0c-0.01,0-0.02,0-0.02,0
		s-0.02,0-0.02,0.01c-0.02,0-0.03,0-0.04,0c-0.01,0-0.02,0-0.02,0c-0.13,0-0.25-0.02-0.36-0.05c-0.11-0.04-0.22-0.09-0.32-0.16
		c-0.1-0.07-0.18-0.16-0.25-0.26s-0.13-0.21-0.17-0.33l-0.02,0.01C82.14,10.12,82.14,10.09,82.13,10.07z"/>
</g>
</svg>
