<?xml version="1.0" encoding="utf-8"?>
<!-- Generator: Adobe Illustrator 25.4.1, SVG Export Plug-In . SVG Version: 6.00 Build 0)  -->
<svg version="1.1" id="레이어_1" xmlns="http://www.w3.org/2000/svg" xmlns:xlink="http://www.w3.org/1999/xlink" x="0px"
	 y="0px" viewBox="0 0 142.64 15.1" style="enable-background:new 0 0 142.64 15.1;" xml:space="preserve">
<style type="text/css">
	.st0{fill:#FF6D0D;}
	.st1{fill:#F20C90;}
	.st2{fill:#FFFFFF;}
	.st3{clip-path:url(#SVGID_00000057109390401662325070000002844887314147651772_);}
	.st4{fill:#723131;}
	.st5{fill:#A3FBB5;}
	.st6{opacity:0.2;}
	.st7{fill:none;stroke:#A3FBB5;stroke-miterlimit:10;}
	.st8{fill:#F8FAF0;}
	.st9{fill:#FE6D01;}
	.st10{fill:#F40290;}
</style>
<g>
	<path class="st9" d="M0,13.02c0-0.03,0-0.05,0-0.06c0-0.03,0-0.05,0-0.08c0-0.03,0-0.05,0-0.08c0-0.04,0-0.08,0-0.12s0-0.08,0-0.12
		c0-0.03,0-0.05,0-0.06s0.01-0.03,0.02-0.06c0-0.01,0-0.03,0.01-0.05c0.01-0.02,0.01-0.04,0.01-0.05l1.64-9.52
		C1.72,2.55,1.79,2.3,1.9,2.06C2.01,1.82,2.14,1.6,2.3,1.4s0.34-0.37,0.54-0.52c0.2-0.15,0.42-0.27,0.66-0.36
		c0.05-0.03,0.11-0.05,0.16-0.06s0.11-0.03,0.16-0.04c0.04-0.01,0.09-0.03,0.14-0.04c0.05-0.01,0.11-0.03,0.16-0.04
		C4.23,0.31,4.33,0.3,4.43,0.29s0.2-0.01,0.29-0.01c0.33,0,0.65,0.05,0.95,0.15c0.3,0.1,0.58,0.25,0.85,0.45
		c0.27,0.2,0.49,0.43,0.67,0.69C7.37,1.83,7.51,2.13,7.6,2.46l1.48,5l1.48-5.02c0.11-0.32,0.25-0.61,0.43-0.87
		c0.18-0.26,0.4-0.49,0.67-0.69s0.55-0.35,0.85-0.45c0.3-0.1,0.62-0.15,0.95-0.15c0.11,0,0.21,0,0.31,0.01
		c0.1,0.01,0.2,0.02,0.29,0.05c0.11,0.01,0.21,0.04,0.31,0.07c0.1,0.03,0.2,0.07,0.31,0.11c0.24,0.09,0.46,0.21,0.66,0.36
		c0.2,0.15,0.38,0.32,0.54,0.52s0.29,0.42,0.39,0.66c0.1,0.24,0.18,0.5,0.23,0.78l1.62,9.48c0,0.04,0,0.07,0,0.1
		s0.01,0.05,0.02,0.06c0,0.03,0,0.05,0,0.07s0,0.04,0,0.07c0,0.01,0,0.03,0,0.06c0,0.03,0.01,0.05,0.02,0.08c0,0.01,0,0.03,0,0.06
		c0,0.03,0,0.05,0,0.08c0,0.01,0,0.02,0,0.03c0,0.01,0,0.02,0,0.03s0,0.03,0,0.04s0,0.02,0,0.03c0,0.01,0,0.02,0,0.03s0,0.03,0,0.04
		c-0.03,0.28-0.1,0.53-0.22,0.76c-0.12,0.23-0.29,0.43-0.52,0.62c-0.21,0.17-0.45,0.3-0.71,0.39C16.45,14.96,16.18,15,15.9,15
		c-0.03,0-0.06,0-0.09,0s-0.06-0.01-0.09-0.02c-0.04,0-0.08,0-0.11-0.01c-0.03-0.01-0.06-0.01-0.09-0.01c-0.03,0-0.06,0-0.09-0.01
		s-0.06-0.02-0.09-0.03c-0.04,0-0.08,0-0.11-0.01c-0.03-0.01-0.06-0.02-0.09-0.03c-0.21-0.05-0.4-0.14-0.57-0.25
		c-0.17-0.11-0.32-0.26-0.47-0.43c-0.13-0.16-0.24-0.33-0.32-0.52c-0.08-0.19-0.13-0.39-0.16-0.6l-0.7-5.76l-1.84,6.02
		c-0.08,0.27-0.16,0.49-0.24,0.67c-0.08,0.18-0.17,0.33-0.28,0.45c-0.09,0.12-0.2,0.22-0.33,0.3c-0.13,0.08-0.26,0.14-0.41,0.18
		c-0.07,0.03-0.14,0.05-0.21,0.07c-0.07,0.02-0.14,0.04-0.21,0.05c-0.07,0.01-0.13,0.02-0.2,0.03C9.13,15.1,9.07,15.1,9,15.1
		c-0.21-0.01-0.42-0.06-0.62-0.13C8.18,14.9,8,14.79,7.84,14.66c-0.16-0.15-0.3-0.33-0.43-0.54c-0.13-0.21-0.23-0.47-0.31-0.76
		L5.24,7.32l-0.68,5.74c-0.03,0.23-0.08,0.43-0.16,0.62c-0.08,0.19-0.19,0.36-0.34,0.52c-0.13,0.17-0.29,0.32-0.46,0.43
		s-0.36,0.2-0.56,0.25c-0.07,0.03-0.13,0.04-0.2,0.05c-0.07,0.01-0.13,0.02-0.2,0.03c-0.03,0-0.06,0-0.09,0.01s-0.06,0.01-0.09,0.01
		C2.42,14.99,2.38,15,2.35,15s-0.06,0-0.09,0c-0.29,0-0.56-0.04-0.81-0.13c-0.25-0.09-0.48-0.22-0.69-0.39
		c-0.21-0.19-0.38-0.39-0.51-0.62c-0.13-0.23-0.2-0.48-0.23-0.76v-0.02C0.01,13.05,0,13.03,0,13.02z"/>
	<path class="st9" d="M19.11,13.19c-0.02-0.07-0.04-0.15-0.07-0.23c-0.01-0.07-0.02-0.14-0.03-0.21S19,12.6,19,12.52V2.78
		c0-0.32,0.06-0.62,0.17-0.9s0.28-0.53,0.49-0.74c0.23-0.23,0.48-0.39,0.75-0.5c0.27-0.11,0.58-0.16,0.91-0.16l5.5-0.02
		c0.27,0.01,0.51,0.07,0.73,0.17c0.22,0.1,0.43,0.24,0.63,0.43c0.19,0.2,0.33,0.42,0.43,0.65s0.15,0.49,0.15,0.77
		c0,0.28-0.05,0.54-0.15,0.78c-0.1,0.24-0.24,0.46-0.43,0.66c-0.2,0.2-0.42,0.35-0.65,0.44S27.05,4.5,26.78,4.5l-3.16-0.02V5.7h2.6
		c0.15,0.01,0.29,0.03,0.42,0.06c0.13,0.03,0.27,0.07,0.4,0.12C27.17,5.93,27.3,6,27.42,6.07s0.23,0.16,0.34,0.27
		c0.08,0.08,0.15,0.16,0.22,0.25c0.07,0.09,0.13,0.18,0.18,0.29c0.03,0.05,0.05,0.11,0.07,0.16s0.04,0.1,0.05,0.14
		c0.01,0.05,0.03,0.11,0.04,0.16s0.03,0.11,0.04,0.16c0,0.01,0,0.03,0,0.04s0,0.02,0,0.03c0,0.01,0,0.02,0,0.03s0,0.03,0,0.04
		c0,0.01,0,0.03,0,0.04c-0.01,0.13-0.03,0.26-0.06,0.38c-0.03,0.12-0.07,0.24-0.12,0.36S28.07,8.65,28,8.76
		c-0.07,0.11-0.15,0.21-0.26,0.3S27.52,9.23,27.4,9.3c-0.12,0.07-0.25,0.13-0.38,0.18c-0.13,0.05-0.26,0.09-0.39,0.12
		c-0.13,0.03-0.26,0.04-0.39,0.04l-2.62-0.02v1.24h3c0.15,0.01,0.29,0.03,0.43,0.06c0.14,0.03,0.28,0.07,0.41,0.12
		s0.26,0.12,0.38,0.19s0.23,0.16,0.34,0.27c0.09,0.08,0.17,0.17,0.24,0.26c0.07,0.09,0.13,0.19,0.18,0.3
		c0.05,0.11,0.1,0.22,0.13,0.33c0.03,0.11,0.06,0.22,0.07,0.33c0,0.01,0,0.03,0,0.04c0,0.01,0,0.02,0,0.03s0,0.02,0,0.03
		c0,0.01,0,0.03,0,0.04c0,0.01,0,0.03,0,0.04c0,0.13-0.01,0.26-0.04,0.38s-0.07,0.24-0.12,0.36c-0.05,0.12-0.11,0.23-0.18,0.34
		c-0.07,0.11-0.15,0.21-0.26,0.3c-0.11,0.09-0.22,0.18-0.34,0.25c-0.12,0.07-0.25,0.14-0.38,0.19c-0.13,0.05-0.26,0.09-0.39,0.11
		c-0.13,0.02-0.26,0.03-0.41,0.03H21.3c-0.21,0-0.42-0.03-0.63-0.09c-0.21-0.06-0.41-0.16-0.61-0.29c-0.2-0.13-0.37-0.29-0.51-0.47
		c-0.14-0.18-0.26-0.38-0.37-0.61v-0.02C19.15,13.33,19.13,13.26,19.11,13.19z"/>
	<path class="st9" d="M29.73,13.19c-0.02-0.07-0.04-0.15-0.07-0.23c-0.01-0.07-0.02-0.14-0.03-0.21s-0.01-0.15-0.01-0.23V2.78
		c0-0.32,0.06-0.62,0.17-0.9s0.28-0.53,0.49-0.74c0.23-0.23,0.48-0.39,0.75-0.5c0.27-0.11,0.58-0.16,0.91-0.16l5.5-0.02
		c0.27,0.01,0.51,0.07,0.73,0.17c0.22,0.1,0.43,0.24,0.63,0.43c0.19,0.2,0.33,0.42,0.43,0.65s0.15,0.49,0.15,0.77
		c0,0.28-0.05,0.54-0.15,0.78c-0.1,0.24-0.24,0.46-0.43,0.66c-0.2,0.2-0.42,0.35-0.65,0.44S37.67,4.5,37.4,4.5l-3.16-0.02V5.7h2.6
		c0.15,0.01,0.29,0.03,0.42,0.06c0.13,0.03,0.27,0.07,0.4,0.12c0.13,0.05,0.26,0.12,0.38,0.19s0.23,0.16,0.34,0.27
		c0.08,0.08,0.15,0.16,0.22,0.25c0.07,0.09,0.13,0.18,0.18,0.29c0.03,0.05,0.05,0.11,0.07,0.16s0.04,0.1,0.05,0.14
		c0.01,0.05,0.03,0.11,0.04,0.16s0.03,0.11,0.04,0.16c0,0.01,0,0.03,0,0.04s0,0.02,0,0.03c0,0.01,0,0.02,0,0.03s0,0.03,0,0.04
		c0,0.01,0,0.03,0,0.04c-0.01,0.13-0.03,0.26-0.06,0.38c-0.03,0.12-0.07,0.24-0.12,0.36s-0.11,0.23-0.18,0.34
		c-0.07,0.11-0.15,0.21-0.26,0.3s-0.22,0.17-0.34,0.24c-0.12,0.07-0.25,0.13-0.38,0.18c-0.13,0.05-0.26,0.09-0.39,0.12
		c-0.13,0.03-0.26,0.04-0.39,0.04l-2.62-0.02v1.24h3c0.15,0.01,0.29,0.03,0.43,0.06c0.14,0.03,0.28,0.07,0.41,0.12
		s0.26,0.12,0.38,0.19s0.23,0.16,0.34,0.27c0.09,0.08,0.17,0.17,0.24,0.26c0.07,0.09,0.13,0.19,0.18,0.3
		c0.05,0.11,0.1,0.22,0.13,0.33c0.03,0.11,0.06,0.22,0.07,0.33c0,0.01,0,0.03,0,0.04c0,0.01,0,0.02,0,0.03s0,0.02,0,0.03
		c0,0.01,0,0.03,0,0.04c0,0.01,0,0.03,0,0.04c0,0.13-0.01,0.26-0.04,0.38s-0.07,0.24-0.12,0.36c-0.05,0.12-0.11,0.23-0.18,0.34
		c-0.07,0.11-0.15,0.21-0.26,0.3c-0.11,0.09-0.22,0.18-0.34,0.25c-0.12,0.07-0.25,0.14-0.38,0.19c-0.13,0.05-0.26,0.09-0.39,0.11
		c-0.13,0.02-0.26,0.03-0.41,0.03h-5.38c-0.21,0-0.42-0.03-0.63-0.09c-0.21-0.06-0.41-0.16-0.61-0.29c-0.2-0.13-0.37-0.29-0.51-0.47
		c-0.14-0.18-0.26-0.38-0.37-0.61v-0.02C29.77,13.33,29.75,13.26,29.73,13.19z"/>
	<path class="st9" d="M39.68,1.69c0.09-0.23,0.23-0.44,0.42-0.63c0.19-0.19,0.4-0.33,0.63-0.43s0.48-0.15,0.75-0.15l7.82-0.02
		c0.27,0.01,0.52,0.07,0.75,0.17c0.23,0.1,0.45,0.25,0.65,0.45c0.19,0.2,0.33,0.42,0.43,0.65c0.1,0.23,0.15,0.49,0.15,0.77v0.02
		c-0.01,0.28-0.07,0.54-0.17,0.77c-0.1,0.23-0.24,0.44-0.43,0.63c-0.2,0.19-0.41,0.33-0.64,0.42s-0.47,0.14-0.74,0.14l-1.68-0.02
		v8.3c0,0.32-0.06,0.61-0.17,0.87c-0.11,0.26-0.28,0.5-0.51,0.73c-0.21,0.21-0.46,0.37-0.73,0.48S45.65,15,45.34,15
		c-0.32,0-0.62-0.05-0.89-0.16c-0.27-0.11-0.52-0.27-0.75-0.48c-0.21-0.23-0.38-0.47-0.49-0.74c-0.11-0.27-0.17-0.56-0.17-0.88V4.42
		h-1.58c-0.28,0.01-0.53-0.03-0.76-0.12c-0.23-0.09-0.43-0.24-0.62-0.44c-0.19-0.19-0.32-0.4-0.41-0.63
		C39.58,3,39.54,2.74,39.54,2.46V2.44L39.5,2.42C39.53,2.17,39.59,1.92,39.68,1.69z"/>
	<path class="st10" d="M57.5,2.78c0-0.31,0.06-0.6,0.17-0.88c0.11-0.28,0.28-0.53,0.49-0.74c0.23-0.23,0.48-0.4,0.75-0.51
		c0.27-0.11,0.58-0.17,0.91-0.17l3.16-0.02c1.12,0.01,2.13,0.14,3.04,0.38c0.91,0.24,1.7,0.6,2.38,1.08s1.24,1.06,1.69,1.73
		s0.78,1.44,0.99,2.31c0.03,0.15,0.05,0.3,0.08,0.45c0.03,0.15,0.05,0.3,0.06,0.45c0.03,0.15,0.04,0.3,0.05,0.45
		c0.01,0.15,0.01,0.3,0.01,0.45c-0.01,1.03-0.2,1.97-0.57,2.82c-0.37,0.85-0.9,1.61-1.61,2.28c-0.71,0.68-1.51,1.18-2.41,1.51
		c-0.9,0.33-1.9,0.49-3.01,0.49H59.8c-0.32,0-0.61-0.05-0.88-0.16c-0.27-0.11-0.51-0.27-0.74-0.5c-0.23-0.23-0.4-0.48-0.51-0.75
		c-0.11-0.27-0.17-0.58-0.17-0.91v-0.02V2.78z M63.22,10.88c0.52,0.01,0.99-0.06,1.41-0.21s0.79-0.38,1.11-0.67
		c0.32-0.31,0.56-0.64,0.72-1.01c0.16-0.37,0.24-0.78,0.24-1.23c-0.01-0.07-0.02-0.13-0.03-0.2c-0.01-0.07-0.01-0.13-0.01-0.2
		c-0.01-0.07-0.02-0.13-0.03-0.2c-0.01-0.07-0.02-0.13-0.03-0.2c-0.08-0.36-0.22-0.69-0.41-0.99c-0.19-0.3-0.44-0.56-0.75-0.79
		c-0.32-0.23-0.68-0.4-1.08-0.52c-0.4-0.12-0.84-0.18-1.32-0.18l-0.92-0.02v6.42H63.22z"/>
	<path class="st10" d="M75.57,14.18c-0.73-0.36-1.34-0.83-1.83-1.4c-0.49-0.56-0.86-1.2-1.11-1.93c-0.25-0.73-0.37-1.54-0.37-2.43
		V2.64c0-0.13,0.01-0.28,0.04-0.43c0.03-0.15,0.07-0.3,0.12-0.45c0.07-0.15,0.14-0.28,0.22-0.41c0.08-0.13,0.17-0.24,0.28-0.35
		c0.11-0.12,0.23-0.22,0.36-0.31c0.13-0.09,0.27-0.16,0.42-0.21c0.15-0.07,0.29-0.11,0.44-0.14c0.15-0.03,0.3-0.04,0.46-0.04
		c0.01,0,0.02,0,0.03,0c0.01,0,0.02,0,0.03,0s0.03,0,0.04,0c0.01,0,0.02,0,0.03,0s0.02,0,0.03,0c0.01,0.01,0.02,0.02,0.03,0.02
		s0.02,0,0.03,0c0.12,0.01,0.24,0.03,0.36,0.06c0.12,0.03,0.24,0.07,0.36,0.14c0.12,0.05,0.23,0.12,0.34,0.19
		c0.11,0.07,0.21,0.16,0.3,0.25c0.11,0.11,0.21,0.22,0.3,0.35c0.09,0.13,0.17,0.26,0.22,0.41c0.07,0.15,0.11,0.3,0.14,0.45
		c0.03,0.15,0.04,0.3,0.04,0.45v5.92c0,0.35,0.04,0.66,0.13,0.94c0.09,0.28,0.22,0.53,0.39,0.76c0.19,0.21,0.4,0.39,0.64,0.53
		c0.24,0.14,0.52,0.24,0.84,0.29c0.03,0.01,0.05,0.02,0.07,0.03c0.02,0.01,0.04,0.01,0.05,0.01c0.03,0,0.05,0,0.07,0s0.04,0,0.07,0
		c0.03,0,0.05,0,0.07,0s0.04,0,0.05,0c0.03,0,0.05,0,0.07,0s0.04,0,0.05,0c0.04,0,0.08,0,0.12,0s0.08,0,0.12,0s0.08,0,0.12-0.01
		c0.04-0.01,0.08-0.02,0.12-0.03c0.31-0.05,0.58-0.15,0.83-0.29c0.25-0.14,0.46-0.32,0.63-0.53c0.19-0.23,0.32-0.48,0.41-0.76
		c0.09-0.28,0.13-0.59,0.13-0.92V2.6c0-0.13,0.02-0.28,0.05-0.43s0.08-0.3,0.13-0.45c0.07-0.15,0.14-0.28,0.23-0.41
		c0.09-0.13,0.18-0.24,0.29-0.35c0.11-0.11,0.22-0.2,0.35-0.29c0.13-0.09,0.26-0.16,0.39-0.21c0.15-0.05,0.29-0.09,0.43-0.12
		c0.14-0.03,0.28-0.04,0.43-0.04c0.15,0,0.3,0.01,0.45,0.04c0.15,0.03,0.3,0.07,0.43,0.14c0.15,0.05,0.28,0.13,0.41,0.22
		c0.13,0.09,0.24,0.19,0.35,0.3c0.11,0.11,0.2,0.22,0.29,0.35c0.09,0.13,0.16,0.26,0.21,0.41c0.07,0.15,0.11,0.3,0.14,0.45
		s0.04,0.3,0.04,0.45V8.4c0,0.91-0.12,1.72-0.37,2.45c-0.25,0.73-0.62,1.37-1.13,1.93c-0.49,0.57-1.1,1.04-1.83,1.39
		c-0.73,0.35-1.57,0.6-2.53,0.73c-0.11,0.03-0.21,0.04-0.32,0.05c-0.11,0.01-0.21,0.02-0.32,0.03c-0.05,0-0.11,0-0.16,0
		c-0.05,0-0.11,0.01-0.16,0.02c-0.05,0-0.11,0-0.16,0s-0.11,0-0.16,0c-0.05,0-0.11,0-0.16,0s-0.1-0.01-0.14-0.02
		c-0.05,0-0.11,0-0.16-0.01c-0.05-0.01-0.11-0.01-0.16-0.01c-0.05,0-0.11,0-0.16-0.01s-0.1-0.01-0.14-0.01
		c-0.05-0.01-0.11-0.02-0.16-0.03c-0.05-0.01-0.11-0.01-0.16-0.01v0.02C77.14,14.79,76.3,14.54,75.57,14.18z"/>
	<path class="st10" d="M88.05,13.93c-0.09-0.14-0.16-0.29-0.23-0.45c-0.05-0.16-0.1-0.32-0.13-0.48c-0.03-0.16-0.05-0.33-0.05-0.5
		V2.64c0-0.24,0.03-0.47,0.09-0.69c0.06-0.22,0.16-0.43,0.29-0.63c0.13-0.19,0.29-0.35,0.47-0.49c0.18-0.14,0.38-0.26,0.59-0.35
		c0.03-0.01,0.06-0.03,0.09-0.04s0.07-0.03,0.11-0.04c0.04-0.01,0.08-0.02,0.12-0.03c0.04-0.01,0.08-0.02,0.12-0.03
		c0.01,0,0.03,0,0.04,0c0.01,0,0.03-0.01,0.06-0.02c0.01,0,0.03,0,0.05,0s0.04,0,0.05,0c0.03,0,0.05,0,0.06,0
		c0.01,0,0.03-0.01,0.06-0.02c0.01,0,0.03,0,0.05,0s0.04,0,0.05,0c0.17,0,0.34,0.02,0.51,0.07c0.17,0.05,0.33,0.12,0.49,0.21
		c0.16,0.09,0.32,0.21,0.48,0.34c0.16,0.13,0.32,0.29,0.48,0.48l5.08,5.94v-4.7c0-0.13,0.02-0.28,0.05-0.43
		c0.03-0.15,0.08-0.3,0.13-0.43c0.07-0.15,0.14-0.28,0.23-0.41c0.09-0.13,0.18-0.24,0.29-0.35c0.11-0.11,0.23-0.2,0.36-0.29
		s0.27-0.16,0.4-0.21c0.15-0.07,0.29-0.11,0.44-0.14c0.15-0.03,0.29-0.04,0.44-0.04c0.07,0,0.14,0,0.21,0.01
		c0.07,0.01,0.15,0.02,0.23,0.03c0.07,0.01,0.14,0.03,0.21,0.06c0.07,0.03,0.14,0.05,0.21,0.08c0.15,0.05,0.28,0.12,0.4,0.21
		s0.23,0.18,0.34,0.29s0.2,0.22,0.29,0.35c0.09,0.13,0.16,0.26,0.21,0.41c0.07,0.13,0.11,0.28,0.14,0.43
		c0.03,0.15,0.04,0.3,0.04,0.45v10.06c0,0.03,0,0.05,0,0.07s0,0.04,0,0.07c0,0.01,0,0.02,0,0.03c0,0.01,0,0.02,0,0.03
		c-0.01,0.01-0.02,0.03-0.02,0.04s0,0.02,0,0.03c0,0.01,0,0.02,0,0.03c-0.01,0.01-0.02,0.02-0.02,0.03c0,0.01,0,0.02,0,0.03
		s0,0.03,0,0.05s0,0.04,0,0.07c-0.05,0.28-0.14,0.53-0.27,0.75c-0.13,0.22-0.3,0.41-0.53,0.57c-0.21,0.17-0.45,0.3-0.7,0.37
		C99.81,14.96,99.54,15,99.28,15c-0.01,0-0.03,0-0.05,0s-0.04,0-0.05,0c-0.03-0.01-0.05-0.02-0.06-0.02c-0.01,0-0.03,0-0.04,0
		c-0.01,0-0.03,0-0.05,0s-0.04,0-0.05,0c-0.03-0.01-0.05-0.02-0.06-0.02s-0.03,0-0.04,0c-0.07-0.01-0.13-0.03-0.2-0.05
		c-0.07-0.02-0.13-0.04-0.2-0.05c-0.07-0.01-0.13-0.03-0.2-0.06c-0.07-0.03-0.13-0.06-0.2-0.1c-0.05-0.03-0.11-0.06-0.16-0.1
		c-0.05-0.04-0.11-0.08-0.16-0.12c-0.05-0.04-0.1-0.08-0.14-0.13s-0.08-0.1-0.12-0.15l-5.24-6.38v4.88c0,0.17-0.01,0.33-0.04,0.48
		c-0.03,0.15-0.07,0.29-0.14,0.44c-0.05,0.13-0.12,0.27-0.21,0.4c-0.09,0.13-0.18,0.25-0.29,0.36c-0.11,0.11-0.22,0.2-0.34,0.28
		c-0.12,0.08-0.25,0.15-0.4,0.2c-0.07,0.01-0.14,0.03-0.21,0.05s-0.14,0.04-0.21,0.05c-0.08,0.01-0.16,0.02-0.23,0.03
		S90.04,15,89.98,15c-0.15,0-0.29-0.01-0.44-0.04c-0.15-0.03-0.29-0.06-0.44-0.1c-0.13-0.07-0.27-0.14-0.4-0.23
		c-0.13-0.09-0.25-0.19-0.36-0.31V14.3C88.23,14.19,88.14,14.07,88.05,13.93z"/>
	<path class="st10" d="M103.16,14.02c-0.08-0.13-0.15-0.27-0.22-0.42c-0.05-0.15-0.1-0.29-0.13-0.44c-0.03-0.15-0.05-0.3-0.05-0.46
		V2.58c0-0.29,0.06-0.58,0.17-0.85s0.28-0.52,0.51-0.75s0.48-0.39,0.75-0.5c0.27-0.11,0.58-0.16,0.91-0.16
		c0.32,0.01,0.62,0.08,0.89,0.19c0.27,0.11,0.52,0.28,0.73,0.51c0.23,0.23,0.39,0.48,0.5,0.75c0.11,0.27,0.16,0.56,0.16,0.87v2.84
		l4.06-4.4c0.05-0.04,0.11-0.08,0.16-0.13c0.05-0.05,0.11-0.09,0.16-0.13c0.05-0.04,0.11-0.08,0.17-0.12s0.12-0.08,0.19-0.12
		c0.03-0.01,0.05-0.02,0.07-0.03c0.02-0.01,0.04-0.02,0.05-0.03c0.03,0,0.05,0,0.07-0.01c0.02-0.01,0.04-0.02,0.05-0.03
		c0.04-0.01,0.08-0.03,0.12-0.04s0.09-0.03,0.14-0.04c0.03,0,0.05,0,0.07,0c0.02,0,0.04-0.01,0.05-0.02c0.03,0,0.05,0,0.07,0
		s0.04,0,0.05,0c0.03,0,0.05,0,0.07,0s0.04-0.01,0.05-0.02c0.03,0,0.05,0,0.07,0s0.04,0,0.05,0c0.23,0,0.44,0.03,0.64,0.09
		c0.2,0.06,0.4,0.15,0.6,0.27c0.2,0.12,0.37,0.26,0.52,0.43c0.15,0.17,0.27,0.36,0.36,0.59c0.03,0.09,0.06,0.18,0.09,0.27
		c0.03,0.09,0.06,0.17,0.07,0.25c0.03,0.08,0.04,0.16,0.04,0.24s0,0.16,0,0.24c0,0.15-0.01,0.29-0.04,0.43
		c-0.03,0.14-0.07,0.27-0.12,0.39c-0.05,0.13-0.11,0.25-0.18,0.36c-0.07,0.11-0.15,0.2-0.24,0.28l-3.16,2.98l3.62,4.02
		c0.11,0.12,0.19,0.24,0.26,0.36c0.07,0.12,0.13,0.25,0.18,0.38c0.04,0.13,0.07,0.27,0.1,0.4c0.03,0.13,0.04,0.27,0.04,0.4
		c0,0.17-0.02,0.34-0.06,0.5c-0.04,0.16-0.09,0.32-0.16,0.48c-0.08,0.16-0.17,0.31-0.28,0.44c-0.11,0.13-0.23,0.25-0.38,0.36
		c-0.07,0.05-0.14,0.1-0.21,0.14s-0.14,0.08-0.21,0.12c-0.04,0.01-0.08,0.03-0.12,0.04c-0.04,0.01-0.07,0.03-0.1,0.04
		c-0.03,0-0.05,0-0.07,0s-0.04,0.01-0.05,0.02c-0.03,0-0.05,0-0.06,0.01c-0.01,0.01-0.03,0.01-0.06,0.01
		c-0.05,0.01-0.1,0.02-0.15,0.03c-0.05,0.01-0.1,0.02-0.15,0.03c-0.03,0-0.05,0-0.08,0c-0.03,0-0.05,0.01-0.06,0.02
		c-0.03,0-0.05,0-0.08,0s-0.05,0-0.08,0c-0.17,0-0.34-0.02-0.5-0.05c-0.16-0.03-0.31-0.08-0.46-0.13c-0.16-0.07-0.3-0.14-0.42-0.23
		c-0.12-0.09-0.23-0.19-0.32-0.31l-4.46-5.42v3.86c0,0.17-0.01,0.33-0.04,0.48c-0.03,0.15-0.07,0.29-0.14,0.44
		c-0.05,0.13-0.12,0.27-0.21,0.4c-0.09,0.13-0.18,0.25-0.29,0.36c-0.09,0.09-0.2,0.18-0.32,0.26c-0.12,0.08-0.24,0.15-0.36,0.2
		c-0.05,0.01-0.11,0.03-0.18,0.05c-0.07,0.02-0.13,0.04-0.18,0.05c-0.07,0.01-0.13,0.03-0.19,0.04c-0.06,0.01-0.12,0.03-0.19,0.04
		c-0.01,0-0.03,0-0.05,0s-0.04,0-0.07,0c-0.01,0-0.03,0-0.04,0s-0.03,0-0.04,0s-0.03,0-0.04,0s-0.02,0-0.03,0c-0.01,0-0.02,0-0.03,0
		s-0.03,0-0.04,0c-0.01,0-0.02,0-0.03,0s-0.02,0-0.03,0c-0.13-0.01-0.26-0.04-0.39-0.07c-0.13-0.03-0.25-0.07-0.37-0.11
		c-0.12-0.05-0.23-0.12-0.34-0.2c-0.11-0.08-0.21-0.17-0.32-0.26v-0.02C103.33,14.27,103.24,14.15,103.16,14.02z"/>
	<path class="st10" d="M116.78,14.02c-0.08-0.13-0.15-0.27-0.22-0.4c-0.05-0.15-0.1-0.29-0.13-0.44c-0.03-0.15-0.05-0.3-0.05-0.46
		V2.62c0-0.31,0.06-0.6,0.17-0.87s0.28-0.52,0.51-0.75s0.48-0.39,0.75-0.5s0.57-0.16,0.89-0.16c0.32,0,0.62,0.06,0.89,0.17
		c0.27,0.11,0.52,0.28,0.73,0.51c0.23,0.23,0.4,0.48,0.51,0.75S121,2.34,121,2.66v10.08c0,0.16-0.01,0.31-0.04,0.46
		c-0.03,0.15-0.07,0.29-0.14,0.44c-0.05,0.13-0.12,0.27-0.21,0.4c-0.09,0.13-0.18,0.25-0.29,0.36c-0.12,0.11-0.24,0.2-0.36,0.28
		c-0.12,0.08-0.25,0.14-0.4,0.18c-0.13,0.05-0.28,0.09-0.43,0.12c-0.15,0.03-0.3,0.04-0.45,0.04c-0.01,0-0.03,0-0.04,0
		s-0.02,0-0.03,0c-0.01,0-0.02,0-0.03,0s-0.03,0-0.04,0c-0.01,0-0.02,0-0.03,0s-0.02,0-0.03,0c-0.13-0.01-0.26-0.04-0.39-0.07
		c-0.13-0.03-0.25-0.07-0.37-0.11c-0.12-0.05-0.23-0.12-0.34-0.2c-0.11-0.08-0.21-0.17-0.32-0.26v-0.02
		C116.95,14.27,116.86,14.15,116.78,14.02z"/>
	<path class="st10" d="M122.57,13.93c-0.09-0.14-0.16-0.29-0.23-0.45c-0.05-0.16-0.1-0.32-0.13-0.48c-0.03-0.16-0.05-0.33-0.05-0.5
		V2.64c0-0.24,0.03-0.47,0.09-0.69c0.06-0.22,0.16-0.43,0.29-0.63c0.13-0.19,0.29-0.35,0.47-0.49c0.18-0.14,0.38-0.26,0.59-0.35
		c0.03-0.01,0.06-0.03,0.09-0.04s0.07-0.03,0.11-0.04c0.04-0.01,0.08-0.02,0.12-0.03c0.04-0.01,0.08-0.02,0.12-0.03
		c0.01,0,0.03,0,0.04,0c0.01,0,0.03-0.01,0.06-0.02c0.01,0,0.03,0,0.05,0s0.04,0,0.05,0c0.03,0,0.05,0,0.06,0
		c0.01,0,0.03-0.01,0.06-0.02c0.01,0,0.03,0,0.05,0s0.04,0,0.05,0c0.17,0,0.34,0.02,0.51,0.07c0.17,0.05,0.33,0.12,0.49,0.21
		c0.16,0.09,0.32,0.21,0.48,0.34c0.16,0.13,0.32,0.29,0.48,0.48l5.08,5.94v-4.7c0-0.13,0.02-0.28,0.05-0.43
		c0.03-0.15,0.08-0.3,0.13-0.43c0.07-0.15,0.14-0.28,0.23-0.41c0.09-0.13,0.18-0.24,0.29-0.35c0.11-0.11,0.23-0.2,0.36-0.29
		s0.27-0.16,0.4-0.21c0.15-0.07,0.29-0.11,0.44-0.14c0.15-0.03,0.29-0.04,0.44-0.04c0.07,0,0.14,0,0.21,0.01
		c0.07,0.01,0.15,0.02,0.23,0.03c0.07,0.01,0.14,0.03,0.21,0.06c0.07,0.03,0.14,0.05,0.21,0.08c0.15,0.05,0.28,0.12,0.4,0.21
		s0.23,0.18,0.34,0.29s0.2,0.22,0.29,0.35c0.09,0.13,0.16,0.26,0.21,0.41c0.07,0.13,0.11,0.28,0.14,0.43
		c0.03,0.15,0.04,0.3,0.04,0.45v10.06c0,0.03,0,0.05,0,0.07s0,0.04,0,0.07c0,0.01,0,0.02,0,0.03c0,0.01,0,0.02,0,0.03
		c-0.01,0.01-0.02,0.03-0.02,0.04s0,0.02,0,0.03c0,0.01,0,0.02,0,0.03c-0.01,0.01-0.02,0.02-0.02,0.03c0,0.01,0,0.02,0,0.03
		s0,0.03,0,0.05s0,0.04,0,0.07c-0.05,0.28-0.14,0.53-0.27,0.75c-0.13,0.22-0.3,0.41-0.53,0.57c-0.21,0.17-0.45,0.3-0.7,0.37
		c-0.25,0.07-0.51,0.11-0.78,0.11c-0.01,0-0.03,0-0.05,0s-0.04,0-0.05,0c-0.03-0.01-0.05-0.02-0.06-0.02c-0.01,0-0.03,0-0.04,0
		c-0.01,0-0.03,0-0.05,0s-0.04,0-0.05,0c-0.03-0.01-0.05-0.02-0.06-0.02s-0.03,0-0.04,0c-0.07-0.01-0.13-0.03-0.2-0.05
		c-0.07-0.02-0.13-0.04-0.2-0.05c-0.07-0.01-0.13-0.03-0.2-0.06c-0.07-0.03-0.13-0.06-0.2-0.1c-0.05-0.03-0.11-0.06-0.16-0.1
		c-0.05-0.04-0.11-0.08-0.16-0.12c-0.05-0.04-0.1-0.08-0.14-0.13s-0.08-0.1-0.12-0.15l-5.24-6.38v4.88c0,0.17-0.01,0.33-0.04,0.48
		c-0.03,0.15-0.07,0.29-0.14,0.44c-0.05,0.13-0.12,0.27-0.21,0.4c-0.09,0.13-0.18,0.25-0.29,0.36c-0.11,0.11-0.22,0.2-0.34,0.28
		c-0.12,0.08-0.25,0.15-0.4,0.2c-0.07,0.01-0.14,0.03-0.21,0.05s-0.14,0.04-0.21,0.05c-0.08,0.01-0.16,0.02-0.23,0.03
		S124.56,15,124.5,15c-0.15,0-0.29-0.01-0.44-0.04c-0.15-0.03-0.29-0.06-0.44-0.1c-0.13-0.07-0.27-0.14-0.4-0.23
		c-0.13-0.09-0.25-0.19-0.36-0.31V14.3C122.75,14.19,122.66,14.07,122.57,13.93z"/>
	<path class="st10" d="M136.7,6.76c0-0.01,0-0.03,0-0.04c0-0.01,0-0.03,0-0.04c0-0.03,0-0.06-0.01-0.09
		c-0.01-0.03-0.02-0.07-0.03-0.11c0-0.03,0-0.05,0-0.08c0-0.03,0-0.06,0-0.1c0-0.01,0-0.03,0-0.04c0-0.01-0.01-0.03-0.02-0.06
		c0-0.01,0-0.03,0-0.04c0-0.01,0-0.03,0-0.04c0-0.04,0-0.08,0-0.12s0.01-0.08,0.02-0.12c0-0.03,0-0.06,0.01-0.1s0.01-0.08,0.01-0.12
		c0-0.03,0-0.05,0.01-0.08s0.01-0.05,0.01-0.08c0.01-0.04,0.03-0.09,0.04-0.14c0.01-0.05,0.03-0.1,0.04-0.14l1.74-3.98
		c0.09-0.17,0.21-0.34,0.34-0.49c0.13-0.15,0.29-0.29,0.46-0.41c0.19-0.11,0.37-0.19,0.56-0.25c0.19-0.06,0.39-0.09,0.6-0.09
		c0.07,0,0.14,0,0.21,0.01c0.07,0.01,0.15,0.02,0.23,0.05c0.04,0.01,0.08,0.02,0.12,0.03c0.04,0.01,0.08,0.02,0.12,0.03
		c0.03,0.01,0.06,0.03,0.1,0.04c0.04,0.01,0.08,0.03,0.12,0.04c0.2,0.09,0.38,0.21,0.53,0.34s0.28,0.29,0.39,0.48
		c0.11,0.17,0.19,0.36,0.25,0.56c0.06,0.2,0.09,0.4,0.09,0.6c0,0.08,0,0.16-0.01,0.23c-0.01,0.07-0.02,0.14-0.05,0.21
		c-0.01,0.08-0.03,0.16-0.06,0.23s-0.05,0.14-0.08,0.21l-1.88,3.88c-0.05,0.15-0.12,0.27-0.21,0.38c-0.09,0.11-0.18,0.21-0.29,0.32
		c-0.11,0.09-0.22,0.18-0.34,0.25c-0.12,0.07-0.25,0.14-0.38,0.19c-0.05,0.03-0.11,0.05-0.17,0.07c-0.06,0.02-0.12,0.04-0.19,0.05
		c-0.05,0.01-0.11,0.02-0.17,0.02s-0.12,0-0.19,0c-0.21,0-0.41-0.03-0.6-0.1c-0.19-0.07-0.37-0.16-0.56-0.28
		c-0.17-0.12-0.32-0.26-0.45-0.42c-0.13-0.16-0.22-0.35-0.29-0.56V6.84C136.71,6.81,136.7,6.79,136.7,6.76z"/>
</g>
</svg>
