<?xml version="1.0" encoding="utf-8"?>
<!-- Generator: Adobe Illustrator 25.4.1, SVG Export Plug-In . SVG Version: 6.00 Build 0)  -->
<svg version="1.1" id="레이어_1" xmlns="http://www.w3.org/2000/svg" xmlns:xlink="http://www.w3.org/1999/xlink" x="0px"
	 y="0px" viewBox="0 0 104.18 15.06" style="enable-background:new 0 0 104.18 15.06;" xml:space="preserve">
<style type="text/css">
	.st0{fill:#FF6D0D;}
	.st1{fill:#F20C90;}
	.st2{fill:#FFFFFF;}
	.st3{clip-path:url(#SVGID_00000026128684689527778030000005994253981867277706_);}
	.st4{fill:#723131;}
	.st5{fill:#A3FBB5;}
	.st6{opacity:0.2;}
	.st7{fill:none;stroke:#A3FBB5;stroke-miterlimit:10;}
	.st8{fill:#F8FAF0;}
	.st9{fill:#FE6D01;}
	.st10{fill:#F40290;}
</style>
<g>
	<path class="st10" d="M0.4,13.86c-0.08-0.13-0.15-0.27-0.22-0.4c-0.05-0.15-0.1-0.29-0.13-0.44C0.02,12.87,0,12.73,0,12.58V2.44
		c0-0.13,0.02-0.28,0.05-0.43s0.08-0.3,0.13-0.43C0.25,1.43,0.32,1.3,0.4,1.17c0.08-0.13,0.17-0.24,0.28-0.35
		c0.11-0.11,0.23-0.2,0.36-0.29c0.13-0.09,0.27-0.16,0.4-0.21c0.15-0.07,0.29-0.11,0.44-0.14c0.15-0.03,0.29-0.04,0.44-0.04
		c0.15,0.01,0.3,0.03,0.45,0.06c0.15,0.03,0.3,0.07,0.43,0.14c0.15,0.05,0.28,0.12,0.41,0.21c0.13,0.09,0.24,0.18,0.35,0.29
		c0.11,0.11,0.2,0.22,0.29,0.35C4.34,1.32,4.41,1.45,4.46,1.6C4.53,1.73,4.57,1.88,4.6,2.03c0.03,0.15,0.04,0.3,0.04,0.45v2.88h4.54
		v-2.9c0-0.13,0.02-0.28,0.05-0.43c0.03-0.15,0.08-0.3,0.13-0.43C9.43,1.45,9.5,1.32,9.58,1.19c0.08-0.13,0.17-0.24,0.28-0.35
		c0.11-0.11,0.23-0.21,0.36-0.3c0.13-0.09,0.27-0.17,0.42-0.22c0.15-0.07,0.29-0.11,0.44-0.14c0.15-0.03,0.29-0.04,0.44-0.04
		c0.01,0,0.03,0,0.04,0c0.01,0,0.03,0,0.04,0c0.03,0,0.05,0,0.07,0s0.04,0,0.05,0c0.07,0.01,0.13,0.03,0.19,0.04
		c0.06,0.01,0.12,0.03,0.19,0.04c0.05,0.01,0.11,0.03,0.18,0.06s0.13,0.05,0.18,0.08c0.12,0.05,0.24,0.12,0.36,0.19
		s0.23,0.16,0.32,0.27c0.11,0.11,0.2,0.22,0.29,0.35c0.09,0.13,0.16,0.26,0.21,0.41c0.07,0.13,0.11,0.28,0.14,0.43
		s0.04,0.3,0.04,0.45v10.1c0,0.16-0.01,0.31-0.04,0.46c-0.03,0.15-0.07,0.29-0.14,0.44c-0.05,0.13-0.12,0.27-0.21,0.4
		c-0.09,0.13-0.18,0.25-0.29,0.36c-0.11,0.12-0.22,0.22-0.35,0.3c-0.13,0.08-0.26,0.14-0.41,0.18c-0.13,0.05-0.28,0.09-0.43,0.12
		c-0.15,0.03-0.3,0.04-0.45,0.04c-0.01,0-0.03,0-0.04,0c-0.01,0-0.02,0-0.03,0s-0.02,0-0.03,0s-0.03,0-0.04,0s-0.02,0-0.03,0
		c-0.01,0-0.02,0-0.03,0c-0.13-0.01-0.26-0.04-0.39-0.07c-0.13-0.03-0.25-0.07-0.37-0.11c-0.12-0.05-0.23-0.12-0.34-0.2
		c-0.11-0.08-0.21-0.17-0.32-0.26C9.77,14.11,9.68,14,9.6,13.87c-0.08-0.13-0.15-0.26-0.22-0.39c-0.05-0.15-0.1-0.29-0.13-0.44
		c-0.03-0.15-0.05-0.3-0.05-0.46V9.36H4.62v3.2c0,0.17-0.01,0.33-0.04,0.48c-0.03,0.15-0.07,0.29-0.14,0.44
		c-0.05,0.13-0.12,0.26-0.21,0.39C4.14,14,4.05,14.11,3.94,14.22c-0.09,0.09-0.2,0.18-0.32,0.26c-0.12,0.08-0.24,0.15-0.36,0.2
		c-0.05,0.01-0.11,0.03-0.18,0.05c-0.07,0.02-0.13,0.04-0.18,0.05c-0.07,0.01-0.13,0.03-0.19,0.04c-0.06,0.01-0.12,0.03-0.19,0.04
		c-0.01,0-0.03,0-0.05,0s-0.04,0-0.07,0c-0.01,0-0.03,0-0.04,0s-0.03,0-0.04,0c-0.15,0-0.29-0.01-0.44-0.04
		c-0.15-0.03-0.29-0.07-0.44-0.12c-0.13-0.04-0.27-0.1-0.4-0.18c-0.13-0.08-0.25-0.18-0.36-0.3V14.2
		C0.57,14.11,0.48,13.99,0.4,13.86z"/>
	<path class="st10" d="M14.88,14.38c-0.17-0.13-0.32-0.29-0.44-0.46c-0.09-0.17-0.17-0.36-0.23-0.56c-0.06-0.2-0.09-0.41-0.09-0.64
		c0-0.09,0.01-0.19,0.02-0.29s0.03-0.2,0.06-0.29c0.01-0.11,0.04-0.21,0.07-0.32s0.07-0.21,0.11-0.32l3.4-8.82
		c0.16-0.39,0.36-0.74,0.59-1.05c0.23-0.31,0.5-0.58,0.81-0.79c0.31-0.23,0.63-0.39,0.98-0.5s0.71-0.16,1.1-0.16
		s0.76,0.05,1.11,0.16c0.35,0.11,0.68,0.27,0.97,0.5c0.31,0.21,0.58,0.48,0.81,0.79c0.23,0.31,0.43,0.67,0.59,1.07l3.44,8.78
		c0.04,0.12,0.08,0.23,0.11,0.34c0.03,0.11,0.06,0.21,0.07,0.32c0.03,0.09,0.05,0.19,0.06,0.29c0.01,0.1,0.02,0.2,0.02,0.29
		c0,0.23-0.03,0.44-0.09,0.64c-0.06,0.2-0.15,0.39-0.27,0.56c-0.12,0.17-0.27,0.33-0.44,0.46c-0.17,0.13-0.37,0.23-0.6,0.3
		c-0.03,0.01-0.05,0.02-0.08,0.03c-0.03,0.01-0.05,0.02-0.08,0.03c-0.03,0.01-0.05,0.02-0.08,0.03s-0.05,0.02-0.08,0.03
		c-0.05,0.01-0.11,0.02-0.16,0.03c-0.05,0.01-0.11,0.02-0.16,0.03c-0.03,0-0.05,0-0.08,0s-0.05,0.01-0.08,0.02
		c-0.03,0-0.05,0-0.08,0s-0.05,0-0.08,0c-0.24,0-0.47-0.03-0.68-0.1c-0.21-0.07-0.42-0.17-0.62-0.3c-0.2-0.15-0.37-0.32-0.51-0.52
		c-0.14-0.2-0.26-0.43-0.35-0.68L23.7,12.6h-4.86l-0.24,0.66c-0.09,0.27-0.21,0.5-0.36,0.7c-0.15,0.2-0.32,0.37-0.52,0.52
		c-0.2,0.13-0.41,0.23-0.62,0.3c-0.21,0.07-0.43,0.1-0.66,0.1c-0.08,0-0.16,0-0.24-0.01c-0.08-0.01-0.16-0.02-0.24-0.05
		c-0.08-0.01-0.16-0.03-0.24-0.06c-0.08-0.03-0.16-0.05-0.24-0.08v0.02C15.25,14.62,15.05,14.51,14.88,14.38z M22.34,8.62
		l-1.08-3.84l-1.08,3.84H22.34z"/>
	<path class="st10" d="M29.35,0.35c0.02-0.01,0.04-0.02,0.05-0.03c0.03,0,0.05,0,0.07-0.01c0.02-0.01,0.04-0.02,0.05-0.03
		c0.04-0.03,0.08-0.04,0.13-0.05c0.05-0.01,0.1-0.02,0.15-0.03c0.03,0,0.05,0,0.07-0.01c0.02-0.01,0.04-0.01,0.07-0.01
		c0.01-0.01,0.03-0.02,0.06-0.02s0.05,0,0.06,0c0.03,0,0.05,0,0.07,0s0.04-0.01,0.07-0.02c0.01,0,0.03,0,0.06,0
		c0.03,0,0.05,0,0.06,0c0.23,0,0.45,0.03,0.66,0.1c0.21,0.07,0.42,0.17,0.62,0.3c0.2,0.13,0.37,0.29,0.51,0.48
		c0.14,0.19,0.26,0.39,0.35,0.62L34.8,8.1l2.36-6.48c0.08-0.21,0.19-0.41,0.33-0.6C37.63,0.83,37.8,0.67,38,0.54
		c0.2-0.13,0.41-0.23,0.62-0.3c0.21-0.07,0.44-0.1,0.68-0.1c0.04,0,0.08,0,0.12,0s0.09,0.01,0.14,0.02c0.04,0,0.08,0,0.12,0.01
		s0.08,0.02,0.12,0.03c0.08,0.01,0.16,0.04,0.25,0.07c0.09,0.03,0.18,0.07,0.27,0.11c0.21,0.11,0.4,0.23,0.56,0.38
		c0.16,0.15,0.3,0.31,0.42,0.5c0.11,0.17,0.19,0.36,0.25,0.56c0.06,0.2,0.09,0.4,0.09,0.6c0,0.08,0,0.16-0.01,0.23
		c-0.01,0.07-0.02,0.14-0.03,0.21S41.57,3,41.54,3.07s-0.05,0.14-0.08,0.21l-4.48,10.04c-0.09,0.23-0.19,0.42-0.3,0.59
		c-0.11,0.17-0.21,0.3-0.32,0.41c-0.12,0.12-0.25,0.21-0.38,0.28c-0.13,0.07-0.27,0.12-0.42,0.16c-0.07,0.03-0.14,0.04-0.21,0.05
		s-0.14,0.02-0.21,0.03c-0.07,0.01-0.13,0.02-0.2,0.03c-0.07,0.01-0.13,0.01-0.2,0.01c-0.24,0-0.46-0.03-0.66-0.1
		c-0.2-0.07-0.39-0.15-0.58-0.26c-0.17-0.13-0.34-0.3-0.49-0.5c-0.15-0.2-0.28-0.43-0.39-0.68L28.14,3.26
		c0.01-0.01,0.01-0.04,0-0.07c-0.01-0.03-0.03-0.07-0.04-0.11C28.09,3.04,28.08,3,28.07,2.96c-0.01-0.04-0.02-0.08-0.03-0.12
		c0-0.01,0-0.03,0-0.04s-0.01-0.03-0.02-0.06c0-0.01,0-0.03,0-0.05c0-0.02,0-0.04,0-0.05c0-0.03,0-0.05,0-0.06
		c0-0.01-0.01-0.03-0.02-0.06c0-0.01,0-0.03,0-0.05s0-0.04,0-0.05C28,2.21,28.03,2,28.09,1.8c0.06-0.2,0.14-0.39,0.23-0.56
		c0.11-0.19,0.24-0.35,0.4-0.49c0.16-0.14,0.35-0.26,0.56-0.37V0.36C29.31,0.36,29.33,0.36,29.35,0.35z"/>
	<path class="st10" d="M42.23,13.01c-0.02-0.07-0.04-0.15-0.07-0.23c-0.01-0.07-0.02-0.14-0.03-0.21s-0.01-0.15-0.01-0.23V2.6
		c0-0.32,0.06-0.62,0.17-0.9s0.28-0.53,0.49-0.74c0.23-0.23,0.48-0.39,0.75-0.5c0.27-0.11,0.58-0.16,0.91-0.16l5.5-0.02
		c0.27,0.01,0.51,0.07,0.73,0.17c0.22,0.1,0.43,0.24,0.63,0.43c0.19,0.2,0.33,0.42,0.43,0.65s0.15,0.49,0.15,0.77
		c0,0.28-0.05,0.54-0.15,0.78c-0.1,0.24-0.24,0.46-0.43,0.66c-0.2,0.2-0.42,0.35-0.65,0.44s-0.48,0.14-0.75,0.14L46.74,4.3v1.22h2.6
		c0.15,0.01,0.29,0.03,0.42,0.06c0.13,0.03,0.27,0.07,0.4,0.12c0.13,0.05,0.26,0.12,0.38,0.19s0.23,0.16,0.34,0.27
		c0.08,0.08,0.15,0.16,0.22,0.25c0.07,0.09,0.13,0.18,0.18,0.29c0.03,0.05,0.05,0.11,0.07,0.16S51.39,6.96,51.4,7
		c0.01,0.05,0.03,0.11,0.04,0.16s0.03,0.11,0.04,0.16c0,0.01,0,0.03,0,0.04s0,0.02,0,0.03c0,0.01,0,0.02,0,0.03s0,0.03,0,0.04
		c0,0.01,0,0.03,0,0.04c-0.01,0.13-0.03,0.26-0.06,0.38C51.39,8,51.35,8.12,51.3,8.24s-0.11,0.23-0.18,0.34
		c-0.07,0.11-0.15,0.21-0.26,0.3s-0.22,0.17-0.34,0.24c-0.12,0.07-0.25,0.13-0.38,0.18c-0.13,0.05-0.26,0.09-0.39,0.12
		c-0.13,0.03-0.26,0.04-0.39,0.04l-2.62-0.02v1.24h3c0.15,0.01,0.29,0.03,0.43,0.06c0.14,0.03,0.28,0.07,0.41,0.12
		s0.26,0.12,0.38,0.19s0.23,0.16,0.34,0.27c0.09,0.08,0.17,0.17,0.24,0.26c0.07,0.09,0.13,0.19,0.18,0.3
		c0.05,0.11,0.1,0.22,0.13,0.33c0.03,0.11,0.06,0.22,0.07,0.33c0,0.01,0,0.03,0,0.04c0,0.01,0,0.02,0,0.03s0,0.02,0,0.03
		c0,0.01,0,0.03,0,0.04c0,0.01,0,0.03,0,0.04c0,0.13-0.01,0.26-0.04,0.38s-0.07,0.24-0.12,0.36c-0.05,0.12-0.11,0.23-0.18,0.34
		c-0.07,0.11-0.15,0.21-0.26,0.3c-0.11,0.09-0.22,0.18-0.34,0.25c-0.12,0.07-0.25,0.14-0.38,0.19c-0.13,0.05-0.26,0.09-0.39,0.11
		c-0.13,0.02-0.26,0.03-0.41,0.03h-5.38c-0.21,0-0.42-0.03-0.63-0.09c-0.21-0.06-0.41-0.16-0.61-0.29c-0.2-0.13-0.37-0.29-0.51-0.47
		c-0.14-0.18-0.26-0.38-0.37-0.61V13.2C42.27,13.15,42.25,13.08,42.23,13.01z"/>
	<path class="st9" d="M59.97,14.76c-0.27-0.11-0.52-0.27-0.75-0.48c-0.23-0.23-0.4-0.48-0.51-0.75s-0.17-0.57-0.17-0.89V2.62
		c0-0.32,0.06-0.62,0.17-0.9c0.11-0.28,0.28-0.53,0.51-0.74c0.23-0.23,0.48-0.4,0.75-0.51s0.58-0.17,0.91-0.17l5.46-0.02
		c0.13,0.01,0.26,0.03,0.39,0.06c0.13,0.03,0.26,0.07,0.39,0.12c0.12,0.05,0.24,0.12,0.36,0.19s0.23,0.16,0.32,0.27
		c0.09,0.09,0.17,0.19,0.24,0.3c0.07,0.11,0.13,0.22,0.18,0.34s0.09,0.24,0.12,0.37c0.03,0.13,0.04,0.26,0.04,0.39
		s-0.01,0.26-0.04,0.39c-0.03,0.13-0.07,0.25-0.12,0.37c-0.05,0.13-0.12,0.25-0.19,0.36c-0.07,0.11-0.16,0.21-0.27,0.32
		c-0.09,0.09-0.2,0.17-0.32,0.24c-0.12,0.07-0.24,0.13-0.36,0.18s-0.24,0.09-0.37,0.12c-0.13,0.03-0.26,0.04-0.39,0.04l-3.14-0.02
		v1.42h2.66c0.27,0.01,0.52,0.07,0.75,0.17s0.45,0.25,0.65,0.45c0.19,0.2,0.33,0.42,0.43,0.65s0.15,0.48,0.15,0.75v0.02
		c-0.01,0.28-0.07,0.54-0.17,0.77s-0.24,0.44-0.43,0.63c-0.2,0.19-0.42,0.33-0.65,0.42c-0.23,0.09-0.48,0.14-0.75,0.14l-2.64-0.02
		v2.9c0,0.33-0.06,0.64-0.17,0.91s-0.28,0.52-0.51,0.75c-0.23,0.21-0.48,0.37-0.75,0.48c-0.27,0.11-0.57,0.16-0.89,0.16v0.02
		C60.54,14.93,60.24,14.87,59.97,14.76z"/>
	<path class="st9" d="M71.93,14c-0.73-0.36-1.34-0.83-1.83-1.4c-0.49-0.56-0.86-1.2-1.11-1.93c-0.25-0.73-0.37-1.54-0.37-2.43V2.46
		c0-0.13,0.01-0.28,0.04-0.43c0.03-0.15,0.07-0.3,0.12-0.45C68.85,1.43,68.92,1.3,69,1.17c0.08-0.13,0.17-0.24,0.28-0.35
		c0.11-0.12,0.23-0.22,0.36-0.31c0.13-0.09,0.27-0.16,0.42-0.21c0.15-0.07,0.29-0.11,0.44-0.14c0.15-0.03,0.3-0.04,0.46-0.04
		c0.01,0,0.02,0,0.03,0c0.01,0,0.02,0,0.03,0s0.03,0,0.04,0c0.01,0,0.02,0,0.03,0s0.02,0,0.03,0c0.01,0.01,0.02,0.02,0.03,0.02
		s0.02,0,0.03,0c0.12,0.01,0.24,0.03,0.36,0.06c0.12,0.03,0.24,0.07,0.36,0.14c0.12,0.05,0.23,0.12,0.34,0.19
		c0.11,0.07,0.21,0.16,0.3,0.25c0.11,0.11,0.21,0.22,0.3,0.35c0.09,0.13,0.17,0.26,0.22,0.41c0.07,0.15,0.11,0.3,0.14,0.45
		c0.03,0.15,0.04,0.3,0.04,0.45v5.92c0,0.35,0.04,0.66,0.13,0.94c0.09,0.28,0.22,0.53,0.39,0.76c0.19,0.21,0.4,0.39,0.64,0.53
		c0.24,0.14,0.52,0.24,0.84,0.29c0.03,0.01,0.05,0.02,0.07,0.03c0.02,0.01,0.04,0.01,0.05,0.01c0.03,0,0.05,0,0.07,0s0.04,0,0.07,0
		c0.03,0,0.05,0,0.07,0s0.04,0,0.05,0c0.03,0,0.05,0,0.07,0s0.04,0,0.05,0c0.04,0,0.08,0,0.12,0s0.08,0,0.12,0s0.08,0,0.12-0.01
		c0.04-0.01,0.08-0.02,0.12-0.03c0.31-0.05,0.58-0.15,0.83-0.29c0.25-0.14,0.46-0.32,0.63-0.53C77.87,9.83,78,9.58,78.09,9.3
		c0.09-0.28,0.13-0.59,0.13-0.92V2.42c0-0.13,0.02-0.28,0.05-0.43s0.08-0.3,0.13-0.45c0.07-0.15,0.14-0.28,0.23-0.41
		c0.09-0.13,0.18-0.24,0.29-0.35c0.11-0.11,0.22-0.2,0.35-0.29c0.13-0.09,0.26-0.16,0.39-0.21c0.15-0.05,0.29-0.09,0.43-0.12
		c0.14-0.03,0.28-0.04,0.43-0.04c0.15,0,0.3,0.01,0.45,0.04c0.15,0.03,0.3,0.07,0.43,0.14c0.15,0.05,0.28,0.13,0.41,0.22
		c0.13,0.09,0.24,0.19,0.35,0.3c0.11,0.11,0.2,0.22,0.29,0.35c0.09,0.13,0.16,0.26,0.21,0.41c0.07,0.15,0.11,0.3,0.14,0.45
		s0.04,0.3,0.04,0.45v5.74c0,0.91-0.12,1.72-0.37,2.45c-0.25,0.73-0.62,1.37-1.13,1.93c-0.49,0.57-1.1,1.04-1.83,1.39
		c-0.73,0.35-1.57,0.6-2.53,0.73c-0.11,0.03-0.21,0.04-0.32,0.05c-0.11,0.01-0.21,0.02-0.32,0.03c-0.05,0-0.11,0-0.16,0
		c-0.05,0-0.11,0.01-0.16,0.02c-0.05,0-0.11,0-0.16,0s-0.11,0-0.16,0c-0.05,0-0.11,0-0.16,0s-0.1-0.01-0.14-0.02
		c-0.05,0-0.11,0-0.16-0.01c-0.05-0.01-0.11-0.01-0.16-0.01c-0.05,0-0.11,0-0.16-0.01s-0.1-0.01-0.14-0.01
		c-0.05-0.01-0.11-0.02-0.16-0.03c-0.05-0.01-0.11-0.01-0.16-0.01v0.02C73.5,14.61,72.66,14.36,71.93,14z"/>
	<path class="st9" d="M84.41,13.75c-0.09-0.14-0.16-0.29-0.23-0.45c-0.05-0.16-0.1-0.32-0.13-0.48c-0.03-0.16-0.05-0.33-0.05-0.5
		V2.46c0-0.24,0.03-0.47,0.09-0.69c0.06-0.22,0.16-0.43,0.29-0.63c0.13-0.19,0.29-0.35,0.47-0.49c0.18-0.14,0.38-0.26,0.59-0.35
		c0.03-0.01,0.06-0.03,0.09-0.04s0.07-0.03,0.11-0.04c0.04-0.01,0.08-0.02,0.12-0.03c0.04-0.01,0.08-0.02,0.12-0.03
		c0.01,0,0.03,0,0.04,0c0.01,0,0.03-0.01,0.06-0.02c0.01,0,0.03,0,0.05,0s0.04,0,0.05,0c0.03,0,0.05,0,0.06,0
		c0.01,0,0.03-0.01,0.06-0.02c0.01,0,0.03,0,0.05,0s0.04,0,0.05,0c0.17,0,0.34,0.02,0.51,0.07c0.17,0.05,0.33,0.12,0.49,0.21
		c0.16,0.09,0.32,0.21,0.48,0.34c0.16,0.13,0.32,0.29,0.48,0.48l5.08,5.94v-4.7c0-0.13,0.02-0.28,0.05-0.43
		c0.03-0.15,0.08-0.3,0.13-0.43c0.07-0.15,0.14-0.28,0.23-0.41c0.09-0.13,0.18-0.24,0.29-0.35c0.11-0.11,0.23-0.2,0.36-0.29
		s0.27-0.16,0.4-0.21c0.15-0.07,0.29-0.11,0.44-0.14c0.15-0.03,0.29-0.04,0.44-0.04c0.07,0,0.14,0,0.21,0.01
		c0.07,0.01,0.15,0.02,0.23,0.03c0.07,0.01,0.14,0.03,0.21,0.06c0.07,0.03,0.14,0.05,0.21,0.08c0.15,0.05,0.28,0.12,0.4,0.21
		s0.23,0.18,0.34,0.29s0.2,0.22,0.29,0.35c0.09,0.13,0.16,0.26,0.21,0.41c0.07,0.13,0.11,0.28,0.14,0.43
		c0.03,0.15,0.04,0.3,0.04,0.45v10.06c0,0.03,0,0.05,0,0.07s0,0.04,0,0.07c0,0.01,0,0.02,0,0.03c0,0.01,0,0.02,0,0.03
		c-0.01,0.01-0.02,0.03-0.02,0.04s0,0.02,0,0.03c0,0.01,0,0.02,0,0.03c-0.01,0.01-0.02,0.02-0.02,0.03c0,0.01,0,0.02,0,0.03
		s0,0.03,0,0.05s0,0.04,0,0.07c-0.05,0.28-0.14,0.53-0.27,0.75c-0.13,0.22-0.3,0.41-0.53,0.57c-0.21,0.17-0.45,0.3-0.7,0.37
		c-0.25,0.07-0.51,0.11-0.78,0.11c-0.01,0-0.03,0-0.05,0s-0.04,0-0.05,0c-0.03-0.01-0.05-0.02-0.06-0.02c-0.01,0-0.03,0-0.04,0
		c-0.01,0-0.03,0-0.05,0s-0.04,0-0.05,0c-0.03-0.01-0.05-0.02-0.06-0.02s-0.03,0-0.04,0c-0.07-0.01-0.13-0.03-0.2-0.05
		c-0.07-0.02-0.13-0.04-0.2-0.05c-0.07-0.01-0.13-0.03-0.2-0.06c-0.07-0.03-0.13-0.06-0.2-0.1c-0.05-0.03-0.11-0.06-0.16-0.1
		c-0.05-0.04-0.11-0.08-0.16-0.12c-0.05-0.04-0.1-0.08-0.14-0.13s-0.08-0.1-0.12-0.15l-5.24-6.38v4.88c0,0.17-0.01,0.33-0.04,0.48
		c-0.03,0.15-0.07,0.29-0.14,0.44c-0.05,0.13-0.12,0.27-0.21,0.4c-0.09,0.13-0.18,0.25-0.29,0.36c-0.11,0.11-0.22,0.2-0.34,0.28
		c-0.12,0.08-0.25,0.15-0.4,0.2c-0.07,0.01-0.14,0.03-0.21,0.05s-0.14,0.04-0.21,0.05c-0.08,0.01-0.16,0.02-0.23,0.03
		s-0.14,0.01-0.21,0.01c-0.15,0-0.29-0.01-0.44-0.04c-0.15-0.03-0.29-0.06-0.44-0.1c-0.13-0.07-0.27-0.14-0.4-0.23
		c-0.13-0.09-0.25-0.19-0.36-0.31v-0.02C84.59,14.01,84.5,13.89,84.41,13.75z"/>
	<path class="st9" d="M100.81,14.88c-0.29-0.12-0.55-0.29-0.79-0.5c-0.24-0.24-0.42-0.5-0.54-0.79s-0.18-0.6-0.18-0.93
		c-0.01-0.33,0.04-0.64,0.16-0.93c0.12-0.29,0.3-0.55,0.54-0.79c0.24-0.24,0.5-0.42,0.79-0.54c0.29-0.12,0.6-0.18,0.93-0.18
		c0.01,0,0.03,0,0.04,0h0.02h0.02c0.15,0,0.3,0.01,0.45,0.04s0.3,0.07,0.45,0.14c0.15,0.05,0.28,0.13,0.41,0.22
		c0.13,0.09,0.24,0.19,0.35,0.3c0.11,0.11,0.2,0.22,0.29,0.34c0.09,0.12,0.16,0.25,0.21,0.38c0.03,0.07,0.05,0.13,0.08,0.2
		c0.03,0.07,0.05,0.13,0.06,0.2c0.01,0.08,0.03,0.15,0.04,0.22c0.01,0.07,0.03,0.13,0.04,0.2c0,0.01,0,0.03,0,0.04
		c0,0.01,0,0.02,0,0.03s0,0.02,0,0.03c0,0.01,0,0.03,0,0.04c0,0.01,0,0.02,0,0.03s0,0.02,0,0.03c0,0.16-0.01,0.32-0.04,0.47
		c-0.03,0.15-0.07,0.3-0.14,0.45c-0.05,0.15-0.13,0.29-0.22,0.42c-0.09,0.13-0.2,0.26-0.32,0.38c-0.11,0.11-0.23,0.2-0.36,0.28
		s-0.27,0.15-0.42,0.2c-0.15,0.07-0.3,0.11-0.46,0.14c-0.16,0.03-0.32,0.04-0.48,0.04v0.02C101.41,15.06,101.1,15,100.81,14.88z
		 M100.89,9.63c-0.26-0.11-0.5-0.28-0.73-0.49c-0.21-0.23-0.38-0.47-0.49-0.73c-0.11-0.26-0.17-0.54-0.17-0.85V2.2
		c0-0.13,0.01-0.27,0.04-0.41c0.03-0.14,0.07-0.28,0.12-0.41c0.07-0.15,0.14-0.28,0.22-0.4c0.08-0.12,0.17-0.23,0.28-0.34
		c0.11-0.11,0.22-0.2,0.35-0.28c0.13-0.08,0.26-0.15,0.39-0.2s0.27-0.09,0.41-0.12c0.14-0.03,0.28-0.04,0.43-0.04
		c0.01,0,0.03,0,0.04,0c0.01,0,0.03,0,0.04,0s0.02,0,0.03,0c0.01,0,0.02,0,0.03,0s0.03,0,0.04,0c0.07,0.01,0.13,0.03,0.19,0.04
		c0.06,0.01,0.12,0.03,0.19,0.04c0.05,0.01,0.11,0.03,0.18,0.05c0.07,0.02,0.13,0.04,0.18,0.07c0.12,0.05,0.23,0.12,0.34,0.19
		c0.11,0.07,0.21,0.16,0.3,0.27c0.11,0.11,0.2,0.22,0.27,0.34c0.07,0.12,0.14,0.25,0.19,0.4c0.07,0.13,0.11,0.27,0.14,0.41
		c0.03,0.14,0.04,0.28,0.04,0.43v5.32c0,0.32-0.05,0.61-0.16,0.87c-0.11,0.26-0.27,0.5-0.48,0.71c-0.21,0.21-0.45,0.38-0.71,0.49
		c-0.26,0.11-0.54,0.17-0.85,0.17V9.78C101.43,9.79,101.15,9.74,100.89,9.63z"/>
</g>
</svg>
