<?xml version="1.0" encoding="utf-8"?>
<!-- Generator: Adobe Illustrator 25.4.1, SVG Export Plug-In . SVG Version: 6.00 Build 0)  -->
<svg version="1.1" id="레이어_1" xmlns="http://www.w3.org/2000/svg" xmlns:xlink="http://www.w3.org/1999/xlink" x="0px"
	 y="0px" viewBox="0 0 1344.45 226.9" style="enable-background:new 0 0 1344.45 226.9;" xml:space="preserve">
<style type="text/css">
	.st0{fill:#FF6D0D;}
	.st1{fill:#F20C90;}
	.st2{fill:#FFFFFF;}
	.st3{clip-path:url(#SVGID_00000182487899420273721590000008397370177292806846_);}
	.st4{fill:#723131;}
	.st5{fill:#A3FBB5;}
	.st6{opacity:0.2;}
	.st7{fill:none;stroke:#A3FBB5;stroke-miterlimit:10;}
	.st8{fill:#F8FAF0;}
	.st9{fill:#FE6D01;}
	.st10{fill:#F40290;}
	.st11{fill:none;stroke:#FF6D0D;stroke-width:2;stroke-linecap:round;stroke-linejoin:round;stroke-miterlimit:10;}
</style>
<path class="st11" d="M1,120.22c0,0,41.42,51.48,97.55,51.48s78.1-25.53,88.26-34.84c25.55-23.42,35.61-51.1,89.03-51.1
	s139.35,82.06,170.32,98.32s56.52,30.97,101.42,30.97c44.9,0,75.87-54.97,90.58-92.13C652.87,85.77,681.42,10.7,730.29,2.54
	c47.74-7.97,78.97,16.65,103.74,35.23c24.77,18.58,88.52,82.84,145.55,82.84c47.23,0,75.72,14.5,123.87,63.48
	c38.97,39.64,37.94,41.81,49.55,41.81c18.84,0,37.16-34.06,64.26-89.81s67.35-113.81,126.19-113.81"/>
</svg>
