<?xml version="1.0" encoding="UTF-8"?><svg id="a" xmlns="http://www.w3.org/2000/svg" viewBox="0 0 540.21 96.13"><defs><style>.b{fill:#fff;}</style></defs><path class="b" d="M159.23,.02c-4.57,0-8.91,2.22-11.84,5.86-2.78,3.34-3.34,5.44-3.34,12.27V55.26c0,6.41-3.08,10.32-8.37,10.32s-8.37-4.06-8.37-10.73V18.15c0-6.54-1.12-10.05-4.18-13.26C120.33,1.98,116.01,.02,111.83,.02c-4.48,0-9.22,2.37-12.14,5.99-2.68,3.49-3.22,5.73-3.22,14.51V53.3c0,12.28,1.81,18.84,7.53,26.64,7.4,10.04,19.25,16.19,31.67,16.19,11.01,0,21.9-5.03,29.42-13.67,6.7-7.53,9.77-16.6,9.77-29.16V20.24c0-8.36-.7-11.15-3.63-14.64C168.46,2.24,163.72,.02,159.23,.02M82.52,30.64c-2.58-6.9-6.8-13.12-12.36-18.06C61.08,4.48,50.36,.71,36.41,.71H17.57C8.64,.71,2.94,4.21,.69,10.89c-.69,2.09-.69,2.94-.69,10.76v51.18c0,6.43,0,7.97,.56,10.05,.96,3.62,2.91,6.14,6.42,8.37,2.79,1.96,5.71,2.51,12.98,2.51h12.94c6.43,0,12.03-.44,15.78-1.12,8.1-1.67,15.9-5.73,21.9-11.3,9.46-8.78,14.92-21.33,14.92-34.18,0-5.7-1.04-11.28-2.98-16.52m-38.94,0l1.47,.63c5.99,2.93,9.89,9.21,9.89,16.05,0,5.71-2.93,11.41-7.52,14.77-3.65,2.5-6.14,2.93-16.76,3.07V29.31h2.54c4.79,0,7.79,.39,10.38,1.33M255.61,.02c-5.04,0-9.91,2.65-12.55,6.69-2.24,3.2-2.81,5.99-2.81,12.14v17.29l-4.47-5.51-19.93-24.49C212.35,1.82,208.87,.02,204.38,.02c-9.61,0-16.04,6.54-16.04,16.44v58.88c0,6.84,.71,9.61,3.23,13.1,2.92,3.76,7.53,6.01,12.27,6.01s8.92-2.1,11.88-5.59c2.63-3.36,3.47-6.14,3.47-12.28v-19.52l24.27,31.11c3.22,4.17,7.29,6.28,12.16,6.28s9.21-2.1,11.98-5.73c2.64-3.49,3.34-6.55,3.34-13.95V17.86c0-5.72-.97-8.91-3.61-12.27-2.93-3.48-7.11-5.57-11.72-5.57m87.98,46.15l10.68-15.54,4.95-7.18c1.51-2.24,2.37-5.18,2.37-8.1,0-8.23-7.13-15.34-15.49-15.34-5.17,0-9.63,2.48-12.71,7.11l-15.94,23.5-1.05,1.61v-14.96c0-5.55-1.13-9.04-4.06-12.12-2.78-3.2-7.11-5.16-11.58-5.16-9.19,0-15.33,6.97-15.33,17.15v59.69c0,10.75,5.99,17.6,15.6,17.6s15.36-7,15.36-17.72v-16.03l23,29.15c2.24,2.79,6.43,4.61,10.76,4.61,8.36,0,15.33-7.12,15.33-15.63,0-3.2-.99-6.01-2.93-8.38l-18.96-24.27ZM487.42,.02c-5.02,0-9.92,2.65-12.56,6.69-2.23,3.2-2.8,5.99-2.8,12.14v17.29l-4.44-5.51-19.95-24.49C444.17,1.82,440.68,.02,436.21,.02c-9.64,0-16.04,6.54-16.04,16.44v58.88c0,6.84,.71,9.61,3.2,13.1,2.92,3.76,7.52,6.01,12.28,6.01s8.94-2.1,11.85-5.59c2.64-3.36,3.49-6.14,3.49-12.28v-19.52l24.26,31.11c3.24,4.17,7.27,6.28,12.16,6.28s9.21-2.1,11.99-5.73c2.66-3.49,3.33-6.55,3.33-13.95V17.86c0-5.72-.97-8.91-3.6-12.27-2.93-3.48-7.12-5.57-11.72-5.57m39.19-.02c-8.12,0-13.58,9.79-13.58,17.89,0,3.6-.08,8.38,.8,12.77,1.13,5.49,3.76,10.37,9.91,11.57,6.52,1.25,10.97-4.72,13.59-11.59,1.94-5.11,2.89-10.71,2.89-14.18,0-8.11-5.51-16.46-13.61-16.46m-136.35,.02c-4.44,0-8.49,1.8-11.28,5-3.2,3.51-3.92,6.3-3.92,14.09v57.62c0,6.41,.99,9.6,3.92,12.83,2.66,2.93,7.26,4.89,11.43,4.89s8.51-1.96,11.43-5.18c2.8-3.05,3.93-6.67,3.93-12.54V19.12c0-7.51-.96-10.73-4.07-14.22-2.79-3.07-6.97-4.87-11.44-4.87"/><path class="b" d="M526.6,0c-8.12,0-13.58,9.79-13.58,17.89,0,3.6-.08,8.38,.8,12.77,1.13,5.49,3.76,10.37,9.91,11.57,6.52,1.25,10.97-4.72,13.59-11.59,1.94-5.11,2.89-10.71,2.89-14.18,0-8.11-5.51-16.46-13.61-16.46"/></svg>