<?xml version="1.0" encoding="utf-8"?>
<!-- Generator: Adobe Illustrator 25.4.1, SVG Export Plug-In . SVG Version: 6.00 Build 0)  -->
<svg version="1.1" id="레이어_1" xmlns="http://www.w3.org/2000/svg" xmlns:xlink="http://www.w3.org/1999/xlink" x="0px"
	 y="0px" viewBox="0 0 421.92 73.8" style="enable-background:new 0 0 421.92 73.8;" xml:space="preserve">
<style type="text/css">
	.st0{fill:#FF6D0D;}
	.st1{fill:#F20C90;}
	.st2{fill:#FFFFFF;}
	.st3{clip-path:url(#SVGID_00000169560498227639969810000002814475007008710805_);}
	.st4{fill:#723131;}
	.st5{fill:#A3FBB5;}
	.st6{opacity:0.2;}
	.st7{fill:none;stroke:#A3FBB5;stroke-miterlimit:10;}
</style>
<g>
	<path class="st2" d="M0,12.5c0-1.53,0.28-3,0.85-4.4C1.42,6.7,2.23,5.47,3.3,4.4c1.13-1.13,2.38-1.98,3.75-2.55
		C8.42,1.28,9.93,1,11.6,1l15.8-0.1C33,0.97,38.07,1.6,42.6,2.8c4.53,1.2,8.5,3,11.9,5.4c3.4,2.4,6.22,5.28,8.45,8.65
		c2.23,3.37,3.88,7.22,4.95,11.55c0.13,0.73,0.27,1.48,0.4,2.25c0.13,0.77,0.23,1.52,0.3,2.25c0.13,0.73,0.22,1.48,0.25,2.25
		c0.03,0.77,0.05,1.52,0.05,2.25c-0.07,5.13-1.02,9.83-2.85,14.1c-1.83,4.27-4.52,8.07-8.05,11.4c-3.53,3.4-7.55,5.92-12.05,7.55
		c-4.5,1.63-9.52,2.45-15.05,2.45H11.5c-1.6,0-3.07-0.27-4.4-0.8c-1.33-0.53-2.57-1.37-3.7-2.5c-1.13-1.13-1.98-2.38-2.55-3.75
		C0.28,64.48,0,62.97,0,61.3v-0.1V12.5z M28.6,53c2.6,0.07,4.95-0.28,7.05-1.05c2.1-0.77,3.95-1.88,5.55-3.35
		c1.6-1.53,2.8-3.22,3.6-5.05c0.8-1.83,1.2-3.88,1.2-6.15c-0.07-0.33-0.12-0.67-0.15-1c-0.03-0.33-0.05-0.67-0.05-1
		c-0.07-0.33-0.12-0.67-0.15-1c-0.03-0.33-0.08-0.67-0.15-1c-0.4-1.8-1.08-3.45-2.05-4.95c-0.97-1.5-2.22-2.82-3.75-3.95
		c-1.6-1.13-3.4-2-5.4-2.6S30.1,21,27.7,21l-4.6-0.1V53H28.6z"/>
	<path class="st2" d="M75.56,53.25c-0.8-1.5-1.47-3.05-2-4.65c-0.53-1.53-0.95-3.1-1.25-4.7s-0.52-3.2-0.65-4.8
		c-0.07-0.13-0.1-0.28-0.1-0.45c0-0.17,0-0.35,0-0.55c0-0.13,0-0.23,0-0.3c0-0.07,0-0.17,0-0.3c0-0.07,0-0.15,0-0.25s0-0.18,0-0.25
		c0-0.13,0-0.28,0-0.45c0-0.17,0-0.35,0-0.55c0-0.13,0-0.23,0-0.3c0-0.07,0-0.17,0-0.3c0-0.07,0.02-0.15,0.05-0.25
		c0.03-0.1,0.05-0.18,0.05-0.25c0.07-0.8,0.15-1.6,0.25-2.4c0.1-0.8,0.22-1.6,0.35-2.4c0.13-0.73,0.32-1.5,0.55-2.3
		c0.23-0.8,0.48-1.6,0.75-2.4c0.53-1.53,1.2-3.05,2-4.55s1.7-2.98,2.7-4.45c1.73-2.53,3.75-4.8,6.05-6.8s4.85-3.73,7.65-5.2
		c2.8-1.47,5.68-2.57,8.65-3.3c2.97-0.73,6.05-1.1,9.25-1.1c3.13,0,6.2,0.37,9.2,1.1c3,0.73,5.9,1.83,8.7,3.3
		c2.8,1.47,5.33,3.2,7.6,5.2c2.27,2,4.3,4.27,6.1,6.8c1,1.47,1.88,2.95,2.65,4.45c0.77,1.5,1.42,3.02,1.95,4.55
		c0.53,1.53,0.98,3.08,1.35,4.65c0.37,1.57,0.58,3.12,0.65,4.65c0,0.07,0,0.15,0,0.25c0,0.1,0.03,0.22,0.1,0.35
		c0,0.07,0,0.15,0,0.25s0,0.22,0,0.35c0,0.2,0,0.4,0,0.6c0,0.2,0,0.4,0,0.6c0,1.8-0.15,3.57-0.45,5.3c-0.3,1.73-0.72,3.47-1.25,5.2
		c-0.6,1.73-1.3,3.43-2.1,5.1c-0.8,1.67-1.77,3.3-2.9,4.9c-1.8,2.6-3.83,4.9-6.1,6.9c-2.27,2-4.8,3.7-7.6,5.1
		c-2.8,1.47-5.7,2.53-8.7,3.2s-6.07,1-9.2,1c-3.2,0-6.28-0.33-9.25-1c-2.97-0.67-5.85-1.73-8.65-3.2c-2.8-1.4-5.35-3.1-7.65-5.1
		s-4.32-4.3-6.05-6.9v-0.1C77.26,56.17,76.36,54.75,75.56,53.25z M95.61,43.8c0.77,2.07,1.88,3.87,3.35,5.4
		c1.53,1.6,3.2,2.78,5,3.55c1.8,0.77,3.73,1.15,5.8,1.15c0.27,0,0.52,0,0.75,0c0.23,0,0.48-0.03,0.75-0.1
		c0.27,0,0.52-0.02,0.75-0.05c0.23-0.03,0.48-0.08,0.75-0.15c1.8-0.33,3.45-0.98,4.95-1.95c1.5-0.97,2.85-2.18,4.05-3.65
		c1.2-1.53,2.1-3.22,2.7-5.05c0.6-1.83,0.9-3.78,0.9-5.85c0-0.13,0-0.27,0-0.4c0-0.13,0-0.27,0-0.4c-0.07-0.13-0.1-0.27-0.1-0.4
		c0-0.13,0-0.27,0-0.4c0-0.27-0.02-0.53-0.05-0.8c-0.03-0.27-0.08-0.53-0.15-0.8c-0.33-2.07-0.95-3.93-1.85-5.6
		c-0.9-1.67-2.05-3.13-3.45-4.4c-1.47-1.27-3.02-2.22-4.65-2.85c-1.63-0.63-3.38-0.95-5.25-0.95c-2.13,0-4.1,0.4-5.9,1.2
		c-1.8,0.8-3.47,2-5,3.6c-1.47,1.6-2.58,3.4-3.35,5.4c-0.77,2-1.15,4.23-1.15,6.7v-0.1C94.46,39.43,94.84,41.73,95.61,43.8z"/>
	<path class="st2" d="M155.51,68.25c-0.43-0.7-0.82-1.45-1.15-2.25c-0.27-0.8-0.48-1.6-0.65-2.4c-0.17-0.8-0.25-1.63-0.25-2.5V11.8
		c0-1.2,0.15-2.35,0.45-3.45c0.3-1.1,0.78-2.15,1.45-3.15c0.67-0.93,1.45-1.75,2.35-2.45c0.9-0.7,1.88-1.28,2.95-1.75
		c0.13-0.07,0.28-0.13,0.45-0.2c0.17-0.07,0.35-0.13,0.55-0.2c0.2-0.07,0.4-0.12,0.6-0.15c0.2-0.03,0.4-0.08,0.6-0.15
		c0.07,0,0.13,0,0.2,0c0.07,0,0.17-0.03,0.3-0.1c0.07,0,0.15,0,0.25,0c0.1,0,0.18,0,0.25,0c0.13,0,0.23,0,0.3,0
		c0.07,0,0.17-0.03,0.3-0.1c0.07,0,0.15,0,0.25,0s0.18,0,0.25,0c0.87,0,1.72,0.12,2.55,0.35c0.83,0.23,1.65,0.58,2.45,1.05
		c0.8,0.47,1.6,1.03,2.4,1.7c0.8,0.67,1.6,1.47,2.4,2.4l25.4,29.7V11.8c0-0.67,0.08-1.38,0.25-2.15c0.17-0.77,0.38-1.48,0.65-2.15
		c0.33-0.73,0.72-1.42,1.15-2.05c0.43-0.63,0.92-1.22,1.45-1.75c0.53-0.53,1.13-1.02,1.8-1.45c0.67-0.43,1.33-0.78,2-1.05
		c0.73-0.33,1.47-0.57,2.2-0.7c0.73-0.13,1.47-0.2,2.2-0.2c0.33,0,0.68,0.02,1.05,0.05c0.37,0.03,0.75,0.08,1.15,0.15
		c0.33,0.07,0.68,0.17,1.05,0.3c0.37,0.13,0.72,0.27,1.05,0.4c0.73,0.27,1.4,0.62,2,1.05c0.6,0.43,1.17,0.92,1.7,1.45
		c0.53,0.53,1.02,1.12,1.45,1.75c0.43,0.63,0.78,1.32,1.05,2.05c0.33,0.67,0.57,1.38,0.7,2.15c0.13,0.77,0.2,1.52,0.2,2.25v50.3
		c0,0.13,0,0.25,0,0.35s0,0.22,0,0.35c0,0.07,0,0.12,0,0.15c0,0.03,0,0.08,0,0.15c-0.07,0.07-0.1,0.13-0.1,0.2c0,0.07,0,0.12,0,0.15
		c0,0.03,0,0.08,0,0.15c-0.07,0.07-0.1,0.12-0.1,0.15c0,0.03,0,0.08,0,0.15c0,0.07,0,0.15,0,0.25s0,0.22,0,0.35
		c-0.27,1.4-0.72,2.65-1.35,3.75c-0.63,1.1-1.52,2.05-2.65,2.85c-1.07,0.87-2.23,1.48-3.5,1.85c-1.27,0.37-2.57,0.55-3.9,0.55
		c-0.07,0-0.15,0-0.25,0s-0.18,0-0.25,0c-0.13-0.07-0.23-0.1-0.3-0.1c-0.07,0-0.13,0-0.2,0c-0.07,0-0.15,0-0.25,0s-0.18,0-0.25,0
		c-0.13-0.07-0.23-0.1-0.3-0.1c-0.07,0-0.13,0-0.2,0c-0.33-0.07-0.67-0.15-1-0.25c-0.33-0.1-0.67-0.18-1-0.25
		c-0.33-0.07-0.67-0.17-1-0.3c-0.33-0.13-0.67-0.3-1-0.5c-0.27-0.13-0.53-0.3-0.8-0.5c-0.27-0.2-0.53-0.4-0.8-0.6
		c-0.27-0.2-0.5-0.42-0.7-0.65c-0.2-0.23-0.4-0.48-0.6-0.75l-26.2-31.9v24.4c0,0.87-0.07,1.67-0.2,2.4c-0.13,0.73-0.37,1.47-0.7,2.2
		c-0.27,0.67-0.62,1.33-1.05,2c-0.43,0.67-0.92,1.27-1.45,1.8c-0.53,0.53-1.1,1-1.7,1.4s-1.27,0.73-2,1
		c-0.33,0.07-0.68,0.15-1.05,0.25c-0.37,0.1-0.72,0.18-1.05,0.25c-0.4,0.07-0.78,0.12-1.15,0.15c-0.37,0.03-0.72,0.05-1.05,0.05
		c-0.73,0-1.47-0.07-2.2-0.2c-0.73-0.13-1.47-0.3-2.2-0.5c-0.67-0.33-1.33-0.72-2-1.15c-0.67-0.43-1.27-0.95-1.8-1.55v-0.1
		C156.43,69.57,155.94,68.95,155.51,68.25z"/>
	<path class="st2" d="M247.56,69.5c-3.63-1.8-6.68-4.13-9.15-7c-2.47-2.8-4.32-6.02-5.55-9.65c-1.23-3.63-1.85-7.68-1.85-12.15V11.8
		c0-0.67,0.07-1.38,0.2-2.15c0.13-0.77,0.33-1.52,0.6-2.25c0.33-0.73,0.7-1.42,1.1-2.05c0.4-0.63,0.87-1.22,1.4-1.75
		c0.53-0.6,1.13-1.12,1.8-1.55c0.67-0.43,1.37-0.78,2.1-1.05c0.73-0.33,1.47-0.57,2.2-0.7c0.73-0.13,1.5-0.2,2.3-0.2
		c0.07,0,0.12,0,0.15,0c0.03,0,0.08,0,0.15,0c0.07,0,0.13,0,0.2,0c0.07,0,0.12,0,0.15,0c0.03,0,0.08,0,0.15,0
		c0.07,0.07,0.12,0.1,0.15,0.1c0.03,0,0.08,0,0.15,0c0.6,0.07,1.2,0.17,1.8,0.3c0.6,0.13,1.2,0.37,1.8,0.7
		c0.6,0.27,1.17,0.58,1.7,0.95c0.53,0.37,1.03,0.78,1.5,1.25c0.53,0.53,1.03,1.12,1.5,1.75c0.47,0.63,0.83,1.32,1.1,2.05
		c0.33,0.73,0.57,1.48,0.7,2.25c0.13,0.77,0.2,1.52,0.2,2.25v29.6c0,1.73,0.22,3.3,0.65,4.7c0.43,1.4,1.08,2.67,1.95,3.8
		c0.93,1.07,2,1.95,3.2,2.65c1.2,0.7,2.6,1.18,4.2,1.45c0.13,0.07,0.25,0.12,0.35,0.15c0.1,0.03,0.18,0.05,0.25,0.05
		c0.13,0,0.25,0,0.35,0s0.22,0,0.35,0s0.25,0,0.35,0c0.1,0,0.18,0,0.25,0c0.13,0,0.25,0,0.35,0s0.18,0,0.25,0c0.2,0,0.4,0,0.6,0
		s0.4,0,0.6,0c0.2,0,0.4-0.02,0.6-0.05c0.2-0.03,0.4-0.08,0.6-0.15c1.53-0.27,2.91-0.75,4.15-1.45c1.23-0.7,2.28-1.58,3.15-2.65
		c0.93-1.13,1.62-2.4,2.05-3.8c0.43-1.4,0.65-2.93,0.65-4.6V11.6c0-0.67,0.08-1.38,0.25-2.15c0.16-0.77,0.38-1.52,0.65-2.25
		c0.33-0.73,0.72-1.42,1.15-2.05c0.43-0.63,0.92-1.22,1.45-1.75c0.53-0.53,1.12-1.02,1.75-1.45c0.63-0.43,1.28-0.78,1.95-1.05
		c0.73-0.27,1.45-0.47,2.15-0.6c0.7-0.13,1.42-0.2,2.15-0.2c0.73,0,1.48,0.07,2.25,0.2c0.77,0.13,1.48,0.37,2.15,0.7
		c0.73,0.27,1.42,0.63,2.05,1.1c0.63,0.47,1.21,0.97,1.75,1.5c0.53,0.53,1.02,1.12,1.45,1.75c0.43,0.63,0.78,1.32,1.05,2.05
		c0.33,0.73,0.57,1.48,0.7,2.25c0.13,0.77,0.2,1.52,0.2,2.25v28.7c0,4.53-0.62,8.62-1.85,12.25c-1.23,3.63-3.12,6.85-5.65,9.65
		c-2.47,2.87-5.52,5.18-9.15,6.95c-3.63,1.77-7.85,2.98-12.65,3.65c-0.53,0.13-1.07,0.22-1.6,0.25c-0.54,0.03-1.07,0.08-1.6,0.15
		c-0.27,0-0.54,0-0.8,0c-0.27,0-0.53,0.03-0.8,0.1c-0.27,0-0.54,0-0.8,0c-0.27,0-0.54,0-0.8,0s-0.53,0-0.8,0
		c-0.27,0-0.5-0.03-0.7-0.1c-0.27,0-0.53-0.02-0.8-0.05c-0.27-0.03-0.54-0.05-0.8-0.05c-0.27,0-0.53-0.02-0.8-0.05
		c-0.27-0.03-0.5-0.05-0.7-0.05c-0.27-0.07-0.53-0.12-0.8-0.15c-0.27-0.03-0.54-0.05-0.8-0.05v0.1
		C255.41,72.53,251.19,71.3,247.56,69.5z"/>
	<path class="st2" d="M304.76,7.05c0.47-1.17,1.17-2.22,2.1-3.15c0.93-0.93,1.98-1.65,3.15-2.15c1.17-0.5,2.42-0.75,3.75-0.75
		l39.1-0.1c1.33,0.07,2.58,0.35,3.75,0.85c1.17,0.5,2.25,1.25,3.25,2.25c0.93,1,1.65,2.08,2.15,3.25c0.5,1.17,0.75,2.45,0.75,3.85
		v0.1c-0.07,1.4-0.35,2.68-0.85,3.85c-0.5,1.17-1.22,2.22-2.15,3.15c-1,0.93-2.07,1.63-3.2,2.1c-1.13,0.47-2.37,0.7-3.7,0.7
		l-8.4-0.1v41.5c0,1.6-0.28,3.05-0.85,4.35c-0.57,1.3-1.42,2.52-2.55,3.65c-1.07,1.07-2.29,1.87-3.65,2.4
		c-1.37,0.53-2.82,0.8-4.35,0.8c-1.6,0-3.08-0.27-4.45-0.8c-1.37-0.53-2.62-1.33-3.75-2.4c-1.07-1.13-1.88-2.37-2.45-3.7
		c-0.57-1.33-0.85-2.8-0.85-4.4V20.7h-7.9c-1.4,0.07-2.67-0.13-3.8-0.6c-1.13-0.47-2.17-1.2-3.1-2.2c-0.93-0.93-1.62-1.98-2.05-3.15
		c-0.43-1.17-0.65-2.45-0.65-3.85v-0.1l-0.2-0.1C303.99,9.43,304.29,8.22,304.76,7.05z"/>
	<path class="st2" d="M368.42,69.25c-0.2-0.1-0.37-0.18-0.5-0.25c-0.2-0.13-0.38-0.27-0.55-0.4c-0.17-0.13-0.32-0.27-0.45-0.4
		c-0.87-0.6-1.58-1.2-2.15-1.8c-0.57-0.6-1.02-1.23-1.35-1.9c-0.33-0.6-0.58-1.3-0.75-2.1c-0.17-0.8-0.25-1.63-0.25-2.5
		c0-0.07,0-0.13,0-0.2c0-0.07,0-0.13,0-0.2v-0.1c0-0.07,0-0.13,0-0.2c0-0.53,0.05-1.05,0.15-1.55c0.1-0.5,0.22-0.98,0.35-1.45
		c0.13-0.47,0.3-0.9,0.5-1.3s0.43-0.8,0.7-1.2c0.53-0.73,1.05-1.38,1.55-1.95c0.5-0.57,1.05-1.02,1.65-1.35
		c0.53-0.33,1.13-0.57,1.8-0.7c0.67-0.13,1.4-0.2,2.2-0.2c0.13,0,0.27,0,0.4,0c0.13,0,0.27,0,0.4,0c0.13,0.07,0.27,0.1,0.4,0.1
		c0.13,0,0.27,0,0.4,0c0.27,0.07,0.55,0.12,0.85,0.15c0.3,0.03,0.62,0.08,0.95,0.15l4.4,1.1l4,1l2.9,0.7l1.1,0.3
		c0.13,0.13,0.28,0.22,0.45,0.25c0.17,0.03,0.32,0.05,0.45,0.05c0.07,0,0.13,0,0.2,0s0.13,0,0.2,0c0.07,0.07,0.13,0.1,0.2,0.1
		c0.07,0,0.13,0,0.2,0c0.33,0.07,0.68,0.12,1.05,0.15c0.37,0.03,0.68,0.05,0.95,0.05c0.33,0.07,0.62,0.1,0.85,0.1
		c0.23,0,0.48,0,0.75,0c0.27,0,0.52-0.02,0.75-0.05c0.23-0.03,0.48-0.08,0.75-0.15c0.2,0,0.4-0.02,0.6-0.05
		c0.2-0.03,0.4-0.08,0.6-0.15c0.13-0.07,0.28-0.12,0.45-0.15c0.17-0.03,0.28-0.08,0.35-0.15c0.07,0,0.13,0,0.2,0
		c0.07,0,0.13-0.03,0.2-0.1c0.13-0.07,0.23-0.13,0.3-0.2c0.07,0,0.12,0,0.15,0c0.03,0,0.08-0.03,0.15-0.1
		c0.07-0.07,0.13-0.1,0.2-0.1c0.07-0.07,0.13-0.12,0.2-0.15c0.07-0.03,0.13-0.08,0.2-0.15c0.13-0.13,0.27-0.27,0.4-0.4
		c0.13-0.13,0.23-0.27,0.3-0.4c0.07-0.13,0.12-0.28,0.15-0.45c0.03-0.17,0.05-0.35,0.05-0.55c-0.07-0.13-0.12-0.28-0.15-0.45
		c-0.04-0.17-0.08-0.32-0.15-0.45c-0.07-0.07-0.12-0.13-0.15-0.2c-0.03-0.07-0.08-0.13-0.15-0.2c-0.07,0-0.13-0.03-0.2-0.1
		c-0.07-0.07-0.13-0.13-0.2-0.2c-0.07,0-0.13-0.03-0.2-0.1c-0.07,0-0.13,0-0.2,0c-0.07,0-0.13-0.02-0.2-0.05
		c-0.07-0.03-0.13-0.08-0.2-0.15l-1.9-0.7l-1.3-0.4l-5.3-1.3l-1-0.2l-6.6-1.9c-1.07-0.2-2.04-0.45-2.9-0.75
		c-0.87-0.3-1.67-0.62-2.4-0.95c-0.73-0.33-1.43-0.67-2.1-1c-0.67-0.33-1.27-0.67-1.8-1c-1.4-0.87-2.62-1.87-3.65-3
		c-1.03-1.13-1.92-2.4-2.65-3.8c-0.73-1.4-1.29-2.85-1.65-4.35c-0.37-1.5-0.55-3.05-0.55-4.65c0-0.33,0-0.65,0-0.95
		c0-0.3,0.03-0.58,0.1-0.85c0-0.33,0.03-0.67,0.1-1c0.07-0.33,0.13-0.67,0.2-1c0.13-0.93,0.37-1.87,0.7-2.8
		c0.33-0.93,0.73-1.87,1.2-2.8c0.47-0.93,1-1.83,1.6-2.7c0.6-0.87,1.27-1.73,2-2.6c1.07-1.13,2.28-2.2,3.65-3.2
		c1.37-1,2.88-1.9,4.55-2.7c1.73-0.8,3.57-1.48,5.5-2.05c1.93-0.57,4-0.98,6.2-1.25c0.13,0,0.25,0,0.35,0c0.1,0,0.22-0.03,0.35-0.1
		c0.07,0,0.17,0,0.3,0c0.13,0,0.23,0,0.3,0c0.13,0,0.25,0,0.35,0c0.1,0,0.21-0.03,0.35-0.1c0.07,0,0.17,0,0.3,0c0.13,0,0.27,0,0.4,0
		c0.13,0,0.25,0,0.35,0c0.1,0,0.18-0.03,0.25-0.1c0.13,0,0.25,0,0.35,0c0.1,0,0.18,0,0.25,0c0.2,0,0.42,0,0.65,0
		c0.23,0,0.48,0,0.75,0c0.93,0,1.85,0.03,2.75,0.1c0.9,0.07,1.78,0.17,2.65,0.3c0.93,0.07,1.82,0.2,2.65,0.4
		c0.83,0.2,1.68,0.43,2.55,0.7c1.93,0.6,3.62,1.22,5.05,1.85c1.43,0.63,2.58,1.32,3.45,2.05c0.93,0.67,1.7,1.43,2.3,2.3
		c0.6,0.87,1.03,1.8,1.3,2.8c0.13,0.27,0.22,0.55,0.25,0.85c0.03,0.3,0.08,0.62,0.15,0.95c0,0.13,0,0.28,0,0.45
		c0,0.17,0.03,0.32,0.1,0.45c0,0.13,0,0.27,0,0.4c0,0.13,0,0.27,0,0.4c0,0.47-0.03,0.95-0.1,1.45c-0.07,0.5-0.17,0.98-0.3,1.45
		c-0.13,0.47-0.3,0.9-0.5,1.3c-0.2,0.4-0.43,0.77-0.7,1.1c-0.47,0.73-1,1.37-1.6,1.9c-0.6,0.53-1.2,0.97-1.8,1.3
		c-0.6,0.33-1.27,0.58-2,0.75c-0.73,0.17-1.53,0.25-2.4,0.25c-0.47,0-0.93-0.02-1.4-0.05c-0.47-0.03-0.97-0.08-1.5-0.15
		c-0.47-0.13-0.98-0.25-1.55-0.35c-0.57-0.1-1.15-0.25-1.75-0.45l-0.8-0.4l-2.9-0.9l-1.2-0.3l-2.8-0.7l-1.4-0.3l-1-0.2
		c-0.07,0.07-0.12,0.1-0.15,0.1c-0.04,0-0.08,0-0.15,0c-0.07,0-0.13,0-0.2,0c-0.07,0-0.1-0.03-0.1-0.1c-0.07,0-0.13,0-0.2,0
		c-0.07,0-0.13,0-0.2,0c-0.07,0-0.12,0-0.15,0c-0.04,0-0.08,0-0.15,0c-0.07,0-0.13,0-0.2,0c-0.07,0-0.13,0-0.2,0s-0.13,0-0.2,0
		c-0.07,0-0.13,0-0.2,0c-0.4,0-0.75,0.02-1.05,0.05c-0.3,0.03-0.55,0.08-0.75,0.15c-0.27,0.07-0.5,0.15-0.7,0.25
		c-0.2,0.1-0.37,0.22-0.5,0.35c-0.13,0.13-0.25,0.28-0.35,0.45c-0.1,0.17-0.22,0.32-0.35,0.45c-0.07,0.13-0.12,0.27-0.15,0.4
		c-0.03,0.13-0.05,0.27-0.05,0.4c0,0.13,0.02,0.25,0.05,0.35c0.03,0.1,0.08,0.22,0.15,0.35c0.07,0.07,0.13,0.13,0.2,0.2
		c0.07,0.07,0.13,0.13,0.2,0.2c0.13,0.07,0.25,0.13,0.35,0.2c0.1,0.07,0.22,0.13,0.35,0.2c0.13,0.07,0.27,0.12,0.4,0.15
		c0.13,0.03,0.3,0.08,0.5,0.15l4.9,1.2l3,0.7l0.8,0.2l5.8,1.6c0.87,0.33,1.7,0.62,2.5,0.85c0.8,0.23,1.53,0.52,2.2,0.85
		c0.33,0.13,0.68,0.27,1.05,0.4c0.37,0.13,0.72,0.27,1.05,0.4c0.33,0.2,0.67,0.37,1,0.5c0.33,0.13,0.63,0.27,0.9,0.4
		c1.8,0.93,3.38,2.03,4.75,3.3c1.37,1.27,2.52,2.7,3.45,4.3c0.93,1.6,1.65,3.23,2.15,4.9c0.5,1.67,0.75,3.4,0.75,5.2
		c0,0.13,0,0.28,0,0.45c0,0.17,0,0.32,0,0.45c-0.07,0.2-0.1,0.38-0.1,0.55c0,0.17,0,0.32,0,0.45c-0.07,0.27-0.12,0.55-0.15,0.85
		c-0.03,0.3-0.05,0.62-0.05,0.95c-0.2,0.93-0.47,1.87-0.8,2.8c-0.33,0.93-0.7,1.87-1.1,2.8c-0.47,0.87-0.97,1.75-1.5,2.65
		c-0.53,0.9-1.17,1.75-1.9,2.55c-1.4,1.67-2.97,3.12-4.7,4.35c-1.73,1.23-3.67,2.32-5.8,3.25c-2.07,0.87-4.33,1.5-6.8,1.9
		c-2.47,0.4-5.17,0.6-8.1,0.6c-0.2,0-0.38,0-0.55,0c-0.17,0-0.32,0-0.45,0c-0.2-0.07-0.38-0.1-0.55-0.1c-0.17,0-0.35,0-0.55,0
		s-0.4,0-0.6,0c-0.2,0-0.37,0-0.5,0c-0.2-0.07-0.38-0.1-0.55-0.1c-0.17,0-0.35,0-0.55,0c-2.2-0.13-4.2-0.3-6-0.5
		c-1.8-0.2-3.43-0.5-4.9-0.9c-1.47-0.33-2.75-0.72-3.85-1.15c-1.1-0.43-2.05-0.88-2.85-1.35v-0.1
		C368.82,69.43,368.62,69.35,368.42,69.25z"/>
</g>
</svg>
