<?xml version="1.0" encoding="UTF-8"?><svg id="a" xmlns="http://www.w3.org/2000/svg" xmlns:xlink="http://www.w3.org/1999/xlink" viewBox="0 0 225.7 225.7"><defs><style>.c{clip-path:url(#b);}.d{fill:#723131;}.e{fill:none;}</style><clipPath id="b"><circle class="e" cx="112.85" cy="112.85" r="112.85"/></clipPath></defs><g class="c"><g><path class="d" d="M-13.92,239.62c-3.9-3.9-3.91-10.24,0-14.14L225.48-13.92c3.91-3.91,10.24-3.9,14.14,0s3.91,10.24,0,14.14L.23,239.62c-3.91,3.91-10.24,3.9-14.14,0Z"/><path class="d" d="M10.95,264.48c-3.9-3.9-3.91-10.24,0-14.14L250.34,10.95c3.91-3.91,10.24-3.9,14.14,0s3.91,10.24,0,14.14L25.09,264.48c-3.91,3.91-10.24,3.9-14.14,0Z"/><path class="d" d="M35.82,289.35c-3.9-3.9-3.91-10.24,0-14.14L275.21,35.82c3.91-3.91,10.24-3.9,14.14,0s3.91,10.24,0,14.14L49.96,289.35c-3.91,3.91-10.24,3.9-14.14,0Z"/><path class="d" d="M60.68,314.22c-3.9-3.9-3.91-10.24,0-14.14L300.08,60.68c3.91-3.91,10.24-3.9,14.14,0s3.91,10.24,0,14.14L74.82,314.22c-3.91,3.91-10.24,3.9-14.14,0Z"/><path class="d" d="M-88.52,165.02c-3.9-3.9-3.91-10.24,0-14.14L150.88-88.52c3.91-3.91,10.24-3.9,14.14,0s3.91,10.24,0,14.14L-74.37,165.02c-3.91,3.91-10.24,3.9-14.14,0Z"/><path class="d" d="M-63.65,189.89c-3.9-3.9-3.91-10.24,0-14.14L175.74-63.65c3.91-3.91,10.24-3.9,14.14,0s3.91,10.24,0,14.14L-49.51,189.89c-3.91,3.91-10.24,3.9-14.14,0Z"/><path class="d" d="M-38.78,214.75c-3.9-3.9-3.91-10.24,0-14.14L200.61-38.78c3.91-3.91,10.24-3.9,14.14,0,3.9,3.9,3.91,10.24,0,14.14L-24.64,214.75c-3.91,3.91-10.24,3.9-14.14,0Z"/></g></g></svg>