<?xml version="1.0" encoding="UTF-8"?><svg id="a" xmlns="http://www.w3.org/2000/svg" xmlns:xlink="http://www.w3.org/1999/xlink" viewBox="0 0 178.23 114.54"><defs><style>.c{clip-path:url(#b);}.d{fill:#723131;}.e{fill:none;}.f{fill:#a3fbb5;}</style><clipPath id="b"><circle class="e" cx="-190.39" cy="58.72" r="112.85"/></clipPath></defs><g class="c"><path class="d" d="M-242.56,260.08c-3.9-3.9-3.91-10.24,0-14.14L-3.17,6.55C.74,2.64,7.07,2.64,10.98,6.55s3.91,10.24,0,14.14l-239.39,239.39c-3.91,3.91-10.24,3.9-14.14,0Z"/></g><g><path class="f" d="M77.65,114.54c-3.12,0-6.19-1.45-8.14-4.18L1.87,15.82C-1.35,11.33-.31,5.08,4.18,1.87,8.67-1.35,14.92-.31,18.13,4.18L85.77,98.72c3.21,4.49,2.18,10.74-2.31,13.95-1.76,1.26-3.8,1.87-5.81,1.87Z"/><path class="f" d="M122.94,114.54c-3.12,0-6.19-1.45-8.14-4.18L47.16,15.82c-3.21-4.49-2.18-10.74,2.31-13.95,4.5-3.21,10.74-2.18,13.95,2.31l67.64,94.53c3.21,4.49,2.18,10.74-2.31,13.95-1.76,1.26-3.8,1.87-5.81,1.87Z"/><path class="f" d="M168.24,114.54c-3.12,0-6.19-1.45-8.14-4.18L92.46,15.82c-3.21-4.49-2.18-10.74,2.31-13.95,4.49-3.21,10.74-2.18,13.95,2.31l67.64,94.53c3.21,4.49,2.18,10.74-2.31,13.95-1.76,1.26-3.8,1.87-5.81,1.87Z"/></g></svg>