<?xml version="1.0" encoding="UTF-8"?><svg id="a" xmlns="http://www.w3.org/2000/svg" viewBox="0 0 129.36 57.14"><defs><style>.b{fill:#723131;}</style></defs><path class="b" d="M4,57.14c-.76,0-1.52-.21-2.2-.66-1.84-1.22-2.35-3.7-1.14-5.54,.23-.35,5.84-8.66,17.75-8.66,6.08,0,9.97,2.24,13.1,4.03,2.75,1.58,4.92,2.83,8.47,2.83,3.2,0,4.83-.98,7.29-2.45,3.27-1.96,7.34-4.4,15.37-4.4,7.55,0,11.27,2.13,14.56,4.01,2.78,1.59,4.97,2.85,9.99,2.85,5.39,0,7.96-1.46,10.94-3.15,3.06-1.74,6.53-3.71,12.42-3.71,12.14,0,17.88,8.26,18.12,8.61,1.24,1.83,.76,4.32-1.07,5.56-1.83,1.24-4.32,.76-5.56-1.06-.12-.17-3.73-5.1-11.5-5.1-3.78,0-5.75,1.12-8.47,2.66-3.29,1.87-7.39,4.2-14.89,4.2s-10.77-2.07-13.97-3.9c-2.88-1.65-5.16-2.96-10.58-2.96-5.81,0-8.33,1.51-11.25,3.26-2.81,1.69-5.99,3.59-11.41,3.59s-9.28-2.07-12.45-3.89c-2.89-1.66-5.17-2.97-9.12-2.97-7.53,0-11.04,5.01-11.07,5.06-.77,1.17-2.04,1.8-3.34,1.8Z"/><path class="b" d="M4,43.05c-.76,0-1.52-.21-2.2-.66-1.84-1.22-2.35-3.7-1.14-5.54,.23-.35,5.84-8.66,17.75-8.66,6.08,0,9.97,2.24,13.1,4.03,2.75,1.58,4.92,2.83,8.47,2.83,3.2,0,4.83-.98,7.29-2.45,3.27-1.96,7.34-4.4,15.37-4.4,7.55,0,11.27,2.13,14.56,4.01,2.78,1.59,4.97,2.85,9.99,2.85,5.39,0,7.96-1.46,10.94-3.15,3.06-1.74,6.53-3.71,12.42-3.71,12.14,0,17.88,8.26,18.12,8.61,1.24,1.83,.76,4.32-1.07,5.56-1.83,1.24-4.31,.76-5.56-1.06-.12-.17-3.73-5.1-11.5-5.1-3.78,0-5.75,1.12-8.47,2.66-3.29,1.87-7.39,4.2-14.89,4.2s-10.77-2.07-13.97-3.9c-2.89-1.65-5.17-2.96-10.58-2.96-5.81,0-8.33,1.51-11.25,3.26-2.81,1.68-5.99,3.59-11.41,3.59s-9.28-2.07-12.45-3.89c-2.89-1.66-5.17-2.97-9.12-2.97-7.53,0-11.04,5.01-11.07,5.06-.77,1.17-2.04,1.8-3.34,1.8Z"/><path class="b" d="M4,28.95c-.76,0-1.52-.21-2.2-.66-1.84-1.22-2.35-3.7-1.14-5.54,.23-.35,5.84-8.66,17.75-8.66,6.08,0,9.97,2.24,13.1,4.03,2.75,1.58,4.92,2.83,8.47,2.83,3.2,0,4.83-.98,7.29-2.45,3.27-1.96,7.34-4.4,15.37-4.4,7.55,0,11.27,2.13,14.56,4.01,2.78,1.59,4.97,2.85,9.99,2.85,5.39,0,7.96-1.46,10.94-3.15,3.06-1.74,6.53-3.71,12.42-3.71,12.14,0,17.88,8.26,18.12,8.61,1.24,1.83,.76,4.32-1.07,5.56-1.83,1.24-4.32,.76-5.56-1.06-.12-.17-3.73-5.1-11.5-5.1-3.78,0-5.75,1.12-8.47,2.66-3.29,1.87-7.39,4.2-14.89,4.2s-10.77-2.07-13.97-3.9c-2.88-1.65-5.16-2.96-10.58-2.96-5.81,0-8.33,1.51-11.25,3.26-2.81,1.69-5.99,3.59-11.41,3.59s-9.28-2.07-12.45-3.89c-2.89-1.66-5.17-2.97-9.12-2.97-7.53,0-11.04,5.01-11.07,5.06-.77,1.17-2.04,1.8-3.34,1.8Z"/><path class="b" d="M4,14.86c-.76,0-1.52-.21-2.2-.66C-.05,12.98-.56,10.5,.66,8.66,.89,8.3,6.51,0,18.41,0c6.08,0,9.97,2.24,13.1,4.03,2.75,1.58,4.92,2.83,8.47,2.83,3.2,0,4.83-.98,7.29-2.45,3.27-1.96,7.34-4.4,15.37-4.4,7.55,0,11.27,2.13,14.56,4.01,2.78,1.59,4.97,2.85,9.99,2.85,5.39,0,7.96-1.46,10.94-3.15,3.06-1.74,6.53-3.71,12.42-3.71,12.14,0,17.88,8.26,18.12,8.61,1.24,1.83,.76,4.32-1.07,5.56-1.83,1.24-4.32,.76-5.56-1.06-.12-.17-3.73-5.1-11.5-5.1-3.78,0-5.75,1.12-8.47,2.66-3.29,1.87-7.39,4.2-14.89,4.2s-10.77-2.07-13.97-3.9c-2.88-1.65-5.16-2.96-10.58-2.96-5.81,0-8.33,1.51-11.25,3.26-2.81,1.69-5.99,3.59-11.41,3.59s-9.28-2.07-12.45-3.89c-2.89-1.66-5.17-2.97-9.12-2.97-7.53,0-11.04,5.01-11.07,5.06-.77,1.17-2.04,1.8-3.34,1.8Z"/></svg>