<?xml version="1.0" encoding="utf-8"?>
<!-- Generator: Adobe Illustrator 25.4.1, SVG Export Plug-In . SVG Version: 6.00 Build 0)  -->
<svg version="1.1" id="레이어_1" xmlns="http://www.w3.org/2000/svg" xmlns:xlink="http://www.w3.org/1999/xlink" x="0px"
	 y="0px" viewBox="0 0 1890 210" style="enable-background:new 0 0 1890 210;" xml:space="preserve">
<style type="text/css">
	.st0{fill:#FF6D0D;}
	.st1{fill:#F20C90;}
	.st2{fill:#FFFFFF;}
	.st3{clip-path:url(#SVGID_00000120536223814759080240000008492975577990200978_);}
	.st4{fill:#723131;}
	.st5{fill:#A3FBB5;}
	.st6{opacity:0.2;}
	.st7{fill:none;stroke:#A3FBB5;stroke-miterlimit:10;}
	.st8{fill:#F8FAF0;}
</style>
<path class="st8" d="M1785,0c-57.99,0-105,47.01-105,105c0-57.99-47.01-105-105-105c-57.99,0-105,47.01-105,105
	c0-57.99-47.01-105-105-105c-57.99,0-105,47.01-105,105c0-57.99-47.01-105-105-105c-57.99,0-105,47.01-105,105
	c0-57.99-47.01-105-105-105c-57.99,0-105,47.01-105,105C840,47.01,792.99,0,735,0c-57.99,0-105,47.01-105,105
	C630,47.01,582.99,0,525,0c-57.99,0-105,47.01-105,105C420,47.01,372.99,0,315,0c-57.99,0-105,47.01-105,105
	C210,47.01,162.99,0,105,0C47.01,0,0,47.01,0,105v105h1890V105C1890,47.01,1842.99,0,1785,0z"/>
</svg>
